<svg width="20" height="20" viewBox="0 0 20 20" fill="none" xmlns="http://www.w3.org/2000/svg">
<path d="M9.99166 1.66663C5.39166 1.66663 1.66666 5.39996 1.66666 9.99996C1.66666 14.6 5.39166 18.3333 9.99166 18.3333C14.6 18.3333 18.3333 14.6 18.3333 9.99996C18.3333 5.39996 14.6 1.66663 9.99166 1.66663ZM9.99999 16.6666C6.31666 16.6666 3.33332 13.6833 3.33332 9.99996C3.33332 6.31663 6.31666 3.33329 9.99999 3.33329C13.6833 3.33329 16.6667 6.31663 16.6667 9.99996C16.6667 13.6833 13.6833 16.6666 9.99999 16.6666ZM9.81666 5.83329H9.76666C9.43332 5.83329 9.16666 6.09996 9.16666 6.43329V10.3666C9.16666 10.6583 9.31666 10.9333 9.57499 11.0833L13.0333 13.1583C13.3167 13.325 13.6833 13.2416 13.85 12.9583C14.025 12.675 13.9333 12.3 13.6417 12.1333L10.4167 10.2166V6.43329C10.4167 6.09996 10.15 5.83329 9.81666 5.83329Z" fill="#CACACA"/>
</svg>
