<svg width="20" height="20" viewBox="0 0 20 20" fill="none" xmlns="http://www.w3.org/2000/svg">
<path d="M5.00001 16.6667C5.91668 16.6667 6.66668 15.9167 6.66668 15V9.16671C6.66668 8.25004 5.91668 7.50004 5.00001 7.50004C4.08334 7.50004 3.33334 8.25004 3.33334 9.16671V15C3.33334 15.9167 4.08334 16.6667 5.00001 16.6667Z" fill="#CACACA"/>
<path d="M13.3333 12.5V15C13.3333 15.9167 14.0833 16.6667 15 16.6667C15.9167 16.6667 16.6667 15.9167 16.6667 15V12.5C16.6667 11.5834 15.9167 10.8334 15 10.8334C14.0833 10.8334 13.3333 11.5834 13.3333 12.5Z" fill="#CACACA"/>
<path d="M10 16.6667C10.9167 16.6667 11.6667 15.9167 11.6667 15V5.00004C11.6667 4.08337 10.9167 3.33337 10 3.33337C9.08334 3.33337 8.33334 4.08337 8.33334 5.00004V15C8.33334 15.9167 9.08334 16.6667 10 16.6667Z" fill="#CACACA"/>
</svg>
