<svg width="32" height="33" viewBox="0 0 32 33" fill="none" xmlns="http://www.w3.org/2000/svg">
<path d="M17.1866 15.1042C14.8133 14.3175 13.6666 13.8242 13.6666 12.5708C13.6666 11.2108 15.1466 10.7175 16.08 10.7175C17.8266 10.7175 18.4666 12.0375 18.6133 12.5042L20.72 11.6108C20.52 11.0108 19.6266 9.05084 17.3333 8.62418V6.97085H14.6666V8.65085C11.36 9.39751 11.3466 12.4642 11.3466 12.5975C11.3466 15.6242 14.3466 16.4775 15.8133 17.0108C17.92 17.7575 18.8533 18.4375 18.8533 19.7175C18.8533 21.2242 17.4533 21.8642 16.2133 21.8642C13.7866 21.8642 13.0933 19.3708 13.0133 19.0775L10.8 19.9708C11.64 22.8908 13.84 23.6775 14.6666 23.9175V25.6375H17.3333V23.9842C17.8666 23.8642 21.2 23.1975 21.2 19.6908C21.2 17.8375 20.3866 16.2108 17.1866 15.1042ZM3.99998 28.3042H1.33331V20.3042H9.33331V22.9708H6.02665C8.17331 26.1842 11.84 28.3042 16 28.3042C22.6266 28.3042 28 22.9308 28 16.3042H30.6666C30.6666 24.4108 24.1066 30.9708 16 30.9708C11.04 30.9708 6.65331 28.5042 3.99998 24.7442V28.3042ZM1.33331 16.3042C1.33331 8.19751 7.89331 1.63751 16 1.63751C20.96 1.63751 25.3466 4.10418 28 7.86418V4.30418H30.6666V12.3042H22.6666V9.63751H25.9733C23.8266 6.42418 20.16 4.30418 16 4.30418C9.37331 4.30418 3.99998 9.67751 3.99998 16.3042H1.33331Z" fill="#129AB2"/>
</svg>
