<svg width="32" height="33" viewBox="0 0 32 33" fill="none" xmlns="http://www.w3.org/2000/svg">
<path d="M5.33333 22.4646C6.80609 22.4646 8 21.2707 8 19.798C8 18.3252 6.80609 17.1313 5.33333 17.1313C3.86057 17.1313 2.66667 18.3252 2.66667 19.798C2.66667 21.2707 3.86057 22.4646 5.33333 22.4646Z" fill="#129AB2"/>
<path d="M1.62667 24.5713C0.64 24.998 0 25.958 0 27.038V29.1313H6V26.9846C6 25.878 6.30667 24.838 6.84 23.9313C6.34667 23.8513 5.85333 23.798 5.33333 23.798C4.01333 23.798 2.76 24.078 1.62667 24.5713Z" fill="#129AB2"/>
<path d="M26.6667 22.4646C28.1394 22.4646 29.3333 21.2707 29.3333 19.798C29.3333 18.3252 28.1394 17.1313 26.6667 17.1313C25.1939 17.1313 24 18.3252 24 19.798C24 21.2707 25.1939 22.4646 26.6667 22.4646Z" fill="#129AB2"/>
<path d="M30.3733 24.5713C29.24 24.078 27.9867 23.798 26.6667 23.798C26.1467 23.798 25.6533 23.8513 25.16 23.9313C25.6933 24.838 26 25.878 26 26.9846V29.1313H32V27.038C32 25.958 31.36 24.998 30.3733 24.5713Z" fill="#129AB2"/>
<path d="M21.6533 23.3313C20.0933 22.638 18.1733 22.1313 16 22.1313C13.8267 22.1313 11.9067 22.6513 10.3467 23.3313C8.90667 23.9713 8 25.4113 8 26.9846V29.1313H24V26.9846C24 25.4113 23.0933 23.9713 21.6533 23.3313ZM10.76 26.4646C10.88 26.158 11.12 25.9046 11.4133 25.7713C12.88 25.118 14.4267 24.798 15.9867 24.798C17.56 24.798 19.0933 25.1313 20.56 25.7713C20.8667 25.9046 21.0933 26.158 21.2133 26.4646H10.76Z" fill="#129AB2"/>
<path d="M12 17.1313C12 19.3446 13.7867 21.1313 16 21.1313C18.2133 21.1313 20 19.3446 20 17.1313C20 14.918 18.2133 13.1313 16 13.1313C13.7867 13.1313 12 14.918 12 17.1313ZM17.3333 17.1313C17.3333 17.8646 16.7333 18.4646 16 18.4646C15.2667 18.4646 14.6667 17.8646 14.6667 17.1313C14.6667 16.398 15.2667 15.798 16 15.798C16.7333 15.798 17.3333 16.398 17.3333 17.1313Z" fill="#129AB2"/>
<path d="M3.30667 15.6113C2.89333 14.598 2.66667 13.6113 2.66667 12.598C2.66667 9.15797 5.36 6.46464 8.8 6.46464C12.3733 6.46464 13.8933 8.78464 16 11.2513C18.0933 8.81131 19.6 6.46464 23.2 6.46464C26.64 6.46464 29.3333 9.15797 29.3333 12.598C29.3333 13.6113 29.1067 14.598 28.6933 15.6113C29.56 16.0246 30.2667 16.7046 30.7333 17.5313C31.5333 15.9313 32 14.3046 32 12.598C32 7.66464 28.1333 3.79797 23.2 3.79797C20.4133 3.79797 17.7467 5.09131 16 7.14464C14.2533 5.09131 11.5867 3.79797 8.8 3.79797C3.86667 3.79797 0 7.66464 0 12.598C0 14.3046 0.466667 15.9313 1.28 17.5313C1.74667 16.7046 2.45333 16.0246 3.30667 15.6113Z" fill="#129AB2"/>
</svg>
