<svg width="32" height="32" viewBox="0 0 32 32" fill="none" xmlns="http://www.w3.org/2000/svg">
<path d="M22.12 12.6666H20V5.99996C20 5.26663 19.4 4.66663 18.6667 4.66663H13.3334C12.6 4.66663 12 5.26663 12 5.99996V12.6666H9.88002C8.69335 12.6666 8.09335 14.1066 8.93335 14.9466L15.0534 21.0666C15.5734 21.5866 16.4134 21.5866 16.9334 21.0666L23.0534 14.9466C23.8934 14.1066 23.3067 12.6666 22.12 12.6666ZM6.66669 26C6.66669 26.7333 7.26669 27.3333 8.00002 27.3333H24C24.7334 27.3333 25.3334 26.7333 25.3334 26C25.3334 25.2666 24.7334 24.6666 24 24.6666H8.00002C7.26669 24.6666 6.66669 25.2666 6.66669 26Z" fill="#129AB2"/>
</svg>
