<svg width="20" height="20" viewBox="0 0 20 20" fill="none" xmlns="http://www.w3.org/2000/svg">
<path d="M3.27799 7.91667H14.9447V9.58333H16.6113V4.58333C16.6113 3.66667 15.8613 2.91667 14.9447 2.91667H14.1113V1.25H12.4447V2.91667H5.778V1.25H4.11133V2.91667H3.27799C2.35299 2.91667 1.61966 3.66667 1.61966 4.58333L1.61133 16.25C1.61133 17.1667 2.35299 17.9167 3.27799 17.9167H9.11133V16.25H3.27799V7.91667ZM3.27799 4.58333H14.9447V6.25H3.27799V4.58333ZM18.1447 13.15L17.553 13.7417L15.7863 11.975L16.378 11.3833C16.703 11.0583 17.228 11.0583 17.553 11.3833L18.1447 11.975C18.4697 12.3 18.4697 12.825 18.1447 13.15ZM15.1947 12.5667L16.9613 14.3333L12.5447 18.75H10.778V16.9833L15.1947 12.5667Z" fill="#A9A9A9"/>
</svg>
