<svg width="32" height="33" viewBox="0 0 32 33" fill="none" xmlns="http://www.w3.org/2000/svg">
<path d="M29.3333 12.3042V9.63757H26.6667V12.3042H24V14.9709H26.6667V17.6376H29.3333V14.9709H32V12.3042H29.3333Z" fill="#129AB2"/>
<path d="M10.6667 16.3042C13.6133 16.3042 16 13.9176 16 10.9709C16 8.02424 13.6133 5.63757 10.6667 5.63757C7.72 5.63757 5.33333 8.02424 5.33333 10.9709C5.33333 13.9176 7.72 16.3042 10.6667 16.3042ZM10.6667 8.30424C12.1333 8.30424 13.3333 9.50424 13.3333 10.9709C13.3333 12.4376 12.1333 13.6376 10.6667 13.6376C9.2 13.6376 8 12.4376 8 10.9709C8 9.50424 9.2 8.30424 10.6667 8.30424Z" fill="#129AB2"/>
<path d="M10.6667 17.6376C7.10667 17.6376 0 19.4242 0 22.9709V26.9709H21.3333V22.9709C21.3333 19.4242 14.2267 17.6376 10.6667 17.6376ZM18.6667 24.3042H2.66667V22.9842C2.93333 22.0242 7.06667 20.3042 10.6667 20.3042C14.2667 20.3042 18.4 22.0242 18.6667 22.9709V24.3042Z" fill="#129AB2"/>
<path d="M16.68 5.70424C17.9067 7.11757 18.6667 8.95757 18.6667 10.9709C18.6667 12.9842 17.9067 14.8242 16.68 16.2376C19.2933 15.9042 21.3333 13.6909 21.3333 10.9709C21.3333 8.25091 19.2933 6.03757 16.68 5.70424Z" fill="#129AB2"/>
<path d="M22.04 18.7442C23.2267 19.8509 24 21.2376 24 22.9709V26.9709H26.6667V22.9709C26.6667 21.0376 24.5467 19.6242 22.04 18.7442Z" fill="#129AB2"/>
</svg>
