<svg width="52" height="53" viewBox="0 0 52 53" fill="none" xmlns="http://www.w3.org/2000/svg">
<g clip-path="url(#clip0_1_1064)">
<path d="M40.5161 33.2936L45.2097 30.6054C45.9626 30.1751 46.8552 30.0601 47.6927 30.2855C48.5301 30.5109 49.2444 31.0585 49.6796 31.8086L49.7183 31.8753C50.1235 32.5649 50.2703 33.3762 50.1324 34.1642C49.9945 34.9521 49.581 35.6653 48.9656 36.1764L40.2376 43.3807C39.7156 43.8124 39.0982 44.1135 38.4366 44.2592L21.8774 47.9387C21.3111 48.0644 20.7251 48.0743 20.1549 47.9677C19.5846 47.861 19.0418 47.6402 18.5591 47.3183L8.26666 40.4678C7.5601 39.9966 6.72987 39.7452 5.88064 39.7452H2.88171V26.842L10.5161 25.9936C11.86 25.8441 13.2202 26.0139 14.486 26.4893L20.3624 28.6925C20.8941 28.8923 21.4445 29.0386 22.0054 29.1291L32.9989 30.9129C33.8725 30.976 34.6898 31.3674 35.2864 32.0086C35.8831 32.6497 36.2149 33.493 36.215 34.3688C36.2149 35.2448 35.8829 36.0883 35.286 36.7294C34.6891 37.3706 33.8716 37.762 32.9978 37.8248L21.1613 38.6699" stroke="#C2EAF4" stroke-width="2" stroke-linecap="round" stroke-linejoin="round"/>
<path d="M31.914 23.6162C37.2587 23.6162 41.5914 19.2835 41.5914 13.9388C41.5914 8.59408 37.2587 4.26135 31.914 4.26135C26.5693 4.26135 22.2365 8.59408 22.2365 13.9388C22.2365 19.2835 26.5693 23.6162 31.914 23.6162Z" stroke="#C2EAF4" stroke-width="2" stroke-linecap="round" stroke-linejoin="round"/>
<path d="M31.9151 9.63778L27.614 13.939L31.9151 18.2402L36.2163 13.939L31.9151 9.63778Z" stroke="#C2EAF4" stroke-width="2" stroke-linecap="round" stroke-linejoin="round"/>
</g>
<defs>
<clipPath id="clip0_1_1064">
<rect width="51.6129" height="51.6129" fill="white" transform="translate(0.193542 0.497925)"/>
</clipPath>
</defs>
</svg>
