<svg width="16" height="17" viewBox="0 0 16 17" fill="none" xmlns="http://www.w3.org/2000/svg">
<path d="M7.33325 11.8334H8.66659V11.1667H9.33325C9.69992 11.1667 9.99992 10.8667 9.99992 10.5V8.50002C9.99992 8.13335 9.69992 7.83335 9.33325 7.83335H7.33325V7.16669H9.99992V5.83335H8.66659V5.16669H7.33325V5.83335H6.66659C6.29992 5.83335 5.99992 6.13335 5.99992 6.50002V8.50002C5.99992 8.86669 6.29992 9.16669 6.66659 9.16669H8.66659V9.83335H5.99992V11.1667H7.33325V11.8334ZM13.3333 3.16669H2.66659C1.92659 3.16669 1.33992 3.76002 1.33992 4.50002L1.33325 12.5C1.33325 13.24 1.92659 13.8334 2.66659 13.8334H13.3333C14.0733 13.8334 14.6666 13.24 14.6666 12.5V4.50002C14.6666 3.76002 14.0733 3.16669 13.3333 3.16669ZM13.3333 12.5H2.66659V4.50002H13.3333V12.5Z" fill="#626262"/>
</svg>
