<svg width="18" height="19" viewBox="0 0 18 19" fill="none" xmlns="http://www.w3.org/2000/svg">
<path d="M9 2.3042C6.0975 2.3042 3.75 4.6517 3.75 7.5542C3.75 11.4917 9 17.3042 9 17.3042C9 17.3042 14.25 11.4917 14.25 7.5542C14.25 4.6517 11.9025 2.3042 9 2.3042ZM5.25 7.5542C5.25 5.4842 6.93 3.8042 9 3.8042C11.07 3.8042 12.75 5.4842 12.75 7.5542C12.75 9.7142 10.59 12.9467 9 14.9642C7.44 12.9617 5.25 9.6917 5.25 7.5542Z" fill="#A9A9A9"/>
<path d="M9 9.4292C10.0355 9.4292 10.875 8.58973 10.875 7.5542C10.875 6.51867 10.0355 5.6792 9 5.6792C7.96447 5.6792 7.125 6.51867 7.125 7.5542C7.125 8.58973 7.96447 9.4292 9 9.4292Z" fill="#A9A9A9"/>
</svg>
