<svg width="20" height="20" viewBox="0 0 20 20" fill="none" xmlns="http://www.w3.org/2000/svg">
<path d="M2.08113 14.5823C2.40613 14.9073 2.93113 14.9073 3.25613 14.5823L7.08113 10.7573C7.40613 10.4323 7.93113 10.4323 8.25613 10.7573L9.23113 11.7323C10.2061 12.7073 11.7895 12.7073 12.7645 11.7323L16.2478 8.25728L17.4478 9.45728C17.7061 9.71562 18.1561 9.53228 18.1561 9.16562V5.59062C18.1645 5.35728 17.9811 5.17395 17.7478 5.17395H14.1728C13.7978 5.17395 13.6145 5.62395 13.8811 5.88228L15.0811 7.08228L11.6061 10.5573C11.2811 10.8823 10.7561 10.8823 10.4311 10.5573L9.45613 9.58228C8.48113 8.60728 6.89779 8.60728 5.92279 9.58228L2.08113 13.4073C1.76446 13.7323 1.76446 14.2656 2.08113 14.5823Z" fill="#CACACA"/>
</svg>
