<svg width="48" height="48" viewBox="0 0 48 48" fill="none" xmlns="http://www.w3.org/2000/svg">
<circle cx="24" cy="24" r="19.5" stroke="#A9A9A9"/>
<path d="M27.5637 17.6454C27.3541 17.443 27.0734 17.331 26.7821 17.3335C26.4908 17.3361 26.2121 17.4529 26.0061 17.6589C25.8001 17.8649 25.6832 18.1436 25.6807 18.435C25.6782 18.7263 25.7901 19.007 25.9925 19.2165L29.6514 22.8754H16.7781C16.4834 22.8754 16.2008 22.9925 15.9924 23.2008C15.7841 23.4092 15.667 23.6918 15.667 23.9865C15.667 24.2812 15.7841 24.5638 15.9924 24.7722C16.2008 24.9806 16.4834 25.0976 16.7781 25.0976H29.6514L25.9925 28.7565C25.8864 28.859 25.8018 28.9816 25.7435 29.1172C25.6853 29.2527 25.6547 29.3985 25.6534 29.5461C25.6521 29.6936 25.6802 29.8399 25.7361 29.9765C25.7919 30.113 25.8744 30.2371 25.9788 30.3414C26.0831 30.4457 26.2072 30.5282 26.3437 30.5841C26.4803 30.64 26.6266 30.6681 26.7741 30.6668C26.9216 30.6655 27.0674 30.6349 27.203 30.5766C27.3386 30.5184 27.4612 30.4337 27.5637 30.3276L33.1192 24.7721C33.3275 24.5637 33.4445 24.2811 33.4445 23.9865C33.4445 23.6919 33.3275 23.4093 33.1192 23.201L27.5637 17.6454Z" fill="#A9A9A9"/>
</svg>
