<svg width="20" height="21" viewBox="0 0 20 21" fill="none" xmlns="http://www.w3.org/2000/svg">
<path d="M10.0083 13.9994C9.78325 13.9994 9.57492 13.9161 9.41659 13.7578C9.24992 13.5911 9.17492 13.3994 9.17492 13.1661C9.16659 12.7078 9.53325 12.3411 9.99158 12.3328H10.0083C10.2416 12.3328 10.4333 12.4161 10.5999 12.5744C10.7499 12.7328 10.8333 12.9328 10.8333 13.1578C10.8333 13.3828 10.7499 13.5828 10.5916 13.7494C10.4333 13.9161 10.2333 13.9994 10.0083 13.9994ZM9.27492 10.9494C9.27492 10.5744 9.35825 10.2494 9.51659 9.98276C9.67492 9.70776 9.95825 9.39943 10.3499 9.04943C10.5833 8.8411 10.7499 8.65776 10.8583 8.49943C10.9666 8.3411 11.0166 8.1661 11.0166 7.9661C11.0166 7.72443 10.9249 7.52443 10.7499 7.34943C10.5749 7.18276 10.3333 7.09943 10.0416 7.09943C9.73325 7.09943 9.42492 7.18276 9.24159 7.34943C9.06659 7.5161 8.90825 7.72443 8.90825 8.1661H7.49992C7.49992 7.32443 7.88325 6.72443 8.30825 6.32443C8.77492 5.89943 9.37492 5.6661 9.99992 5.6661C10.4916 5.6661 10.9249 5.7661 11.3083 5.95776C11.6916 6.14943 11.9666 6.4161 12.1833 6.75776C12.3999 7.09943 12.4999 7.47443 12.4999 7.88276C12.4999 8.2911 12.4166 8.63276 12.2416 8.92443C12.0666 9.2161 11.8416 9.5161 11.4999 9.83276C11.2333 10.0828 11.0583 10.2994 10.9583 10.4744C10.8583 10.6494 10.8083 10.8828 10.8083 11.1494V11.4994H9.26659V10.9494H9.27492ZM14.9999 9.1661C14.9999 6.1411 12.7916 3.99943 9.99992 3.99943C7.20825 3.99943 4.99992 6.1411 4.99992 9.1661C4.99992 11.1161 6.62492 13.6994 9.99992 16.7828C13.3749 13.6994 14.9999 11.1161 14.9999 9.1661ZM9.99992 2.33276C13.4999 2.33276 16.6666 5.0161 16.6666 9.1661C16.6666 11.9328 14.4416 15.2078 9.99992 18.9994C5.55825 15.2078 3.33325 11.9328 3.33325 9.1661C3.33325 5.0161 6.49992 2.33276 9.99992 2.33276Z" fill="#E9E9E9"/>
</svg>
