<svg width="16" height="17" viewBox="0 0 16 17" fill="none" xmlns="http://www.w3.org/2000/svg">
<path d="M7.99998 2.13753C4.31998 2.13753 1.33331 5.1242 1.33331 8.8042C1.33331 12.4842 4.31998 15.4709 7.99998 15.4709C11.68 15.4709 14.6666 12.4842 14.6666 8.8042C14.6666 5.1242 11.68 2.13753 7.99998 2.13753ZM7.99998 14.1375C5.05998 14.1375 2.66665 11.7442 2.66665 8.8042C2.66665 5.8642 5.05998 3.47087 7.99998 3.47087C10.94 3.47087 13.3333 5.8642 13.3333 8.8042C13.3333 11.7442 10.94 14.1375 7.99998 14.1375ZM8.59331 8.2042C7.40665 7.81087 6.83331 7.5642 6.83331 6.93753C6.83331 6.25753 7.57331 6.01087 8.03998 6.01087C8.91331 6.01087 9.23331 6.67087 9.30665 6.9042L10.36 6.45753C10.26 6.1642 9.81331 5.1842 8.58665 4.97087V4.13753H7.41998V4.97753C5.68665 5.35087 5.67331 6.87753 5.67331 6.95087C5.67331 8.4642 7.17331 8.89087 7.90665 9.15753C8.95998 9.53087 9.42665 9.87087 9.42665 10.5109C9.42665 11.2642 8.72665 11.5842 8.10665 11.5842C6.89331 11.5842 6.54665 10.3375 6.50665 10.1909L5.39998 10.6375C5.81998 12.0975 6.91998 12.4909 7.41331 12.6109V13.4709H8.57998V12.6442C8.92665 12.5842 10.5933 12.2509 10.5933 10.4975C10.6 9.57087 10.1933 8.75753 8.59331 8.2042Z" fill="#F79720"/>
</svg>
