<svg width="48" height="48" viewBox="0 0 48 48" fill="none" xmlns="http://www.w3.org/2000/svg">
<circle cx="20" cy="20" r="19.5" transform="matrix(-1 0 0 1 44 4)" stroke="#A9A9A9"/>
<path d="M20.4363 17.6454C20.6459 17.443 20.9266 17.331 21.2179 17.3335C21.5092 17.3361 21.7879 17.4529 21.9939 17.6589C22.1999 17.8649 22.3168 18.1436 22.3193 18.435C22.3218 18.7263 22.2099 19.007 22.0075 19.2165L18.3486 22.8754H31.2219C31.5166 22.8754 31.7992 22.9925 32.0076 23.2008C32.2159 23.4092 32.333 23.6918 32.333 23.9865C32.333 24.2812 32.2159 24.5638 32.0076 24.7722C31.7992 24.9806 31.5166 25.0976 31.2219 25.0976H18.3486L22.0075 28.7565C22.1136 28.859 22.1982 28.9816 22.2565 29.1172C22.3147 29.2527 22.3453 29.3985 22.3466 29.5461C22.3479 29.6936 22.3198 29.8399 22.2639 29.9765C22.2081 30.113 22.1256 30.2371 22.0212 30.3414C21.9169 30.4457 21.7928 30.5282 21.6563 30.5841C21.5197 30.64 21.3734 30.6681 21.2259 30.6668C21.0784 30.6655 20.9326 30.6349 20.797 30.5766C20.6614 30.5184 20.5388 30.4337 20.4363 30.3276L14.8808 24.7721C14.6725 24.5637 14.5555 24.2811 14.5555 23.9865C14.5555 23.6919 14.6725 23.4093 14.8808 23.201L20.4363 17.6454Z" fill="#A9A9A9"/>
</svg>
