<svg width="20" height="16" viewBox="0 0 20 16" fill="none" xmlns="http://www.w3.org/2000/svg">
<path d="M13.3837 0.866271C13.148 0.638573 12.8322 0.51258 12.5045 0.515428C12.1768 0.518276 11.8632 0.649737 11.6315 0.881497C11.3997 1.11326 11.2683 1.42677 11.2654 1.75452C11.2626 2.08226 11.3886 2.39802 11.6163 2.63377L15.7325 6.75002H1.25C0.918479 6.75002 0.600537 6.88172 0.366117 7.11614C0.131696 7.35056 0 7.6685 0 8.00002C0 8.33154 0.131696 8.64948 0.366117 8.8839C0.600537 9.11832 0.918479 9.25002 1.25 9.25002H15.7325L11.6163 13.3663C11.4969 13.4816 11.4016 13.6195 11.3361 13.772C11.2706 13.9245 11.2361 14.0885 11.2347 14.2545C11.2332 14.4205 11.2649 14.5851 11.3277 14.7387C11.3906 14.8923 11.4834 15.0319 11.6008 15.1493C11.7181 15.2666 11.8577 15.3594 12.0113 15.4223C12.1649 15.4851 12.3295 15.5168 12.4955 15.5153C12.6615 15.5139 12.8255 15.4794 12.978 15.4139C13.1305 15.3484 13.2684 15.2532 13.3837 15.1338L19.6337 8.88377C19.8681 8.64936 19.9997 8.33148 19.9997 8.00002C19.9997 7.66857 19.8681 7.35068 19.6337 7.11627L13.3837 0.866271Z" fill="#17677B"/>
</svg>
