<svg width="32" height="33" viewBox="0 0 32 33" fill="none" xmlns="http://www.w3.org/2000/svg">
<path d="M25.3997 22.9979C25.933 22.0646 26.333 20.9979 26.333 19.7979C26.333 16.4646 23.6663 13.7979 20.333 13.7979C16.9997 13.7979 14.333 16.4646 14.333 19.7979C14.333 23.1312 16.9997 25.7979 20.333 25.7979C21.533 25.7979 22.5997 25.3979 23.533 24.8646L27.7997 29.1312L29.6663 27.2646L25.3997 22.9979ZM20.333 23.1312C18.4663 23.1312 16.9997 21.6646 16.9997 19.7979C16.9997 17.9312 18.4663 16.4646 20.333 16.4646C22.1997 16.4646 23.6663 17.9312 23.6663 19.7979C23.6663 21.6646 22.1997 23.1312 20.333 23.1312ZM15.6663 27.1312V29.7979C8.30634 29.7979 2.33301 23.8246 2.33301 16.4646C2.33301 9.10456 8.30634 3.13123 15.6663 3.13123C22.1197 3.13123 27.493 7.71789 28.733 13.7979H25.973C25.1197 10.5179 22.773 7.83789 19.6663 6.58456V7.13123C19.6663 8.59789 18.4663 9.79789 16.9997 9.79789H14.333V12.4646C14.333 13.1979 13.733 13.7979 12.9997 13.7979H10.333V16.4646H12.9997V20.4646H11.6663L5.27967 14.0779C5.10634 14.8512 4.99967 15.6379 4.99967 16.4646C4.99967 22.3446 9.78634 27.1312 15.6663 27.1312Z" fill="#129AB2"/>
</svg>
