<svg width="32" height="33" viewBox="0 0 32 33" fill="none" xmlns="http://www.w3.org/2000/svg">
<path d="M16 2.97089C8.64002 2.97089 2.66669 8.94422 2.66669 16.3042C2.66669 23.6642 8.64002 29.6376 16 29.6376C23.36 29.6376 29.3334 23.6642 29.3334 16.3042C29.3334 8.94422 23.36 2.97089 16 2.97089ZM5.33335 16.3042C5.33335 15.4909 5.44002 14.6909 5.61335 13.9309L11.9867 20.3042V21.6376C11.9867 23.1042 13.1867 24.3042 14.6534 24.3042V26.8776C9.41335 26.2109 5.33335 21.7309 5.33335 16.3042ZM23.8534 23.5042C23.5067 22.4242 22.52 21.6376 21.32 21.6376H19.9867V17.6376C19.9867 16.9042 19.3867 16.3042 18.6534 16.3042H10.6534V13.6376H13.32C14.0534 13.6376 14.6534 13.0376 14.6534 12.3042V9.63755H17.32C18.7867 9.63755 19.9867 8.43755 19.9867 6.97089V6.42422C23.8934 7.99755 26.6667 11.8376 26.6667 16.3042C26.6667 19.0776 25.5867 21.6109 23.8534 23.5042Z" fill="#129AB2"/>
</svg>
