<svg width="20" height="20" viewBox="0 0 20 20" fill="none" xmlns="http://www.w3.org/2000/svg">
<path d="M2.91667 15.4167V6.25H16.25V8.99167C16.85 9.175 17.4167 9.44167 17.9167 9.8V6.25C17.9167 5.325 17.175 4.58333 16.25 4.58333H12.9167V2.91667C12.9167 1.99167 12.175 1.25 11.25 1.25H7.91667C6.99167 1.25 6.25 1.99167 6.25 2.91667V4.58333H2.91667C1.99167 4.58333 1.25833 5.325 1.25833 6.25L1.25 15.4167C1.25 16.3417 1.99167 17.0833 2.91667 17.0833H9.31667C9.06667 16.5667 8.9 16.0083 8.81667 15.4167H2.91667ZM7.91667 2.91667H11.25V4.58333H7.91667V2.91667Z" fill="#CACACA"/>
<path d="M14.5833 10.4167C12.2833 10.4167 10.4167 12.2833 10.4167 14.5833C10.4167 16.8833 12.2833 18.75 14.5833 18.75C16.8833 18.75 18.75 16.8833 18.75 14.5833C18.75 12.2833 16.8833 10.4167 14.5833 10.4167ZM15.9583 16.5417L14.1667 14.75V12.0833H15V14.4083L16.5417 15.95L15.9583 16.5417Z" fill="#CACACA"/>
</svg>
