<svg width="20" height="20" viewBox="0 0 20 20" fill="none" xmlns="http://www.w3.org/2000/svg">
<path d="M11.6667 5.41665V3.74998H8.33332V5.41665H11.6667ZM3.33332 7.91665V15.4166C3.33332 15.875 3.70832 16.25 4.16666 16.25H15.8333C16.2917 16.25 16.6667 15.875 16.6667 15.4166V7.91665C16.6667 7.45831 16.2917 7.08331 15.8333 7.08331H4.16666C3.70832 7.08331 3.33332 7.45831 3.33332 7.91665ZM16.6667 5.41665C17.5917 5.41665 18.3333 6.15831 18.3333 7.08331V16.25C18.3333 17.175 17.5917 17.9166 16.6667 17.9166H3.33332C2.40832 17.9166 1.66666 17.175 1.66666 16.25L1.67499 7.08331C1.67499 6.15831 2.40832 5.41665 3.33332 5.41665H6.66666V3.74998C6.66666 2.82498 7.40832 2.08331 8.33332 2.08331H11.6667C12.5917 2.08331 13.3333 2.82498 13.3333 3.74998V5.41665H16.6667Z" fill="#CACACA"/>
</svg>
