<svg width="25" height="24" viewBox="0 0 25 24" fill="none" xmlns="http://www.w3.org/2000/svg">
<path d="M12.5 23.5C18.8513 23.5 24 18.3513 24 12C24 5.64873 18.8513 0.5 12.5 0.5C6.14873 0.5 1 5.64873 1 12C1 18.3513 6.14873 23.5 12.5 23.5Z" fill="#1877F2"/>
<path d="M16.9767 15.3239L17.4867 11.9999H14.2972V9.84294C14.2972 8.93344 14.7427 8.04694 16.1712 8.04694H17.6212V5.21694C16.7699 5.07917 15.9095 5.00397 15.0472 4.99194C12.4202 4.99194 10.7032 6.58394 10.7032 9.46644V11.9999H7.7832V15.3239H10.7032V23.3599C11.8939 23.5466 13.1065 23.5466 14.2972 23.3599V15.3239H16.9767Z" fill="white"/>
</svg>
