<?xml version="1.0" encoding="utf-8"?><svg xmlns="http://www.w3.org/2000/svg" xmlns:xlink="http://www.w3.org/1999/xlink"><symbol viewBox="0 0 16 16" id="cancel" xmlns="http://www.w3.org/2000/svg"><g clip-path="url(#aclip0)"><path d="M8.938 8.005l6.858-6.859a.666.666 0 10-.942-.942L7.995 7.062 1.137.204a.666.666 0 00-.942.942l6.858 6.859-6.858 6.858a.666.666 0 00.942.942l6.858-6.858 6.859 6.858a.666.666 0 00.942-.942L8.938 8.005z"/></g><defs><clipPath id="aclip0"><path d="M0 0h16v16H0z"/></clipPath></defs></symbol><symbol viewBox="0 0 20 20" id="close" xmlns="http://www.w3.org/2000/svg"><path d="M19.867 19.073a.556.556 0 00-.06-.06l-9.023-9.028L19.812.962a.556.556 0 10-.787-.787l-9.022 9.029L.98.175a.556.556 0 10-.786.787l9.028 9.023-9.028 9.022a.554.554 0 10.78.781l9.029-9.022 9.022 9.028a.554.554 0 00.842-.72z"/></symbol><symbol viewBox="0 0 14 14" id="lang" xmlns="http://www.w3.org/2000/svg"><path d="M7 0C3.13 0 0 3.13 0 7s3.13 7 7 7 7-3.13 7-7-3.13-7-7-7zM4.887.953c-.37.519-.684 1.065-.948 1.638H2.351A6.348 6.348 0 014.887.953zM1.85 3.187h1.839a10.532 10.532 0 00-.705 3.515H.604A6.385 6.385 0 011.85 3.187zm0 7.626A6.385 6.385 0 01.604 7.298h2.38a10.46 10.46 0 00.715 3.515h-1.85zm.502.596h1.603c.266.573.581 1.125.945 1.643a6.37 6.37 0 01-2.55-1.642zm4.351 1.99a6.825 6.825 0 01-.879-.1 10.115 10.115 0 01-1.21-1.887h2.09v1.987zm0-2.585H4.34a9.963 9.963 0 01-.761-3.516h3.123v3.515zm0-4.112H3.58a10 10 0 01.756-3.515h2.367v3.515zm.003-4.111H4.607A9.78 9.78 0 015.823.704c.287-.054.581-.086.882-.1v1.987zm5.445.595a6.356 6.356 0 011.246 3.516h-2.38a10.474 10.474 0 00-.715-3.515h1.85zm-.5-.595h-1.604A10.544 10.544 0 009.1.948a6.36 6.36 0 012.55 1.643zM7.297.604c.298.014.592.049.879.1.475.587.881 1.22 1.21 1.887h-2.09V.604zm0 2.583H9.66a9.95 9.95 0 01.761 3.515H7.298V3.187zm0 4.11h3.123a10.036 10.036 0 01-.756 3.516H7.298V7.298zm-.003 6.099v-1.987h2.099a9.78 9.78 0 01-1.216 1.887 6.34 6.34 0 01-.882.1zm1.804-.344c.363-.518.678-1.07.941-1.643h1.612A6.391 6.391 0 019.1 13.052zm1.193-2.239a10.98 10.98 0 00.722-3.515h2.385a6.386 6.386 0 01-1.246 3.515h-1.86z"/></symbol><symbol viewBox="0 0 21 20" id="search" xmlns="http://www.w3.org/2000/svg"><path d="M8.925 0C4.069 0 .117 3.951.117 8.808c0 4.856 3.952 8.807 8.808 8.807 4.857 0 8.808-3.95 8.808-8.807S13.782 0 8.925 0zm0 15.99c-3.96 0-7.182-3.223-7.182-7.182 0-3.96 3.222-7.182 7.182-7.182 3.96 0 7.182 3.222 7.182 7.182 0 3.96-3.222 7.181-7.182 7.181z"/><path d="M19.88 18.612l-4.662-4.661a.813.813 0 10-1.15 1.15l4.662 4.66a.81.81 0 001.15 0 .813.813 0 000-1.15z"/></symbol></svg>