<svg width="205" height="52" viewBox="0 0 205 52" fill="none" xmlns="http://www.w3.org/2000/svg">
<g clip-path="url(#clip0_49_4767)">
<path d="M35.5582 38.0361C35.5582 38.0488 35.5582 38.0616 35.5582 38.0744C32.2885 38.0744 29.0188 38.0744 25.7491 38.0744C25.7491 38.0488 25.7491 38.0233 25.7746 38.0105C25.8512 37.9977 25.9151 37.9977 25.9917 37.9977C29.0826 37.9977 32.1863 37.9977 35.2772 37.9977C35.3666 37.985 35.4688 37.9722 35.5582 38.0361Z" fill="url(#paint0_linear_49_4767)"/>
<path d="M18.3028 0.0255447C18.3028 0.0127724 18.3028 0.0127724 18.3028 0C20.9722 0 23.6416 0 26.2983 0C26.2983 0.0383171 26.2727 0.0638618 26.2344 0.0638618C26.0939 0.0383171 25.9534 0.0894065 25.8129 0.0894065C23.3862 0.0894065 20.9722 0.0894065 18.5455 0.0894065C18.456 0.0766341 18.3666 0.102179 18.3028 0.0255447Z" fill="url(#paint1_linear_49_4767)"/>
<path d="M0 25.5319C0.0127724 25.5319 0.0127724 25.5319 0.0255447 25.5319C0.102179 25.6597 0.102179 25.8002 0.0255447 25.9279H0C0 25.8002 0 25.6724 0 25.5319Z" fill="url(#paint2_linear_49_4767)"/>
<path d="M0.102179 24.6762C0.21713 23.7438 0.498122 22.8497 0.932382 22.0068C0.983471 21.9684 1.04733 21.9557 1.11119 21.9557C1.16228 21.9557 1.22615 21.9557 1.27724 21.9557C14.2412 21.9557 27.1923 21.9557 40.1563 21.9557C40.2712 21.9557 40.3989 21.9301 40.5011 22.0068C40.8332 22.5815 41.1781 23.169 41.5101 23.7438C41.6762 24.0248 41.8295 24.3058 41.9827 24.574C41.9444 24.6251 41.8805 24.6251 41.8295 24.6251C41.7528 24.6251 41.6634 24.6251 41.5868 24.6251C27.8948 24.6251 14.2029 24.6251 0.523666 24.6251C0.370398 24.6379 0.229902 24.6379 0.102179 24.6762Z" fill="url(#paint3_linear_49_4767)"/>
<path d="M0.102179 24.6762C0.127724 24.6123 0.178813 24.574 0.255447 24.5868C0.293764 24.5868 0.332081 24.5868 0.383171 24.5868C14.1645 24.5868 27.9459 24.5868 41.7273 24.5868C41.8167 24.5868 41.9061 24.5868 41.9827 24.5868C42.1871 24.9316 42.3787 25.2637 42.583 25.6086C42.6086 25.6597 42.6341 25.7107 42.6597 25.7618C42.417 26.1706 42.1871 26.5793 41.9444 26.9752C41.9189 27.0263 41.8805 27.0646 41.855 27.1157C41.6762 27.0902 41.5101 27.0902 41.3313 27.0902C27.7671 27.0902 14.1901 27.0902 0.625845 27.0902C0.472577 27.0902 0.319309 27.0902 0.166041 27.1029C0.0766341 26.7198 0.0638618 26.3238 0.0383171 25.9406C0.0383171 25.8129 0.0383171 25.6724 0.0383171 25.5447C0.0383171 25.2509 0.0510894 24.9572 0.102179 24.6762Z" fill="url(#paint4_linear_49_4767)"/>
<path d="M40.4884 22.0068C27.2945 22.0068 14.1134 22.0068 0.919609 22.0068C1.16228 21.5086 1.45605 21.0361 1.73704 20.5635C1.85199 20.5252 1.96694 20.5507 2.08189 20.5507C5.0834 20.5507 8.0849 20.5507 11.0864 20.5507C11.163 20.5507 11.2524 20.5379 11.3291 20.5635C11.3929 20.5763 11.4568 20.589 11.4313 20.6784C11.2908 20.9211 11.1503 21.1638 11.0098 21.4065C10.9587 21.4831 10.9842 21.5086 11.0609 21.4959C11.0864 21.4959 11.1247 21.4959 11.1503 21.4959C17.4981 21.4959 23.846 21.4959 30.1938 21.4959C30.2577 21.4959 30.3088 21.4959 30.3982 21.4959C30.2577 21.2532 30.13 21.0361 30.0023 20.8062C29.7724 20.4102 29.5424 20.0271 29.3125 19.6311C29.2998 19.6183 29.3125 19.6056 29.2998 19.58C29.3381 19.5162 29.4147 19.5162 29.4786 19.5034C29.5424 19.4906 29.6063 19.5034 29.6829 19.5034C32.71 19.5034 35.737 19.5034 38.7641 19.5034C38.8663 19.5034 38.9684 19.4906 39.0578 19.5545C39.4538 20.2314 39.8497 20.9083 40.2457 21.598C40.3479 21.7385 40.4117 21.8663 40.4884 22.0068Z" fill="url(#paint5_linear_49_4767)"/>
<path d="M39.0834 19.5545C35.9286 19.5545 32.7739 19.5545 29.6191 19.5545C29.5169 19.5545 29.4275 19.58 29.3381 19.5928C28.9805 18.9797 28.6228 18.3666 28.2652 17.7663C28.1758 17.6131 28.0864 17.4598 28.0098 17.3065C28.0864 17.2299 28.1758 17.2554 28.2652 17.2554C29.3381 17.2554 30.4237 17.2554 31.4966 17.2554C33.4636 17.2554 35.4305 17.2554 37.3974 17.2554C37.5124 17.2554 37.6401 17.2171 37.7551 17.2682C38.1893 18.0218 38.6364 18.7881 39.0834 19.5545Z" fill="url(#paint6_linear_49_4767)"/>
<path d="M35.8392 13.9474C36.1585 14.4966 36.4778 15.0458 36.8099 15.595C36.861 15.6844 36.9121 15.7866 36.9632 15.876C36.8866 15.9527 36.7844 15.9271 36.6822 15.9271C34.9835 15.9271 33.2847 15.9271 31.586 15.9271C30.1683 15.9271 28.7633 15.9271 27.3456 15.9271C27.2945 15.9271 27.2562 15.9271 27.2051 15.9144C26.9241 15.429 26.6431 14.9437 26.3621 14.4583C26.2727 14.305 26.1705 14.1773 26.1195 14.0113C26.1195 13.9219 26.1961 13.9346 26.2472 13.9346C26.3238 13.9219 26.3877 13.9346 26.4643 13.9346C29.4658 13.9346 32.4673 13.9346 35.4688 13.9346C35.5838 13.9346 35.7115 13.8963 35.8392 13.9474Z" fill="url(#paint7_linear_49_4767)"/>
<path d="M4.82795 15.1991C5.14726 14.6371 5.47934 14.0751 5.79865 13.5132C5.83696 13.4876 5.87528 13.4876 5.9136 13.4876C9.04282 13.5004 12.1593 13.4876 15.2885 13.5004C15.3779 13.5004 15.4801 13.4748 15.544 13.5515C15.2374 14.0751 14.9437 14.6116 14.6371 15.1352C14.6116 15.1736 14.5988 15.2246 14.5477 15.263C14.3944 15.2757 14.2539 15.2502 14.1007 15.2502C11.0992 15.2502 8.11044 15.2502 5.10894 15.2502C5.03231 15.2502 4.91736 15.2757 4.82795 15.1991Z" fill="url(#paint8_linear_49_4767)"/>
<path d="M15.5567 13.5515C15.314 13.5515 15.0714 13.5515 14.8159 13.5515C11.9421 13.5515 9.0556 13.5515 6.18182 13.5515C6.05409 13.5515 5.92637 13.5515 5.79865 13.5259C6.11796 12.9767 6.43727 12.4147 6.75657 11.8655C6.87153 11.8272 6.98648 11.8527 7.10143 11.8527C10.1285 11.8527 13.1555 11.8527 16.1826 11.8527C16.2847 11.8527 16.3997 11.8017 16.4763 11.9294C16.2847 12.3253 16.0421 12.7085 15.8249 13.0917C15.7483 13.2449 15.6461 13.3982 15.5567 13.5515Z" fill="url(#paint9_linear_49_4767)"/>
<path d="M9.15778 7.7145C9.45154 7.16529 9.77085 6.62885 10.0902 6.10518C10.154 6.0541 10.2307 6.0541 10.3073 6.0541C13.3982 6.0541 16.4891 6.0541 19.58 6.0541C19.6694 6.0541 19.7716 6.02855 19.8227 6.13073C19.5289 6.67994 19.2096 7.21638 18.8903 7.75282C18.8137 7.79113 18.7243 7.80391 18.6349 7.80391C15.5567 7.80391 12.4658 7.80391 9.38768 7.80391C9.31104 7.80391 9.19609 7.855 9.15778 7.7145Z" fill="url(#paint10_linear_49_4767)"/>
<path d="M10.9076 4.68745C11.2269 4.09993 11.559 3.53794 11.9932 3.03982C12.0571 3.01428 12.1082 3.01428 12.1721 3.01428C15.1991 3.01428 18.2389 3.01428 21.266 3.01428C21.3298 3.01428 21.3937 3.01428 21.4448 3.02705C21.5086 3.03982 21.5725 3.05259 21.5725 3.12923C21.2532 3.66567 20.9339 4.21488 20.6273 4.75132C20.5635 4.76409 20.4996 4.76409 20.4358 4.76409C17.3576 4.76409 14.2923 4.76409 11.2141 4.76409C11.0992 4.77686 10.9842 4.8024 10.9076 4.68745Z" fill="url(#paint11_linear_49_4767)"/>
<path d="M21.5853 3.12923C21.547 3.03982 21.4576 3.06536 21.3809 3.06536C18.3283 3.06536 15.263 3.06536 12.2104 3.06536C12.1337 3.06536 12.0699 3.07814 12.006 3.03982C12.5297 2.38843 13.1427 1.82645 13.858 1.37941C13.9857 1.3411 14.1262 1.36664 14.2539 1.36664C17.1405 1.36664 20.0143 1.36664 22.9008 1.36664C22.9775 1.36664 23.0413 1.36664 23.118 1.36664C23.169 1.37941 23.2329 1.36664 23.2457 1.44328C22.5943 1.91585 22.0706 2.51615 21.5853 3.12923Z" fill="url(#paint12_linear_49_4767)"/>
<path d="M27.2051 15.9144C27.269 15.876 27.3456 15.876 27.4222 15.876C30.6026 15.876 33.7701 15.876 36.9504 15.876C37.2186 16.3358 37.4869 16.7956 37.7423 17.2554C37.6146 17.2938 37.4869 17.281 37.3591 17.281C34.3065 17.281 31.2667 17.281 28.2141 17.281C28.1375 17.281 28.0609 17.281 27.9842 17.281C27.7415 16.834 27.4733 16.3742 27.2051 15.9144Z" fill="url(#paint13_linear_49_4767)"/>
<path d="M3.21863 17.9962C3.47408 17.5237 3.75507 17.0511 4.03606 16.5785C4.07438 16.5657 4.12547 16.5657 4.17656 16.5657C7.28024 16.5785 10.3711 16.5657 13.4748 16.5657C13.577 16.5657 13.692 16.5147 13.7558 16.6424C13.5642 17.0511 13.3088 17.4215 13.0917 17.8174C13.0406 17.9068 12.9895 17.9962 12.9384 18.0729C12.8234 18.0857 12.7085 18.0857 12.5808 18.0857C9.56649 18.0857 6.55222 18.0857 3.53794 18.0857C3.43576 18.0729 3.30804 18.1112 3.21863 17.9962Z" fill="url(#paint14_linear_49_4767)"/>
<path d="M16.4891 11.9166C16.438 11.8783 16.3742 11.8911 16.3103 11.8911C13.2066 11.8911 10.1029 11.8911 6.99925 11.8911C6.92261 11.8911 6.83321 11.9038 6.75657 11.8527C7.02479 11.3802 7.29301 10.9204 7.574 10.4478C7.63787 10.4222 7.68896 10.4222 7.75282 10.4222C10.8437 10.4222 13.9219 10.4222 17.0128 10.4222C17.0766 10.4222 17.1405 10.4222 17.1916 10.435C17.2427 10.4478 17.2938 10.4478 17.2938 10.5244C17.0511 10.9459 16.8212 11.3674 16.5785 11.7889C16.553 11.84 16.5402 11.8911 16.4891 11.9166Z" fill="url(#paint15_linear_49_4767)"/>
<path d="M13.7686 16.6424C13.7047 16.5913 13.6409 16.6168 13.577 16.6168C10.4733 16.6168 7.36965 16.6168 4.26597 16.6168C4.18933 16.6168 4.1127 16.6296 4.04884 16.5785C4.31705 16.1187 4.5725 15.6589 4.84072 15.1991C4.9429 15.1991 5.05785 15.1991 5.16003 15.1991C8.19985 15.1991 11.2397 15.1991 14.2923 15.1991C14.3944 15.1991 14.4838 15.1991 14.5733 15.2502C14.2923 15.7228 14.0624 16.1953 13.7686 16.6424Z" fill="url(#paint16_linear_49_4767)"/>
<path d="M10.9076 4.68745C10.9842 4.73854 11.0609 4.72577 11.1503 4.72577C14.2539 4.72577 17.3449 4.72577 20.4485 4.72577C20.5124 4.72577 20.5763 4.70023 20.6401 4.75132C20.3591 5.19835 20.1292 5.6837 19.8482 6.13073C19.7844 6.09241 19.695 6.10518 19.6183 6.10518C16.4508 6.10518 13.2705 6.10518 10.1029 6.10518C10.3584 5.63261 10.6266 5.16003 10.9076 4.68745Z" fill="url(#paint17_linear_49_4767)"/>
<path d="M9.15778 7.7145C9.20887 7.79114 9.2855 7.75282 9.34936 7.75282C12.453 7.75282 15.5567 7.75282 18.6604 7.75282C18.737 7.75282 18.8137 7.75282 18.8903 7.75282C18.6476 8.17431 18.4177 8.58302 18.1751 9.00451C18.1495 9.04283 18.124 9.09391 18.0984 9.13223C18.0218 9.17055 17.9324 9.18332 17.843 9.18332C14.7776 9.18332 11.6995 9.18332 8.63411 9.18332C8.53193 9.18332 8.42975 9.20887 8.35312 9.09391C8.62134 8.63411 8.87678 8.16153 9.15778 7.7145Z" fill="url(#paint18_linear_49_4767)"/>
<path d="M8.35312 9.09391C8.42975 9.145 8.50639 9.13223 8.59579 9.13223C11.6867 9.13223 14.7904 9.13223 17.8813 9.13223C17.9579 9.13223 18.0218 9.13223 18.0984 9.13223C17.843 9.60481 17.5748 10.0646 17.2938 10.5244C17.2427 10.4478 17.166 10.4861 17.0894 10.4861C13.9857 10.4861 10.882 10.4861 7.77836 10.4861C7.70173 10.4861 7.63787 10.4989 7.574 10.4606C7.82945 10.0008 8.0849 9.54095 8.35312 9.09391Z" fill="url(#paint19_linear_49_4767)"/>
<path d="M3.21863 17.9962C3.30804 18.0218 3.38467 18.0218 3.47408 18.0218C6.56499 18.0218 9.6559 18.0218 12.734 18.0218C12.7979 18.0218 12.8745 17.9962 12.9384 18.0601C12.6702 18.4944 12.453 18.9669 12.1721 19.4012C12.0443 19.3884 11.9294 19.3884 11.8017 19.3884C8.77461 19.3884 5.76033 19.3884 2.73328 19.3884C2.6311 19.3884 2.52893 19.414 2.43952 19.3373C2.69497 18.8775 2.95041 18.4305 3.21863 17.9962Z" fill="url(#paint20_linear_49_4767)"/>
<path d="M23.2329 1.44328C23.1818 1.39219 23.1052 1.41773 23.0413 1.41773C20.0654 1.41773 17.1022 1.41773 14.1262 1.41773C14.024 1.41773 13.9346 1.41773 13.8452 1.37941C14.5477 0.894065 15.314 0.574756 16.1315 0.344854C16.8467 0.140496 17.562 0.0510894 18.3028 0.0255447C18.3666 0.0255447 18.4305 0.0255447 18.5071 0.0255447C21.0233 0.0255447 23.5522 0.0255447 26.0684 0.0255447C26.1322 0.0255447 26.1961 0 26.2472 0.0510894C25.3531 0.255447 24.5229 0.613073 23.7438 1.11119C23.565 1.22615 23.4117 1.35387 23.2329 1.44328Z" fill="url(#paint21_linear_49_4767)"/>
<path d="M2.45229 19.3373C4.21488 19.3373 5.99023 19.3373 7.75282 19.3373C9.17055 19.3373 10.5883 19.3373 12.006 19.3373C12.0571 19.3373 12.1465 19.299 12.1721 19.4012C11.9421 19.8355 11.6995 20.257 11.444 20.6657C11.444 20.6146 11.4185 20.589 11.3674 20.589C11.3163 20.589 11.278 20.589 11.2269 20.589C8.14876 20.589 5.05785 20.589 1.97971 20.589C1.90308 20.589 1.81367 20.6018 1.73704 20.5507C1.96694 20.1548 2.19684 19.7461 2.45229 19.3373Z" fill="url(#paint22_linear_49_4767)"/>
<path d="M35.8392 13.9474C35.7498 13.973 35.6604 13.9857 35.571 13.9857C32.4801 13.9857 29.3892 13.9857 26.2983 13.9857C26.2344 13.9857 26.1578 13.9602 26.1067 14.024C26.0045 13.8452 25.9023 13.6792 25.7874 13.5004C25.7491 13.4365 25.7746 13.4237 25.8385 13.4237C25.8768 13.4237 25.9151 13.4237 25.9406 13.4237C29.0826 13.4237 32.2119 13.4237 35.3539 13.4237C35.4816 13.4237 35.5582 13.4493 35.6221 13.577C35.6859 13.692 35.7626 13.8197 35.8392 13.9474Z" fill="url(#paint23_linear_49_4767)"/>
<path d="M0.153268 27.1029C0.153268 27.0646 0.178813 27.0391 0.229902 27.0391C0.280992 27.0391 0.319309 27.0391 0.370398 27.0391C14.1262 27.0391 27.8693 27.0391 41.6251 27.0391C41.7017 27.0391 41.8039 27.0008 41.855 27.1029C41.5357 27.6521 41.2291 28.2141 40.9098 28.7633C39.1345 31.8287 37.3719 34.8941 35.5965 37.9594C35.5838 37.985 35.571 38.0105 35.5582 38.0233C35.4944 38.0233 35.4305 38.0233 35.3794 38.0233C32.2374 38.0233 29.1082 38.0233 25.9662 38.0233C25.9023 38.0233 25.8385 38.0488 25.7746 37.9977C26.9624 35.9414 28.1503 33.8978 29.3381 31.8415C29.6702 31.2667 30.0023 30.692 30.3343 30.1172C30.3599 30.0661 30.3982 30.0278 30.411 29.9639C30.3471 29.9384 30.2832 29.9512 30.2194 29.9512C20.6146 29.9512 11.0098 29.9512 1.41773 29.9512C1.26446 29.9512 1.18783 29.9129 1.11119 29.7724C0.676935 28.9677 0.370398 28.1247 0.191585 27.2179C0.153268 27.1923 0.153268 27.1413 0.153268 27.1029Z" fill="url(#paint24_linear_49_4767)"/>
<path fill-rule="evenodd" clip-rule="evenodd" d="M38.381 42.9662H28.4313H18.4817L13.8198 34.8813H4.03613L11.1503 47.1938C12.6958 49.8888 15.378 51.4215 18.4817 51.4215H38.381C41.4847 51.4215 44.1541 49.876 45.7123 47.1938L51.0001 38.0361H41.2292L38.381 42.9662Z" fill="#00234B"/>
<path fill-rule="evenodd" clip-rule="evenodd" d="M28.4312 8.49364H38.3808L41.2163 13.411H50.9872L45.6994 4.25322C44.1412 1.55826 41.4718 0.0255737 38.3681 0.0255737H26.311C24.3696 0.459834 22.6581 1.59657 21.5086 3.21866L18.4688 8.48087H28.4312V8.49364Z" fill="#00234B"/>
</g>
<path d="M64.2578 9.24048H65.8281V13.9827H71.7969V9.24048H73.3672V20.717H71.7969V15.3499H65.8281V20.717H64.2578V9.24048ZM80.5744 8.92798C82.6004 8.92798 84.1004 9.57902 85.0744 10.8811C85.8348 11.8967 86.215 13.1962 86.215 14.7795C86.215 16.4931 85.7801 17.9176 84.9103 19.053C83.8895 20.3863 82.4338 21.053 80.5431 21.053C78.7775 21.053 77.3895 20.4696 76.3791 19.303C75.478 18.178 75.0275 16.7561 75.0275 15.0374C75.0275 13.4853 75.4129 12.1571 76.1838 11.053C77.1733 9.63631 78.6369 8.92798 80.5744 8.92798ZM80.7306 19.6624C82.1004 19.6624 83.09 19.1728 83.6994 18.1936C84.314 17.2092 84.6213 16.079 84.6213 14.803C84.6213 13.454 84.2671 12.3681 83.5588 11.5452C82.8556 10.7222 81.8921 10.3108 80.6681 10.3108C79.4806 10.3108 78.5119 10.7196 77.7619 11.5374C77.0119 12.3499 76.6369 13.5504 76.6369 15.1389C76.6369 16.4097 76.9572 17.4827 77.5978 18.3577C78.2436 19.2275 79.2879 19.6624 80.7306 19.6624ZM81.7853 6.30298L83.3791 8.56079H82.0978L81.0431 7.06079L79.9884 8.56079H78.715L80.3009 6.30298H81.7853ZM81.4806 4.46704C81.6265 4.52954 81.7593 4.57902 81.8791 4.61548C81.9989 4.65194 82.1213 4.67017 82.2463 4.67017C82.5379 4.67017 82.7463 4.57902 82.8713 4.39673C82.939 4.29777 82.9858 4.14933 83.0119 3.95142H83.8322C83.7228 4.61287 83.5119 5.0686 83.1994 5.3186C82.8921 5.5686 82.5535 5.6936 82.1838 5.6936C82.0692 5.6936 81.9233 5.67277 81.7463 5.6311C81.5692 5.58944 81.4129 5.54256 81.2775 5.49048L80.8634 5.34204C80.6186 5.2535 80.4181 5.1884 80.2619 5.14673C80.1108 5.09985 79.9624 5.07642 79.8166 5.07642C79.6343 5.07642 79.4832 5.13631 79.3634 5.2561C79.2489 5.3759 79.1707 5.55819 79.1291 5.80298H78.3634C78.4311 5.39152 78.5431 5.05558 78.6994 4.79517C78.9963 4.316 79.4364 4.07642 80.0197 4.07642C80.1968 4.07642 80.3921 4.10246 80.6056 4.15454C80.8244 4.20662 81.116 4.31079 81.4806 4.46704ZM100.278 9.24048V10.6077H96.4106V20.717H94.8325V10.6077H90.9653V9.24048H100.278ZM106.883 14.4983C107.613 14.4983 108.188 14.3525 108.61 14.0608C109.037 13.7691 109.251 13.2431 109.251 12.4827C109.251 11.665 108.954 11.1077 108.36 10.8108C108.042 10.6545 107.618 10.5764 107.087 10.5764H103.29V14.4983H106.883ZM101.735 9.24048H107.048C107.923 9.24048 108.644 9.36808 109.212 9.62329C110.29 10.1129 110.829 11.0165 110.829 12.3342C110.829 13.0217 110.686 13.5842 110.399 14.0217C110.118 14.4592 109.722 14.8108 109.212 15.0764C109.659 15.2587 109.995 15.4983 110.219 15.7952C110.449 16.092 110.576 16.5738 110.602 17.2405L110.657 18.7795C110.673 19.217 110.709 19.5426 110.766 19.7561C110.86 20.1207 111.027 20.3551 111.266 20.4592V20.717H109.36C109.308 20.6181 109.266 20.4905 109.235 20.3342C109.204 20.178 109.178 19.8759 109.157 19.428L109.063 17.5139C109.027 16.7639 108.748 16.2613 108.227 16.0061C107.93 15.8655 107.464 15.7952 106.829 15.7952H103.29V20.717H101.735V9.24048ZM123.544 14.7795C123.544 16.4931 123.109 17.9176 122.239 19.053C121.218 20.3863 119.763 21.053 117.872 21.053C116.106 21.053 114.718 20.4696 113.708 19.303C112.807 18.178 112.356 16.7561 112.356 15.0374C112.356 13.4853 112.742 12.1571 113.513 11.053C114.502 9.63631 115.966 8.92798 117.903 8.92798C119.799 8.92798 121.234 9.5009 122.208 10.6467C122.359 10.6832 122.536 10.6806 122.739 10.6389C122.989 10.6233 123.216 10.5738 123.419 10.4905L123.505 10.4514C123.531 10.4358 123.557 10.415 123.583 10.3889L123.263 9.60767L124.833 8.95142L125.473 10.4983L124.013 11.0999C123.58 11.2821 123.161 11.3889 122.755 11.4202C123.281 12.342 123.544 13.4618 123.544 14.7795ZM121.95 14.803C121.95 13.454 121.596 12.3681 120.888 11.5452C120.184 10.7222 119.221 10.3108 117.997 10.3108C116.809 10.3108 115.841 10.7196 115.091 11.5374C114.341 12.3499 113.966 13.5504 113.966 15.1389C113.966 16.4097 114.286 17.4827 114.927 18.3577C115.572 19.2275 116.617 19.6624 118.059 19.6624C119.429 19.6624 120.419 19.1728 121.028 18.1936C121.643 17.2092 121.95 16.079 121.95 14.803ZM117.223 21.7249H118.684V23.3499H117.223V21.7249ZM66.0547 41.717H63.2578L66.9609 35.8499L63.4375 30.2014H66.3125L68.3672 33.9436L70.4766 30.2014H73.2578L69.7344 35.7561L73.4766 41.717H70.5547L68.3672 37.7952L66.0547 41.717ZM74.7306 30.2014H77.1759V37.2795C77.1759 38.0712 77.2697 38.6493 77.4572 39.0139C77.7489 39.6597 78.3843 39.9827 79.3634 39.9827C80.3374 39.9827 80.9702 39.6597 81.2619 39.0139C81.4494 38.6493 81.5431 38.0712 81.5431 37.2795V30.2014H83.9884V37.2795C83.9884 38.5035 83.7983 39.4566 83.4181 40.1389C82.7098 41.3889 81.3582 42.0139 79.3634 42.0139C77.3686 42.0139 76.0145 41.3889 75.3009 40.1389C74.9207 39.4566 74.7306 38.5035 74.7306 37.2795V30.2014ZM89.2816 37.3655H92.2034L90.7659 32.8342L89.2816 37.3655ZM89.43 30.2014H92.1488L96.2269 41.717H93.6175L92.8753 39.3499H88.6331L87.8363 41.717H85.3206L89.43 30.2014ZM93.6722 29.2405H91.8597L90.8441 27.928L89.8206 29.2405H88.0081L89.8441 26.9045H91.8441L93.6722 29.2405ZM96.1722 25.4514L93.7972 27.7874H92.1878L93.6878 25.4514H96.1722ZM105.997 30.2014V32.2405H102.551V41.717H100.129V32.2405H96.6684V30.2014H105.997ZM111.505 30.2014H114.028L118.614 38.2405V30.2014H120.856V41.717H118.45L113.747 33.5374V41.717H111.505V30.2014ZM122.931 41.717V30.2014H125.313V34.592H129.813V30.2014H132.204V41.717H129.813V36.5764H125.313V41.717H122.931ZM137.497 37.3655H140.419L138.982 32.8342L137.497 37.3655ZM137.646 30.2014H140.364L144.442 41.717H141.833L141.091 39.3499H136.849L136.052 41.717H133.536L137.646 30.2014ZM141.841 29.2952H140.028L139.013 27.9827L137.989 29.2952H136.177L138.013 26.9592H140.013L141.841 29.2952ZM137.521 42.4202H139.552V44.2717H137.521V42.4202ZM152.236 33.8655C152.236 33.2665 152.077 32.8394 151.759 32.5842C151.447 32.329 151.006 32.2014 150.439 32.2014H148.197V35.592H150.439C151.006 35.592 151.447 35.454 151.759 35.178C152.077 34.9019 152.236 34.4644 152.236 33.8655ZM154.618 33.8499C154.618 35.2092 154.275 36.1702 153.587 36.7327C152.9 37.2952 151.918 37.5764 150.642 37.5764H148.197V41.717H145.806V30.2014H150.822C151.978 30.2014 152.9 30.4983 153.587 31.092C154.275 31.6858 154.618 32.6051 154.618 33.8499ZM160.314 30.2014H162.681V34.9436L167.127 30.2014H170.236L165.517 34.9436L170.478 41.717H167.384L163.83 36.6858L162.681 37.8655V41.717H160.314V30.2014ZM171.662 41.717V30.2014H174.045V34.592H178.545V30.2014H180.935V41.717H178.545V36.5764H174.045V41.717H171.662ZM186.228 37.3655H189.15L187.713 32.8342L186.228 37.3655ZM186.377 30.2014H189.096L193.174 41.717H190.564L189.822 39.3499H185.58L184.783 41.717H182.268L186.377 30.2014ZM190.557 29.717H188.744L187.728 28.4045L186.705 29.717H184.893L186.728 27.3811H188.728L190.557 29.717ZM190.385 26.428C190.327 26.3811 190.27 26.3472 190.213 26.3264C190.156 26.3004 190.044 26.2847 189.877 26.2795L189.463 26.2717L189.432 25.6545C189.546 25.6389 189.671 25.6259 189.807 25.6155C189.947 25.6051 190.07 25.5999 190.174 25.5999C190.439 25.5999 190.697 25.6441 190.947 25.7327C191.197 25.816 191.408 25.9801 191.58 26.2249C191.627 26.2926 191.666 26.3811 191.697 26.4905C191.734 26.5999 191.752 26.717 191.752 26.842C191.752 26.9462 191.736 27.053 191.705 27.1624C191.674 27.2717 191.619 27.3759 191.541 27.4749C191.463 27.5686 191.356 27.6519 191.221 27.7249C191.09 27.7978 190.926 27.8551 190.728 27.8967L190.619 28.2405H189.541L189.596 27.6467C190.028 27.6155 190.304 27.5269 190.424 27.3811C190.549 27.2353 190.611 27.0764 190.611 26.9045C190.611 26.816 190.593 26.7327 190.557 26.6545C190.52 26.5712 190.463 26.4957 190.385 26.428ZM194.482 30.2014H196.928V37.2795C196.928 38.0712 197.022 38.6493 197.209 39.0139C197.501 39.6597 198.136 39.9827 199.115 39.9827C200.089 39.9827 200.722 39.6597 201.014 39.0139C201.201 38.6493 201.295 38.0712 201.295 37.2795V30.2014H203.74V37.2795C203.74 38.5035 203.55 39.4566 203.17 40.1389C202.462 41.3889 201.11 42.0139 199.115 42.0139C197.121 42.0139 195.766 41.3889 195.053 40.1389C194.673 39.4566 194.482 38.5035 194.482 37.2795V30.2014Z" fill="#00234B"/>
<defs>
<linearGradient id="paint0_linear_49_4767" x1="21.3298" y1="0" x2="21.3298" y2="38.0744" gradientUnits="userSpaceOnUse">
<stop stop-color="#6046FF"/>
<stop offset="1" stop-color="#3C2D98"/>
</linearGradient>
<linearGradient id="paint1_linear_49_4767" x1="21.3298" y1="0" x2="21.3298" y2="38.0744" gradientUnits="userSpaceOnUse">
<stop stop-color="#6046FF"/>
<stop offset="1" stop-color="#3C2D98"/>
</linearGradient>
<linearGradient id="paint2_linear_49_4767" x1="21.3298" y1="0" x2="21.3298" y2="38.0744" gradientUnits="userSpaceOnUse">
<stop stop-color="#6046FF"/>
<stop offset="1" stop-color="#3C2D98"/>
</linearGradient>
<linearGradient id="paint3_linear_49_4767" x1="21.3298" y1="0" x2="21.3298" y2="38.0744" gradientUnits="userSpaceOnUse">
<stop stop-color="#6046FF"/>
<stop offset="1" stop-color="#3C2D98"/>
</linearGradient>
<linearGradient id="paint4_linear_49_4767" x1="21.3298" y1="0" x2="21.3298" y2="38.0744" gradientUnits="userSpaceOnUse">
<stop stop-color="#6046FF"/>
<stop offset="1" stop-color="#3C2D98"/>
</linearGradient>
<linearGradient id="paint5_linear_49_4767" x1="21.3298" y1="0" x2="21.3298" y2="38.0744" gradientUnits="userSpaceOnUse">
<stop stop-color="#6046FF"/>
<stop offset="1" stop-color="#3C2D98"/>
</linearGradient>
<linearGradient id="paint6_linear_49_4767" x1="21.3298" y1="0" x2="21.3298" y2="38.0744" gradientUnits="userSpaceOnUse">
<stop stop-color="#6046FF"/>
<stop offset="1" stop-color="#3C2D98"/>
</linearGradient>
<linearGradient id="paint7_linear_49_4767" x1="21.3298" y1="0" x2="21.3298" y2="38.0744" gradientUnits="userSpaceOnUse">
<stop stop-color="#6046FF"/>
<stop offset="1" stop-color="#3C2D98"/>
</linearGradient>
<linearGradient id="paint8_linear_49_4767" x1="21.3298" y1="0" x2="21.3298" y2="38.0744" gradientUnits="userSpaceOnUse">
<stop stop-color="#6046FF"/>
<stop offset="1" stop-color="#3C2D98"/>
</linearGradient>
<linearGradient id="paint9_linear_49_4767" x1="21.3298" y1="0" x2="21.3298" y2="38.0744" gradientUnits="userSpaceOnUse">
<stop stop-color="#6046FF"/>
<stop offset="1" stop-color="#3C2D98"/>
</linearGradient>
<linearGradient id="paint10_linear_49_4767" x1="21.3298" y1="0" x2="21.3298" y2="38.0744" gradientUnits="userSpaceOnUse">
<stop stop-color="#6046FF"/>
<stop offset="1" stop-color="#3C2D98"/>
</linearGradient>
<linearGradient id="paint11_linear_49_4767" x1="21.3298" y1="0" x2="21.3298" y2="38.0744" gradientUnits="userSpaceOnUse">
<stop stop-color="#6046FF"/>
<stop offset="1" stop-color="#3C2D98"/>
</linearGradient>
<linearGradient id="paint12_linear_49_4767" x1="21.3298" y1="0" x2="21.3298" y2="38.0744" gradientUnits="userSpaceOnUse">
<stop stop-color="#6046FF"/>
<stop offset="1" stop-color="#3C2D98"/>
</linearGradient>
<linearGradient id="paint13_linear_49_4767" x1="21.3298" y1="0" x2="21.3298" y2="38.0744" gradientUnits="userSpaceOnUse">
<stop stop-color="#6046FF"/>
<stop offset="1" stop-color="#3C2D98"/>
</linearGradient>
<linearGradient id="paint14_linear_49_4767" x1="21.3298" y1="0" x2="21.3298" y2="38.0744" gradientUnits="userSpaceOnUse">
<stop stop-color="#6046FF"/>
<stop offset="1" stop-color="#3C2D98"/>
</linearGradient>
<linearGradient id="paint15_linear_49_4767" x1="21.3298" y1="0" x2="21.3298" y2="38.0744" gradientUnits="userSpaceOnUse">
<stop stop-color="#6046FF"/>
<stop offset="1" stop-color="#3C2D98"/>
</linearGradient>
<linearGradient id="paint16_linear_49_4767" x1="21.3298" y1="0" x2="21.3298" y2="38.0744" gradientUnits="userSpaceOnUse">
<stop stop-color="#6046FF"/>
<stop offset="1" stop-color="#3C2D98"/>
</linearGradient>
<linearGradient id="paint17_linear_49_4767" x1="21.3298" y1="0" x2="21.3298" y2="38.0744" gradientUnits="userSpaceOnUse">
<stop stop-color="#6046FF"/>
<stop offset="1" stop-color="#3C2D98"/>
</linearGradient>
<linearGradient id="paint18_linear_49_4767" x1="21.3298" y1="0" x2="21.3298" y2="38.0744" gradientUnits="userSpaceOnUse">
<stop stop-color="#6046FF"/>
<stop offset="1" stop-color="#3C2D98"/>
</linearGradient>
<linearGradient id="paint19_linear_49_4767" x1="21.3298" y1="0" x2="21.3298" y2="38.0744" gradientUnits="userSpaceOnUse">
<stop stop-color="#6046FF"/>
<stop offset="1" stop-color="#3C2D98"/>
</linearGradient>
<linearGradient id="paint20_linear_49_4767" x1="21.3298" y1="0" x2="21.3298" y2="38.0744" gradientUnits="userSpaceOnUse">
<stop stop-color="#6046FF"/>
<stop offset="1" stop-color="#3C2D98"/>
</linearGradient>
<linearGradient id="paint21_linear_49_4767" x1="21.3298" y1="0" x2="21.3298" y2="38.0744" gradientUnits="userSpaceOnUse">
<stop stop-color="#6046FF"/>
<stop offset="1" stop-color="#3C2D98"/>
</linearGradient>
<linearGradient id="paint22_linear_49_4767" x1="21.3298" y1="0" x2="21.3298" y2="38.0744" gradientUnits="userSpaceOnUse">
<stop stop-color="#6046FF"/>
<stop offset="1" stop-color="#3C2D98"/>
</linearGradient>
<linearGradient id="paint23_linear_49_4767" x1="21.3298" y1="0" x2="21.3298" y2="38.0744" gradientUnits="userSpaceOnUse">
<stop stop-color="#6046FF"/>
<stop offset="1" stop-color="#3C2D98"/>
</linearGradient>
<linearGradient id="paint24_linear_49_4767" x1="21.3298" y1="0" x2="21.3298" y2="38.0744" gradientUnits="userSpaceOnUse">
<stop stop-color="#6046FF"/>
<stop offset="1" stop-color="#3C2D98"/>
</linearGradient>
<clipPath id="clip0_49_4767">
<rect width="51" height="51.4343" fill="white"/>
</clipPath>
</defs>
</svg>
