<svg width="183" height="52" viewBox="0 0 183 52" fill="none" xmlns="http://www.w3.org/2000/svg">
<g clip-path="url(#clip0_111_1577)">
<path d="M36.0582 38.2861C36.0582 38.2988 36.0582 38.3116 36.0582 38.3244C32.7885 38.3244 29.5188 38.3244 26.2491 38.3244C26.2491 38.2988 26.2491 38.2733 26.2746 38.2605C26.3512 38.2477 26.4151 38.2477 26.4917 38.2477C29.5826 38.2477 32.6863 38.2477 35.7772 38.2477C35.8666 38.235 35.9688 38.2222 36.0582 38.2861Z" fill="white" fill-opacity="0.85"/>
<path d="M18.8028 0.275545C18.8028 0.262772 18.8028 0.262772 18.8028 0.25C21.4722 0.25 24.1416 0.25 26.7983 0.25C26.7983 0.288317 26.7727 0.313862 26.7344 0.313862C26.5939 0.288317 26.4534 0.339406 26.3129 0.339406C23.8862 0.339406 21.4722 0.339406 19.0455 0.339406C18.956 0.326634 18.8666 0.352179 18.8028 0.275545Z" fill="white" fill-opacity="0.85"/>
<path d="M0.5 25.7819C0.512772 25.7819 0.512772 25.7819 0.525545 25.7819C0.602179 25.9097 0.602179 26.0502 0.525545 26.1779H0.5C0.5 26.0502 0.5 25.9224 0.5 25.7819Z" fill="white" fill-opacity="0.85"/>
<path d="M0.602179 24.9262C0.71713 23.9938 0.998122 23.0997 1.43238 22.2568C1.48347 22.2184 1.54733 22.2057 1.61119 22.2057C1.66228 22.2057 1.72615 22.2057 1.77724 22.2057C14.7412 22.2057 27.6923 22.2057 40.6563 22.2057C40.7712 22.2057 40.8989 22.1801 41.0011 22.2568C41.3332 22.8315 41.6781 23.419 42.0101 23.9938C42.1762 24.2748 42.3295 24.5558 42.4827 24.824C42.4444 24.8751 42.3805 24.8751 42.3295 24.8751C42.2528 24.8751 42.1634 24.8751 42.0868 24.8751C28.3948 24.8751 14.7029 24.8751 1.02367 24.8751C0.870398 24.8879 0.729902 24.8879 0.602179 24.9262Z" fill="white" fill-opacity="0.85"/>
<path d="M0.602179 24.9262C0.627724 24.8623 0.678813 24.824 0.755447 24.8368C0.793764 24.8368 0.832081 24.8368 0.883171 24.8368C14.6645 24.8368 28.4459 24.8368 42.2273 24.8368C42.3167 24.8368 42.4061 24.8368 42.4827 24.8368C42.6871 25.1816 42.8787 25.5137 43.083 25.8586C43.1086 25.9097 43.1341 25.9607 43.1597 26.0118C42.917 26.4206 42.6871 26.8293 42.4444 27.2252C42.4189 27.2763 42.3805 27.3146 42.355 27.3657C42.1762 27.3402 42.0101 27.3402 41.8313 27.3402C28.2671 27.3402 14.6901 27.3402 1.12585 27.3402C0.972577 27.3402 0.819309 27.3402 0.666041 27.3529C0.576634 26.9698 0.563862 26.5738 0.538317 26.1906C0.538317 26.0629 0.538317 25.9224 0.538317 25.7947C0.538317 25.5009 0.551089 25.2072 0.602179 24.9262Z" fill="white" fill-opacity="0.85"/>
<path d="M40.9884 22.2568C27.7945 22.2568 14.6134 22.2568 1.41961 22.2568C1.66228 21.7586 1.95605 21.2861 2.23704 20.8135C2.35199 20.7752 2.46694 20.8007 2.58189 20.8007C5.5834 20.8007 8.5849 20.8007 11.5864 20.8007C11.663 20.8007 11.7524 20.7879 11.8291 20.8135C11.8929 20.8263 11.9568 20.839 11.9313 20.9284C11.7908 21.1711 11.6503 21.4138 11.5098 21.6565C11.4587 21.7331 11.4842 21.7586 11.5609 21.7459C11.5864 21.7459 11.6247 21.7459 11.6503 21.7459C17.9981 21.7459 24.346 21.7459 30.6938 21.7459C30.7577 21.7459 30.8088 21.7459 30.8982 21.7459C30.7577 21.5032 30.63 21.2861 30.5023 21.0562C30.2724 20.6602 30.0424 20.2771 29.8125 19.8811C29.7998 19.8683 29.8125 19.8556 29.7998 19.83C29.8381 19.7662 29.9147 19.7662 29.9786 19.7534C30.0424 19.7406 30.1063 19.7534 30.1829 19.7534C33.21 19.7534 36.237 19.7534 39.2641 19.7534C39.3663 19.7534 39.4684 19.7406 39.5578 19.8045C39.9538 20.4814 40.3497 21.1583 40.7457 21.848C40.8479 21.9885 40.9117 22.1163 40.9884 22.2568Z" fill="white" fill-opacity="0.85"/>
<path d="M39.5834 19.8045C36.4286 19.8045 33.2739 19.8045 30.1191 19.8045C30.0169 19.8045 29.9275 19.83 29.8381 19.8428C29.4805 19.2297 29.1228 18.6166 28.7652 18.0163C28.6758 17.8631 28.5864 17.7098 28.5098 17.5565C28.5864 17.4799 28.6758 17.5054 28.7652 17.5054C29.8381 17.5054 30.9237 17.5054 31.9966 17.5054C33.9636 17.5054 35.9305 17.5054 37.8974 17.5054C38.0124 17.5054 38.1401 17.4671 38.2551 17.5182C38.6893 18.2718 39.1364 19.0381 39.5834 19.8045Z" fill="white" fill-opacity="0.85"/>
<path d="M36.3392 14.1974C36.6585 14.7466 36.9778 15.2958 37.3099 15.845C37.361 15.9344 37.4121 16.0366 37.4632 16.126C37.3866 16.2027 37.2844 16.1771 37.1822 16.1771C35.4835 16.1771 33.7847 16.1771 32.086 16.1771C30.6683 16.1771 29.2633 16.1771 27.8456 16.1771C27.7945 16.1771 27.7562 16.1771 27.7051 16.1644C27.4241 15.679 27.1431 15.1937 26.8621 14.7083C26.7727 14.555 26.6705 14.4273 26.6195 14.2613C26.6195 14.1719 26.6961 14.1846 26.7472 14.1846C26.8238 14.1719 26.8877 14.1846 26.9643 14.1846C29.9658 14.1846 32.9673 14.1846 35.9688 14.1846C36.0838 14.1846 36.2115 14.1463 36.3392 14.1974Z" fill="white" fill-opacity="0.85"/>
<path d="M5.32795 15.4491C5.64726 14.8871 5.97934 14.3251 6.29865 13.7632C6.33696 13.7376 6.37528 13.7376 6.4136 13.7376C9.54282 13.7504 12.6593 13.7376 15.7885 13.7504C15.8779 13.7504 15.9801 13.7248 16.044 13.8015C15.7374 14.3251 15.4437 14.8616 15.1371 15.3852C15.1116 15.4236 15.0988 15.4746 15.0477 15.513C14.8944 15.5257 14.7539 15.5002 14.6007 15.5002C11.5992 15.5002 8.61044 15.5002 5.60894 15.5002C5.53231 15.5002 5.41736 15.5257 5.32795 15.4491Z" fill="white" fill-opacity="0.85"/>
<path d="M16.0567 13.8015C15.814 13.8015 15.5714 13.8015 15.3159 13.8015C12.4421 13.8015 9.5556 13.8015 6.68182 13.8015C6.55409 13.8015 6.42637 13.8015 6.29865 13.7759C6.61796 13.2267 6.93727 12.6647 7.25657 12.1155C7.37153 12.0772 7.48648 12.1027 7.60143 12.1027C10.6285 12.1027 13.6555 12.1027 16.6826 12.1027C16.7847 12.1027 16.8997 12.0517 16.9763 12.1794C16.7847 12.5753 16.5421 12.9585 16.3249 13.3417C16.2483 13.4949 16.1461 13.6482 16.0567 13.8015Z" fill="white" fill-opacity="0.85"/>
<path d="M9.65778 7.9645C9.95154 7.41529 10.2708 6.87885 10.5902 6.35518C10.654 6.3041 10.7307 6.3041 10.8073 6.3041C13.8982 6.3041 16.9891 6.3041 20.08 6.3041C20.1694 6.3041 20.2716 6.27855 20.3227 6.38073C20.0289 6.92994 19.7096 7.46638 19.3903 8.00282C19.3137 8.04113 19.2243 8.05391 19.1349 8.05391C16.0567 8.05391 12.9658 8.05391 9.88768 8.05391C9.81104 8.05391 9.69609 8.105 9.65778 7.9645Z" fill="white" fill-opacity="0.85"/>
<path d="M11.4076 4.93745C11.7269 4.34993 12.059 3.78794 12.4932 3.28982C12.5571 3.26428 12.6082 3.26428 12.6721 3.26428C15.6991 3.26428 18.7389 3.26428 21.766 3.26428C21.8298 3.26428 21.8937 3.26428 21.9448 3.27705C22.0086 3.28982 22.0725 3.30259 22.0725 3.37923C21.7532 3.91567 21.4339 4.46488 21.1273 5.00132C21.0635 5.01409 20.9996 5.01409 20.9358 5.01409C17.8576 5.01409 14.7923 5.01409 11.7141 5.01409C11.5992 5.02686 11.4842 5.0524 11.4076 4.93745Z" fill="white" fill-opacity="0.85"/>
<path d="M22.0853 3.37923C22.047 3.28982 21.9576 3.31536 21.8809 3.31536C18.8283 3.31536 15.763 3.31536 12.7104 3.31536C12.6337 3.31536 12.5699 3.32814 12.506 3.28982C13.0297 2.63843 13.6427 2.07645 14.358 1.62941C14.4857 1.5911 14.6262 1.61664 14.7539 1.61664C17.6405 1.61664 20.5143 1.61664 23.4008 1.61664C23.4775 1.61664 23.5413 1.61664 23.618 1.61664C23.669 1.62941 23.7329 1.61664 23.7457 1.69328C23.0943 2.16585 22.5706 2.76615 22.0853 3.37923Z" fill="white" fill-opacity="0.85"/>
<path d="M27.7051 16.1644C27.769 16.126 27.8456 16.126 27.9222 16.126C31.1026 16.126 34.2701 16.126 37.4504 16.126C37.7186 16.5858 37.9869 17.0456 38.2423 17.5054C38.1146 17.5438 37.9869 17.531 37.8591 17.531C34.8065 17.531 31.7667 17.531 28.7141 17.531C28.6375 17.531 28.5609 17.531 28.4842 17.531C28.2415 17.084 27.9733 16.6242 27.7051 16.1644Z" fill="white" fill-opacity="0.85"/>
<path d="M3.71863 18.2462C3.97408 17.7737 4.25507 17.3011 4.53606 16.8285C4.57438 16.8157 4.62547 16.8157 4.67656 16.8157C7.78024 16.8285 10.8711 16.8157 13.9748 16.8157C14.077 16.8157 14.192 16.7647 14.2558 16.8924C14.0642 17.3011 13.8088 17.6715 13.5917 18.0674C13.5406 18.1568 13.4895 18.2462 13.4384 18.3229C13.3234 18.3357 13.2085 18.3357 13.0808 18.3357C10.0665 18.3357 7.05222 18.3357 4.03794 18.3357C3.93576 18.3229 3.80804 18.3612 3.71863 18.2462Z" fill="white" fill-opacity="0.85"/>
<path d="M16.9891 12.1666C16.938 12.1283 16.8742 12.1411 16.8103 12.1411C13.7066 12.1411 10.6029 12.1411 7.49925 12.1411C7.42261 12.1411 7.33321 12.1538 7.25657 12.1027C7.52479 11.6302 7.79301 11.1704 8.074 10.6978C8.13787 10.6722 8.18896 10.6722 8.25282 10.6722C11.3437 10.6722 14.4219 10.6722 17.5128 10.6722C17.5766 10.6722 17.6405 10.6722 17.6916 10.685C17.7427 10.6978 17.7938 10.6978 17.7938 10.7744C17.5511 11.1959 17.3212 11.6174 17.0785 12.0389C17.053 12.09 17.0402 12.1411 16.9891 12.1666Z" fill="white" fill-opacity="0.85"/>
<path d="M14.2686 16.8924C14.2047 16.8413 14.1409 16.8668 14.077 16.8668C10.9733 16.8668 7.86965 16.8668 4.76597 16.8668C4.68933 16.8668 4.6127 16.8796 4.54884 16.8285C4.81705 16.3687 5.0725 15.9089 5.34072 15.4491C5.4429 15.4491 5.55785 15.4491 5.66003 15.4491C8.69985 15.4491 11.7397 15.4491 14.7923 15.4491C14.8944 15.4491 14.9838 15.4491 15.0733 15.5002C14.7923 15.9728 14.5624 16.4453 14.2686 16.8924Z" fill="white" fill-opacity="0.85"/>
<path d="M11.4076 4.93745C11.4842 4.98854 11.5609 4.97577 11.6503 4.97577C14.7539 4.97577 17.8449 4.97577 20.9485 4.97577C21.0124 4.97577 21.0763 4.95023 21.1401 5.00132C20.8591 5.44835 20.6292 5.9337 20.3482 6.38073C20.2844 6.34241 20.195 6.35518 20.1183 6.35518C16.9508 6.35518 13.7705 6.35518 10.6029 6.35518C10.8584 5.88261 11.1266 5.41003 11.4076 4.93745Z" fill="white" fill-opacity="0.85"/>
<path d="M9.65778 7.9645C9.70887 8.04114 9.7855 8.00282 9.84936 8.00282C12.953 8.00282 16.0567 8.00282 19.1604 8.00282C19.237 8.00282 19.3137 8.00282 19.3903 8.00282C19.1476 8.42431 18.9177 8.83302 18.6751 9.25451C18.6495 9.29283 18.624 9.34391 18.5984 9.38223C18.5218 9.42055 18.4324 9.43332 18.343 9.43332C15.2776 9.43332 12.1995 9.43332 9.13411 9.43332C9.03193 9.43332 8.92975 9.45887 8.85312 9.34391C9.12134 8.88411 9.37678 8.41153 9.65778 7.9645Z" fill="white" fill-opacity="0.85"/>
<path d="M8.85312 9.34391C8.92975 9.395 9.00639 9.38223 9.09579 9.38223C12.1867 9.38223 15.2904 9.38223 18.3813 9.38223C18.4579 9.38223 18.5218 9.38223 18.5984 9.38223C18.343 9.85481 18.0748 10.3146 17.7938 10.7744C17.7427 10.6978 17.666 10.7361 17.5894 10.7361C14.4857 10.7361 11.382 10.7361 8.27836 10.7361C8.20173 10.7361 8.13787 10.7489 8.074 10.7106C8.32945 10.2508 8.5849 9.79095 8.85312 9.34391Z" fill="white" fill-opacity="0.85"/>
<path d="M3.71863 18.2462C3.80804 18.2718 3.88467 18.2718 3.97408 18.2718C7.06499 18.2718 10.1559 18.2718 13.234 18.2718C13.2979 18.2718 13.3745 18.2462 13.4384 18.3101C13.1702 18.7444 12.953 19.2169 12.6721 19.6512C12.5443 19.6384 12.4294 19.6384 12.3017 19.6384C9.27461 19.6384 6.26033 19.6384 3.23328 19.6384C3.1311 19.6384 3.02893 19.664 2.93952 19.5873C3.19497 19.1275 3.45041 18.6805 3.71863 18.2462Z" fill="white" fill-opacity="0.85"/>
<path d="M23.7329 1.69328C23.6818 1.64219 23.6052 1.66773 23.5413 1.66773C20.5654 1.66773 17.6022 1.66773 14.6262 1.66773C14.524 1.66773 14.4346 1.66773 14.3452 1.62941C15.0477 1.14406 15.814 0.824756 16.6315 0.594854C17.3467 0.390496 18.062 0.301089 18.8028 0.275545C18.8666 0.275545 18.9305 0.275545 19.0071 0.275545C21.5233 0.275545 24.0522 0.275545 26.5684 0.275545C26.6322 0.275545 26.6961 0.25 26.7472 0.301089C25.8531 0.505447 25.0229 0.863073 24.2438 1.36119C24.065 1.47615 23.9117 1.60387 23.7329 1.69328Z" fill="white" fill-opacity="0.85"/>
<path d="M2.95229 19.5873C4.71488 19.5873 6.49023 19.5873 8.25282 19.5873C9.67055 19.5873 11.0883 19.5873 12.506 19.5873C12.5571 19.5873 12.6465 19.549 12.6721 19.6512C12.4421 20.0855 12.1995 20.507 11.944 20.9157C11.944 20.8646 11.9185 20.839 11.8674 20.839C11.8163 20.839 11.778 20.839 11.7269 20.839C8.64876 20.839 5.55785 20.839 2.47971 20.839C2.40308 20.839 2.31367 20.8518 2.23704 20.8007C2.46694 20.4048 2.69684 19.9961 2.95229 19.5873Z" fill="white" fill-opacity="0.85"/>
<path d="M36.3392 14.1974C36.2498 14.223 36.1604 14.2357 36.071 14.2357C32.9801 14.2357 29.8892 14.2357 26.7983 14.2357C26.7344 14.2357 26.6578 14.2102 26.6067 14.274C26.5045 14.0952 26.4023 13.9292 26.2874 13.7504C26.2491 13.6865 26.2746 13.6737 26.3385 13.6737C26.3768 13.6737 26.4151 13.6737 26.4406 13.6737C29.5826 13.6737 32.7119 13.6737 35.8539 13.6737C35.9816 13.6737 36.0582 13.6993 36.1221 13.827C36.1859 13.942 36.2626 14.0697 36.3392 14.1974Z" fill="white" fill-opacity="0.85"/>
<path d="M0.653268 27.3529C0.653268 27.3146 0.678813 27.2891 0.729902 27.2891C0.780992 27.2891 0.819309 27.2891 0.870398 27.2891C14.6262 27.2891 28.3693 27.2891 42.1251 27.2891C42.2017 27.2891 42.3039 27.2508 42.355 27.3529C42.0357 27.9021 41.7291 28.4641 41.4098 29.0133C39.6345 32.0787 37.8719 35.1441 36.0965 38.2094C36.0838 38.235 36.071 38.2605 36.0582 38.2733C35.9944 38.2733 35.9305 38.2733 35.8794 38.2733C32.7374 38.2733 29.6082 38.2733 26.4662 38.2733C26.4023 38.2733 26.3385 38.2988 26.2746 38.2477C27.4624 36.1914 28.6503 34.1478 29.8381 32.0915C30.1702 31.5167 30.5023 30.942 30.8343 30.3672C30.8599 30.3161 30.8982 30.2778 30.911 30.2139C30.8471 30.1884 30.7832 30.2012 30.7194 30.2012C21.1146 30.2012 11.5098 30.2012 1.91773 30.2012C1.76446 30.2012 1.68783 30.1629 1.61119 30.0224C1.17693 29.2177 0.870398 28.3747 0.691585 27.4679C0.653268 27.4423 0.653268 27.3913 0.653268 27.3529Z" fill="white" fill-opacity="0.85"/>
<path fill-rule="evenodd" clip-rule="evenodd" d="M38.881 43.2162H28.9313H18.9817L14.3198 35.1313H4.53613L11.6503 47.4439C13.1958 50.1389 15.878 51.6715 18.9817 51.6715H38.881C41.9847 51.6715 44.6541 50.1261 46.2123 47.4439L51.5001 38.2861H41.7292L38.881 43.2162Z" fill="white" fill-opacity="0.65"/>
<path fill-rule="evenodd" clip-rule="evenodd" d="M28.9312 8.74346H38.8808L41.7163 13.6608H51.4872L46.1994 4.50304C44.6412 1.80807 41.9718 0.275391 38.8681 0.275391H26.811C24.8696 0.709651 23.1581 1.84639 22.0086 3.46848L18.9688 8.73069H28.9312V8.74346Z" fill="white" fill-opacity="0.65"/>
</g>
<line opacity="0.3" x1="64" y1="10.9673" x2="64" y2="40.9673" stroke="white" stroke-opacity="0.85"/>
<path d="M76.4434 13.3599H77.6211V16.9165H82.0977V13.3599H83.2754V21.9673H82.0977V17.9419H77.6211V21.9673H76.4434V13.3599ZM88.6808 13.1255C90.2003 13.1255 91.3253 13.6138 92.0558 14.5903C92.6261 15.3521 92.9113 16.3267 92.9113 17.5142C92.9113 18.7993 92.5851 19.8677 91.9327 20.7192C91.1671 21.7192 90.0753 22.2192 88.6573 22.2192C87.3331 22.2192 86.2921 21.7817 85.5343 20.9067C84.8585 20.063 84.5206 18.9966 84.5206 17.7075C84.5206 16.5435 84.8097 15.5474 85.3878 14.7192C86.13 13.6567 87.2277 13.1255 88.6808 13.1255ZM88.798 21.1763C89.8253 21.1763 90.5675 20.8091 91.0245 20.0747C91.4855 19.3364 91.7159 18.4888 91.7159 17.5317C91.7159 16.52 91.4503 15.7056 90.9191 15.0884C90.3917 14.4712 89.6691 14.1626 88.7511 14.1626C87.8605 14.1626 87.1339 14.4692 86.5714 15.0825C86.0089 15.6919 85.7277 16.5923 85.7277 17.7837C85.7277 18.7368 85.9679 19.5415 86.4484 20.1978C86.9327 20.8501 87.7159 21.1763 88.798 21.1763ZM89.589 11.1567L90.7843 12.8501H89.8234L89.0323 11.7251L88.2413 12.8501H87.2863L88.4757 11.1567H89.589ZM89.3605 9.77979C89.4698 9.82666 89.5695 9.86377 89.6593 9.89111C89.7491 9.91846 89.8409 9.93213 89.9347 9.93213C90.1534 9.93213 90.3097 9.86377 90.4034 9.72705C90.4542 9.65283 90.4894 9.5415 90.5089 9.39307H91.1241C91.0421 9.88916 90.8839 10.231 90.6495 10.4185C90.4191 10.606 90.1652 10.6997 89.8878 10.6997C89.8019 10.6997 89.6925 10.6841 89.5597 10.6528C89.4269 10.6216 89.3097 10.5864 89.2081 10.5474L88.8976 10.436C88.714 10.3696 88.5636 10.3208 88.4464 10.2896C88.3331 10.2544 88.2218 10.2368 88.1124 10.2368C87.9757 10.2368 87.8624 10.2817 87.7726 10.3716C87.6866 10.4614 87.628 10.5981 87.5968 10.7817H87.0226C87.0734 10.4731 87.1573 10.2212 87.2745 10.0259C87.4972 9.6665 87.8273 9.48682 88.2648 9.48682C88.3976 9.48682 88.5441 9.50635 88.7042 9.54541C88.8683 9.58447 89.087 9.6626 89.3605 9.77979ZM103.458 13.3599V14.3853H100.558V21.9673H99.3744V14.3853H96.474V13.3599H103.458ZM108.413 17.3032C108.959 17.3032 109.391 17.1938 109.708 16.9751C110.028 16.7563 110.188 16.3618 110.188 15.7915C110.188 15.1782 109.965 14.7603 109.52 14.5376C109.282 14.4204 108.963 14.3618 108.565 14.3618H105.717V17.3032H108.413ZM104.551 13.3599H108.536C109.192 13.3599 109.733 13.4556 110.159 13.647C110.967 14.0142 111.372 14.6919 111.372 15.6802C111.372 16.1958 111.264 16.6177 111.049 16.9458C110.838 17.2739 110.541 17.5376 110.159 17.7368C110.495 17.8735 110.747 18.0532 110.915 18.2759C111.086 18.4985 111.182 18.8599 111.202 19.3599L111.243 20.5142C111.254 20.8423 111.282 21.0864 111.325 21.2466C111.395 21.52 111.52 21.6958 111.7 21.7739V21.9673H110.27C110.231 21.8931 110.2 21.7974 110.176 21.6802C110.153 21.563 110.133 21.3364 110.118 21.0005L110.047 19.5649C110.02 19.0024 109.811 18.6255 109.42 18.4341C109.198 18.3286 108.848 18.2759 108.372 18.2759H105.717V21.9673H104.551V13.3599ZM120.908 17.5142C120.908 18.7993 120.582 19.8677 119.929 20.7192C119.164 21.7192 118.072 22.2192 116.654 22.2192C115.33 22.2192 114.289 21.7817 113.531 20.9067C112.855 20.063 112.517 18.9966 112.517 17.7075C112.517 16.5435 112.806 15.5474 113.384 14.7192C114.127 13.6567 115.224 13.1255 116.677 13.1255C118.099 13.1255 119.175 13.5552 119.906 14.4146C120.019 14.4419 120.152 14.4399 120.304 14.4087C120.492 14.397 120.662 14.3599 120.814 14.2974L120.879 14.2681C120.898 14.2563 120.918 14.2407 120.937 14.2212L120.697 13.6353L121.875 13.1431L122.355 14.3032L121.259 14.7544C120.935 14.8911 120.621 14.9712 120.316 14.9946C120.711 15.686 120.908 16.5259 120.908 17.5142ZM119.713 17.5317C119.713 16.52 119.447 15.7056 118.916 15.0884C118.388 14.4712 117.666 14.1626 116.748 14.1626C115.857 14.1626 115.13 14.4692 114.568 15.0825C114.005 15.6919 113.724 16.5923 113.724 17.7837C113.724 18.7368 113.964 19.5415 114.445 20.1978C114.929 20.8501 115.713 21.1763 116.795 21.1763C117.822 21.1763 118.564 20.8091 119.021 20.0747C119.482 19.3364 119.713 18.4888 119.713 17.5317ZM116.168 22.7231H117.263V23.9419H116.168V22.7231ZM77.791 37.9673H75.6934L78.4707 33.5669L75.8281 29.3306H77.9844L79.5254 32.1372L81.1074 29.3306H83.1934L80.5508 33.4966L83.3574 37.9673H81.166L79.5254 35.0259L77.791 37.9673ZM84.298 29.3306H86.132V34.6392C86.132 35.2329 86.2023 35.6665 86.3429 35.9399C86.5616 36.4243 87.0382 36.6665 87.7726 36.6665C88.503 36.6665 88.9777 36.4243 89.1964 35.9399C89.337 35.6665 89.4073 35.2329 89.4073 34.6392V29.3306H91.2413V34.6392C91.2413 35.5571 91.0988 36.272 90.8136 36.7837C90.2823 37.7212 89.2687 38.1899 87.7726 38.1899C86.2765 38.1899 85.2609 37.7212 84.7257 36.7837C84.4405 36.272 84.298 35.5571 84.298 34.6392V29.3306ZM95.2112 34.7036H97.4026L96.3245 31.3052L95.2112 34.7036ZM95.3225 29.3306H97.3616L100.42 37.9673H98.4631L97.9065 36.1919H94.7248L94.1272 37.9673H92.2405L95.3225 29.3306ZM98.5041 28.6099H97.1448L96.383 27.6255L95.6155 28.6099H94.2561L95.633 26.8579H97.133L98.5041 28.6099ZM100.379 25.7681L98.5979 27.52H97.3909L98.5159 25.7681H100.379ZM107.747 29.3306V30.8599H105.163V37.9673H103.347V30.8599H100.751V29.3306H107.747ZM111.879 29.3306H113.771L117.211 35.3599V29.3306H118.892V37.9673H117.088L113.56 31.8325V37.9673H111.879V29.3306ZM120.448 37.9673V29.3306H122.235V32.6235H125.61V29.3306H127.403V37.9673H125.61V34.1118H122.235V37.9673H120.448ZM131.373 34.7036H133.564L132.486 31.3052L131.373 34.7036ZM131.484 29.3306H133.523L136.582 37.9673H134.625L134.068 36.1919H130.887L130.289 37.9673H128.402L131.484 29.3306ZM134.631 28.6509H133.271L132.51 27.6665L131.742 28.6509H130.383L131.76 26.8989H133.26L134.631 28.6509ZM131.39 38.4946H132.914V39.8833H131.39V38.4946ZM142.427 32.0786C142.427 31.6294 142.308 31.3091 142.069 31.1177C141.835 30.9263 141.505 30.8306 141.079 30.8306H139.397V33.3735H141.079C141.505 33.3735 141.835 33.27 142.069 33.063C142.308 32.856 142.427 32.5278 142.427 32.0786ZM144.214 32.0669C144.214 33.0864 143.956 33.8071 143.44 34.229C142.925 34.6509 142.188 34.8618 141.231 34.8618H139.397V37.9673H137.604V29.3306H141.366C142.233 29.3306 142.925 29.5532 143.44 29.9985C143.956 30.4438 144.214 31.1333 144.214 32.0669ZM148.486 29.3306H150.261V32.8872L153.595 29.3306H155.927L152.388 32.8872L156.109 37.9673H153.788L151.122 34.1938L150.261 35.0786V37.9673H148.486V29.3306ZM156.996 37.9673V29.3306H158.784V32.6235H162.159V29.3306H163.951V37.9673H162.159V34.1118H158.784V37.9673H156.996ZM167.921 34.7036H170.113L169.035 31.3052L167.921 34.7036ZM168.033 29.3306H170.072L173.13 37.9673H171.173L170.617 36.1919H167.435L166.837 37.9673H164.951L168.033 29.3306ZM171.167 28.9673H169.808L169.046 27.9829L168.279 28.9673H166.919L168.296 27.2153H169.796L171.167 28.9673ZM171.039 26.5005C170.996 26.4653 170.953 26.4399 170.91 26.4243C170.867 26.4048 170.783 26.3931 170.658 26.3892L170.347 26.3833L170.324 25.9204C170.41 25.9087 170.503 25.8989 170.605 25.8911C170.71 25.8833 170.802 25.8794 170.88 25.8794C171.08 25.8794 171.273 25.9126 171.46 25.979C171.648 26.0415 171.806 26.1646 171.935 26.3481C171.97 26.3989 171.999 26.4653 172.023 26.5474C172.05 26.6294 172.064 26.7173 172.064 26.811C172.064 26.8892 172.052 26.9692 172.029 27.0513C172.005 27.1333 171.964 27.2114 171.906 27.2856C171.847 27.356 171.767 27.4185 171.665 27.4731C171.568 27.5278 171.445 27.5708 171.296 27.6021L171.214 27.8599H170.406L170.447 27.4146C170.771 27.3911 170.978 27.3247 171.068 27.2153C171.162 27.106 171.208 26.9868 171.208 26.8579C171.208 26.7915 171.195 26.729 171.167 26.6704C171.14 26.6079 171.097 26.5513 171.039 26.5005ZM174.112 29.3306H175.946V34.6392C175.946 35.2329 176.016 35.6665 176.157 35.9399C176.376 36.4243 176.852 36.6665 177.586 36.6665C178.317 36.6665 178.792 36.4243 179.01 35.9399C179.151 35.6665 179.221 35.2329 179.221 34.6392V29.3306H181.055V34.6392C181.055 35.5571 180.913 36.272 180.628 36.7837C180.096 37.7212 179.083 38.1899 177.586 38.1899C176.09 38.1899 175.075 37.7212 174.54 36.7837C174.254 36.272 174.112 35.5571 174.112 34.6392V29.3306Z" fill="white" fill-opacity="0.85"/>
<defs>
<clipPath id="clip0_111_1577">
<rect width="51" height="51.4343" fill="white" transform="translate(0.5 0.25)"/>
</clipPath>
</defs>
</svg>
