<?xml version="1.0" standalone="no"?>
<!DOCTYPE svg PUBLIC "-//W3C//DTD SVG 1.1//EN" "http://www.w3.org/Graphics/SVG/1.1/DTD/svg11.dtd" >
<svg xmlns="http://www.w3.org/2000/svg" xmlns:xlink="http://www.w3.org/1999/xlink" version="1.1">
<metadata>
Created by FontForge 20170731 at Wed Nov  1 12:01:42 2023
 By Aleksey,,,
Copyright (c) 2019 by Christoph York. All rights reserved. Modification of this file requires prior written permission from Brink Type.
</metadata>
<defs>
<font id="BROmegaVN-Bold" horiz-adv-x="0" >
  <font-face 
    font-family="BR Omega VN"
    font-weight="700"
    font-stretch="normal"
    units-per-em="2048"
    panose-1="0 0 0 0 0 0 0 0 0 0"
    ascent="1556"
    descent="-492"
    x-height="991"
    cap-height="1434"
    bbox="-1032 -565 2658 2341.53"
    underline-thickness="102"
    underline-position="-450"
    unicode-range="U+000D-2B51"
  />
<missing-glyph horiz-adv-x="1495" 
d="M158 0v1434h1179v-1434h-1179zM647 543h156v57q0 41 10.5 61t46.5 50l60 49q66 55 93 104.5t27 106.5q0 106 -76 171.5t-198 65.5q-107 0 -190.5 -52t-124.5 -138l118 -80q72 127 195 127q54 0 85.5 -25t31.5 -75q0 -55 -62 -105l-65 -53q-66 -54 -86.5 -93t-20.5 -108
v-63zM725 215q46 0 75 30t29 77t-29 76.5t-75 29.5t-75 -29.5t-29 -76.5t29 -77t75 -30z" />
    <glyph glyph-name=".notdef" horiz-adv-x="1495" 
d="M158 0v1434h1179v-1434h-1179zM647 543h156v57q0 41 10.5 61t46.5 50l60 49q66 55 93 104.5t27 106.5q0 106 -76 171.5t-198 65.5q-107 0 -190.5 -52t-124.5 -138l118 -80q72 127 195 127q54 0 85.5 -25t31.5 -75q0 -55 -62 -105l-65 -53q-66 -54 -86.5 -93t-20.5 -108
v-63zM725 215q46 0 75 30t29 77t-29 76.5t-75 29.5t-75 -29.5t-29 -76.5t29 -77t75 -30z" />
    <glyph glyph-name=".null" 
 />
    <glyph glyph-name="uni000D" unicode="&#xd;" horiz-adv-x="464" 
 />
    <glyph glyph-name="space" unicode=" " horiz-adv-x="464" 
 />
    <glyph glyph-name="exclam" unicode="!" horiz-adv-x="616" 
d="M184 500l-26 934h301l-27 -934h-248zM307 -18q-83 0 -136.5 53.5t-53.5 138.5t53.5 139t136.5 54q85 0 139 -54t54 -139t-54 -138.5t-139 -53.5z" />
    <glyph glyph-name="quotedbl" unicode="&#x22;" horiz-adv-x="880" 
d="M125 879l-43 579h301l-41 -579h-217zM541 879l-43 579h301l-43 -579h-215z" />
    <glyph glyph-name="numbersign" unicode="#" horiz-adv-x="1480" 
d="M1384 838h-239l-49 -242h202v-215h-243l-70 -350h-244l70 350h-272l-70 -350h-244l70 350h-199v215h240l49 242h-203v215h244l70 350h243l-69 -350h272l70 350h243l-69 -350h198v-215zM852 596l49 242h-272l-49 -242h272z" />
    <glyph glyph-name="dollar" unicode="$" horiz-adv-x="1118" 
d="M1047 471q0 -177 -118.5 -292.5t-314.5 -127.5v-137h-120v139q-170 20 -284.5 119.5t-139.5 251.5l260 63q46 -149 164 -184v318l-54 12q-176 36 -265 126.5t-89 227.5q0 163 115 272.5t305 122.5v138h119v-140q164 -17 271 -108t136 -240l-260 -65q-27 137 -147 168
v-297l71 -15q181 -39 266 -126.5t85 -225.5zM358 997q0 -49 32.5 -80t115.5 -53v279q-71 -9 -109.5 -47t-38.5 -99zM614 293q75 7 117.5 49t42.5 107q0 56 -37 89.5t-123 55.5v-301z" />
    <glyph glyph-name="percent" unicode="%" horiz-adv-x="1863" 
d="M444 702q-164 0 -273.5 108t-109.5 271q0 161 109.5 269t273.5 108t273.5 -108t109.5 -269q0 -163 -109.5 -271t-273.5 -108zM344 0l905 1434h269l-904 -1434h-270zM444 909q71 0 115.5 48t44.5 124q0 75 -44 122.5t-116 47.5t-115.5 -47.5t-43.5 -122.5q0 -76 44 -124
t115 -48zM1419 -25q-164 0 -273.5 108t-109.5 269q0 163 109.5 271t273.5 108t273.5 -108t109.5 -271q0 -161 -109.5 -269t-273.5 -108zM1419 182q71 0 115.5 47.5t44.5 122.5q0 76 -44.5 124t-115.5 48q-72 0 -115.5 -47.5t-43.5 -124.5q0 -75 43.5 -122.5t115.5 -47.5z
" />
    <glyph glyph-name="ampersand" unicode="&#x26;" horiz-adv-x="1382" 
d="M1364 0h-303l-98 113q-169 -138 -406 -138q-223 0 -357 112.5t-134 287.5q0 238 286 407q-157 180 -157 334q0 145 114 243.5t297 98.5q177 0 287.5 -92.5t110.5 -239.5q0 -227 -265 -378l-20 -13l221 -250q37 83 53 226h262q-29 -259 -135 -432zM604 1229
q-62 0 -101.5 -35t-39.5 -88q0 -80 92 -182l20 -25l31 19q142 81 142 182q0 58 -41 93.5t-103 35.5zM356 393q0 -78 57 -124t160 -46q119 0 213 64l-282 321q-148 -83 -148 -215z" />
    <glyph glyph-name="quotesingle" unicode="'" horiz-adv-x="466" 
d="M125 879l-43 579h301l-41 -579h-217z" />
    <glyph glyph-name="parenleft" unicode="(" horiz-adv-x="716" 
d="M449 -254q-162 179 -250 418t-88 481t88 481t250 418l219 -135q-118 -146 -189 -353t-71 -411t71 -411t189 -353z" />
    <glyph glyph-name="parenright" unicode=")" horiz-adv-x="716" 
d="M266 -254l-217 135q117 146 187.5 353t70.5 411t-70.5 411t-187.5 353l217 135q162 -179 250 -418t88 -481t-88 -481t-250 -418z" />
    <glyph glyph-name="asterisk" unicode="*" horiz-adv-x="997" 
d="M330 612l-176 123l190 240l-293 82l68 205l284 -109l-12 305h213l-12 -305l287 107l65 -205l-293 -80l189 -240l-174 -125l-168 256z" />
    <glyph glyph-name="plus" unicode="+" horiz-adv-x="1331" 
d="M1130 780v-262h-325v-352h-279v352h-325v262h325v353h279v-353h325z" />
    <glyph glyph-name="comma" unicode="," horiz-adv-x="571" 
d="M281 360q90 0 145.5 -64.5t54.5 -180.5q-2 -127 -69.5 -253.5t-188.5 -221.5l-92 104q128 125 156 254h-11q-83 0 -134.5 50t-51.5 128q0 80 54 132t137 52z" />
    <glyph glyph-name="hyphen" unicode="-" horiz-adv-x="808" 
d="M80 444v254h649v-254h-649z" />
    <glyph glyph-name="period" unicode="." horiz-adv-x="563" 
d="M283 -18q-85 0 -139 53.5t-54 138.5t54 139t139 54q83 0 136.5 -54t53.5 -139t-53.5 -138.5t-136.5 -53.5z" />
    <glyph glyph-name="slash" unicode="/" horiz-adv-x="1079" 
d="M18 -188l758 1708h287l-758 -1708h-287z" />
    <glyph glyph-name="zero" unicode="0" horiz-adv-x="1300" 
d="M649 -25q-251 0 -388.5 143t-137.5 398v402q0 255 137.5 397.5t388.5 142.5q252 0 390.5 -142.5t138.5 -397.5v-402q0 -255 -138.5 -398t-390.5 -143zM649 248q112 0 171 66.5t59 201.5v402q0 135 -59 201.5t-171 66.5q-229 0 -229 -268v-402q0 -268 229 -268z" />
    <glyph glyph-name="one" unicode="1" horiz-adv-x="901" 
d="M479 1434h240v-1434h-299v991h-303v262h73q140 0 203 40t86 141z" />
    <glyph glyph-name="two" unicode="2" horiz-adv-x="1171" 
d="M707 518q-126 -76 -190.5 -132t-92.5 -114h655v-272h-981v145q0 89 17.5 156.5t63 134.5t122.5 130.5t199 138.5q166 104 225 173t59 142q0 77 -46.5 121.5t-125.5 44.5q-90 0 -151 -62t-82 -192l-293 51q32 230 170.5 352.5t351.5 122.5q216 0 345.5 -118.5
t129.5 -317.5q0 -144 -84 -260.5t-292 -243.5z" />
    <glyph glyph-name="three" unicode="3" horiz-adv-x="1202" 
d="M606 -25q-222 0 -359.5 120t-154.5 331l291 37q13 -105 72 -160t151 -55q93 0 149 51t56 135q0 83 -56 128.5t-161 45.5h-141v246h137q95 0 142.5 44t47.5 120q0 79 -47.5 123.5t-132.5 44.5q-175 0 -211 -207l-293 39q26 205 164 322.5t348 117.5t339.5 -112.5
t129.5 -296.5q0 -216 -188 -312v-6q106 -46 163.5 -131.5t57.5 -200.5q0 -187 -140 -305.5t-364 -118.5z" />
    <glyph glyph-name="four" unicode="4" horiz-adv-x="1253" 
d="M1204 510v-254h-168v-256h-280v256h-680v236l602 942h358v-924h168zM379 510h377v592z" />
    <glyph glyph-name="five" unicode="5" horiz-adv-x="1200" 
d="M680 946q197 0 322.5 -130.5t125.5 -344.5q0 -222 -143.5 -359t-374.5 -137q-209 0 -348 111.5t-164 300.5l291 53q15 -90 76.5 -141t148.5 -51q99 0 157 64t58 171q0 105 -57 165.5t-154 60.5q-64 0 -118.5 -27.5t-87.5 -79.5h-287l98 832h809v-273h-555l-35 -278
q100 63 238 63z" />
    <glyph glyph-name="six" unicode="6" horiz-adv-x="1222" 
d="M662 995q207 0 348 -139.5t141 -353.5q0 -147 -71 -268t-195 -190t-273 -69q-147 0 -269 67.5t-193.5 187.5t-71.5 268q0 101 38.5 202.5t133.5 239.5l330 494h352l-297 -439h27zM614 248q102 0 170 70.5t68 179.5q0 108 -68 177.5t-170 69.5t-169.5 -69.5t-67.5 -177.5
q0 -109 67.5 -179.5t169.5 -70.5z" />
    <glyph glyph-name="seven" unicode="7" horiz-adv-x="1077" 
d="M70 1434h944v-267l-496 -1167h-348l512 1161h-612v273z" />
    <glyph glyph-name="eight" unicode="8" horiz-adv-x="1222" 
d="M610 -25q-238 0 -377 115.5t-139 302.5q0 116 57 206.5t162 139.5v9q-196 103 -196 311q0 174 136 286.5t357 112.5q223 0 359.5 -112.5t136.5 -286.5q0 -207 -197 -311v-9q105 -49 162 -139.5t57 -206.5q0 -187 -139 -302.5t-379 -115.5zM610 850q92 0 146.5 49.5
t54.5 128.5q0 81 -54 130.5t-147 49.5q-91 0 -144.5 -49.5t-53.5 -130.5q0 -79 53.5 -128.5t144.5 -49.5zM610 225q97 0 159 53t62 140q0 85 -62.5 140.5t-158.5 55.5q-95 0 -157 -55.5t-62 -140.5q0 -87 62 -140t157 -53z" />
    <glyph glyph-name="nine" unicode="9" horiz-adv-x="1222" 
d="M610 1458q147 0 269.5 -67t194 -187t71.5 -268q0 -101 -38.5 -202.5t-133.5 -239.5l-330 -494h-352l297 438h-27q-206 0 -347.5 140t-141.5 354q0 147 71 268t194.5 189.5t272.5 68.5zM608 688q102 0 170 70t68 178q0 109 -68 179.5t-170 70.5t-169.5 -70.5t-67.5 -179.5
q0 -108 67.5 -178t169.5 -70z" />
    <glyph glyph-name="colon" unicode=":" horiz-adv-x="583" 
d="M303 623q-85 0 -138.5 53.5t-53.5 136.5q0 86 53.5 140.5t138.5 54.5q84 0 137.5 -54.5t53.5 -140.5q0 -83 -54 -136.5t-137 -53.5zM303 -20q-85 0 -138.5 53.5t-53.5 136.5q0 85 53.5 138.5t138.5 53.5q83 0 137 -54t54 -138q0 -83 -54 -136.5t-137 -53.5z" />
    <glyph glyph-name="semicolon" unicode=";" horiz-adv-x="593" 
d="M303 623q-85 0 -138.5 53.5t-53.5 136.5q0 86 53.5 140.5t138.5 54.5q84 0 137.5 -54.5t53.5 -140.5q0 -83 -54 -136.5t-137 -53.5zM303 358q90 0 145.5 -64.5t55.5 -180.5q-2 -127 -70 -253t-190 -222l-92 104q129 123 157 254h-10q-83 0 -134.5 50t-51.5 128
q0 79 53 131.5t137 52.5z" />
    <glyph glyph-name="less" unicode="&#x3c;" horiz-adv-x="1331" 
d="M1130 1128v-280l-548 -199l548 -198v-281l-929 350v258z" />
    <glyph glyph-name="equal" unicode="=" horiz-adv-x="1331" 
d="M201 737v262h929v-262h-929zM201 299v262h929v-262h-929z" />
    <glyph glyph-name="greater" unicode="&#x3e;" horiz-adv-x="1331" 
d="M201 1128l929 -350v-258l-929 -350v281l549 198l-549 199v280z" />
    <glyph glyph-name="question" unicode="?" horiz-adv-x="1001" 
d="M324 500v80q0 102 31 158.5t139 146.5l92 78q76 63 76 120q0 52 -35 82.5t-97 30.5q-162 0 -231 -205l-252 101q41 170 169 268t312 98q186 0 303 -98.5t117 -259.5q0 -86 -40.5 -158.5t-139.5 -153.5l-84 -71q-49 -41 -61.5 -67t-12.5 -85v-65h-286zM467 -18
q-83 0 -137 54t-54 138q0 85 54 139t137 54t136.5 -54t53.5 -139t-53.5 -138.5t-136.5 -53.5z" />
    <glyph glyph-name="at" unicode="@" horiz-adv-x="1976" 
d="M1022 -426q-271 0 -484 112.5t-331.5 315t-118.5 461.5q0 197 72.5 368.5t197.5 290t295.5 186.5t362.5 68q181 0 343.5 -60.5t282 -166t189.5 -258.5t70 -330q0 -234 -114.5 -382t-289.5 -148q-99 0 -177 48.5t-108 133.5h-6q-33 -87 -104.5 -131.5t-169.5 -44.5
q-161 0 -265 118t-104 310q0 193 104.5 311.5t264.5 118.5q81 0 142.5 -32.5t94.5 -96.5h7l16 100h201v-483q0 -70 27.5 -106.5t76.5 -36.5q70 0 116 76.5t46 220.5q0 186 -84.5 325t-229 210t-327.5 71q-199 0 -354.5 -86t-241.5 -240t-86 -350q0 -298 190 -480t500 -182
q109 0 209 23t168 63l102 -202q-90 -54 -215.5 -84.5t-267.5 -30.5zM991 254q78 0 130.5 49.5t52.5 120.5v84q0 71 -52.5 120.5t-130.5 49.5q-80 0 -131 -56.5t-51 -156.5q0 -99 51 -155t131 -56z" />
    <glyph glyph-name="A" unicode="A" horiz-adv-x="1376" 
d="M1042 0l-77 238h-555l-78 -238h-316l498 1434h348l498 -1434h-318zM496 494h385l-189 571h-8z" />
    <glyph glyph-name="B" unicode="B" horiz-adv-x="1300" 
d="M979 700q242 -74 242 -321q0 -174 -122 -276.5t-345 -102.5h-596v1434h510q240 0 369.5 -109.5t129.5 -302.5q0 -229 -188 -315v-7zM877 991q0 189 -215 189h-207v-373h207q110 0 162.5 45t52.5 139zM721 254q95 0 141.5 40t46.5 114q0 149 -188 149h-266v-303h266z" />
    <glyph glyph-name="C" unicode="C" horiz-adv-x="1538" 
d="M803 -25q-207 0 -371.5 94.5t-257 264t-92.5 383.5q0 128 34.5 243t99 205.5t152.5 156.5t199.5 101t235.5 35q263 0 449 -147t223 -389l-314 -52q-25 145 -120.5 225.5t-237.5 80.5q-178 0 -293 -125t-115 -334t115 -334t295 -125q144 0 242 80t122 225l304 -51
q-37 -242 -223 -389.5t-447 -147.5z" />
    <glyph glyph-name="D" unicode="D" horiz-adv-x="1409" 
d="M561 1434q351 0 556.5 -191t205.5 -526q0 -333 -206.5 -525t-555.5 -192h-403v1434h403zM578 283q205 0 319.5 112t114.5 322t-114.5 322t-319.5 112h-117v-868h117z" />
    <glyph glyph-name="E" unicode="E" horiz-adv-x="1165" 
d="M1057 1155h-596v-348h530v-270h-530v-258h596v-279h-899v1434h899v-279z" />
    <glyph glyph-name="F" unicode="F" horiz-adv-x="1146" 
d="M1057 1155h-596v-397h555v-271h-555v-487h-303v1434h899v-279z" />
    <glyph glyph-name="G" unicode="G" horiz-adv-x="1583" 
d="M836 793h637v-793h-228l-16 170h-8q-72 -95 -187.5 -145t-255.5 -50q-145 0 -273.5 54t-221.5 149.5t-147 234.5t-54 302q0 218 94 387.5t261 262.5t378 93q239 0 413 -118.5t234 -319.5l-303 -86q-35 117 -127 181.5t-223 64.5q-183 0 -298.5 -127.5t-115.5 -337.5
q0 -211 116.5 -336t303.5 -125q147 0 248.5 77.5t130.5 209.5h-358v252z" />
    <glyph glyph-name="H" unicode="H" horiz-adv-x="1452" 
d="M991 1434h303v-1434h-303v524h-530v-524h-303v1434h303v-627h530v627z" />
    <glyph glyph-name="I" unicode="I" horiz-adv-x="618" 
d="M158 0v1434h303v-1434h-303z" />
    <glyph glyph-name="J" unicode="J" horiz-adv-x="1210" 
d="M211 1434h860v-934q0 -259 -131.5 -392t-378.5 -133q-222 0 -352.5 106.5t-155.5 309.5l295 68q24 -108 77 -155.5t136 -47.5q100 0 153.5 64t53.5 194v637h-557v283z" />
    <glyph glyph-name="K" unicode="K" horiz-adv-x="1353" 
d="M756 725l587 -725h-376l-500 618h-6v-618h-303v1434h303v-625h6l510 625h356z" />
    <glyph glyph-name="L" unicode="L" horiz-adv-x="1087" 
d="M461 283h569v-283h-872v1434h303v-1151z" />
    <glyph glyph-name="M" unicode="M" horiz-adv-x="1884" 
d="M1405 1434h321v-1434h-294v850h-9l-391 -850h-180l-391 850h-6v-850h-297v1434h321l459 -979h8z" />
    <glyph glyph-name="N" unicode="N" horiz-adv-x="1523" 
d="M1063 1434h303v-1434h-307l-592 909h-6v-909h-303v1434h307l590 -910h8v910z" />
    <glyph glyph-name="O" unicode="O" horiz-adv-x="1609" 
d="M805 -25q-208 0 -373 94.5t-257.5 264t-92.5 383.5q0 160 54 298.5t149.5 235.5t230 152t289.5 55t289.5 -55t230 -152t149.5 -235.5t54 -298.5q0 -214 -92.5 -383.5t-257.5 -264t-373 -94.5zM805 256q182 0 295.5 126.5t113.5 334.5t-113.5 334.5t-295.5 126.5
q-183 0 -296.5 -126.5t-113.5 -334.5t113.5 -334.5t296.5 -126.5z" />
    <glyph glyph-name="P" unicode="P" horiz-adv-x="1298" 
d="M621 1434q291 0 448.5 -140.5t157.5 -400.5q0 -261 -157 -402t-449 -141h-160v-350h-303v1434h463zM621 631q149 0 220.5 64t71.5 198q0 132 -71.5 196t-220.5 64h-160v-522h160z" />
    <glyph glyph-name="Q" unicode="Q" horiz-adv-x="1609" 
d="M1528 717q0 -303 -178 -506l157 -188l-215 -181l-168 201q-152 -68 -319 -68q-208 0 -373 94.5t-257.5 264t-92.5 383.5q0 160 54 298.5t149.5 235.5t230 152t289.5 55t289.5 -55t230 -152t149.5 -235.5t54 -298.5zM805 256q67 0 125 18l-219 258l217 183l221 -264
q65 109 65 266q0 208 -113.5 334.5t-295.5 126.5q-183 0 -296.5 -126.5t-113.5 -334.5t113.5 -334.5t296.5 -126.5z" />
    <glyph glyph-name="R" unicode="R" horiz-adv-x="1331" 
d="M1239 0h-352l-250 350h-176v-350h-303v1434h463q294 0 450 -140.5t156 -400.5q0 -357 -285 -483zM461 1153v-522h160q149 0 220.5 64t71.5 198q0 132 -71.5 196t-220.5 64h-160z" />
    <glyph glyph-name="S" unicode="S" horiz-adv-x="1208" 
d="M616 -25q-222 0 -373 113.5t-182 302.5l289 70q67 -215 275 -215q100 0 159.5 47.5t59.5 124.5q0 65 -50 104.5t-173 65.5l-148 30q-393 85 -393 400q0 195 143 317.5t377 122.5q212 0 352.5 -103.5t175.5 -287.5l-288 -72q-43 193 -248 193q-97 0 -154 -44.5t-57 -115.5
q0 -60 50 -95.5t181 -64.5l146 -30q201 -44 295 -142t94 -254q0 -207 -146.5 -337t-384.5 -130z" />
    <glyph glyph-name="T" unicode="T" horiz-adv-x="1161" 
d="M1124 1434v-283h-393v-1151h-303v1151h-391v283h1087z" />
    <glyph glyph-name="U" unicode="U" horiz-adv-x="1413" 
d="M707 -25q-264 0 -416 156t-152 430v873h301v-856q0 -156 71.5 -237t195.5 -81q123 0 193.5 81t70.5 237v856h303v-873q0 -274 -152.5 -430t-414.5 -156z" />
    <glyph glyph-name="V" unicode="V" horiz-adv-x="1331" 
d="M485 0l-469 1434h318l328 -1059h8l327 1059h318l-471 -1434h-359z" />
    <glyph glyph-name="W" unicode="W" horiz-adv-x="2048" 
d="M432 0l-405 1434h313l256 -949h6l287 949h270l287 -949h6l256 949h315l-407 -1434h-301l-287 973h-8l-285 -973h-303z" />
    <glyph glyph-name="X" unicode="X" horiz-adv-x="1261" 
d="M1239 0h-328l-280 498l-281 -498h-325l421 745l-407 689h334l258 -449l258 449h334l-408 -689z" />
    <glyph glyph-name="Y" unicode="Y" horiz-adv-x="1290" 
d="M494 0v580l-488 854h338l299 -549h6l299 549h336l-487 -854v-580h-303z" />
    <glyph glyph-name="Z" unicode="Z" horiz-adv-x="1169" 
d="M463 283h624v-283h-1005v238l608 913h-592v283h973v-238z" />
    <glyph glyph-name="bracketleft" unicode="[" horiz-adv-x="774" 
d="M711 1260h-267v-1233h267v-260h-553v1753h553v-260z" />
    <glyph glyph-name="backslash" unicode="\" horiz-adv-x="1081" 
d="M1063 -188h-287l-758 1708h287z" />
    <glyph glyph-name="bracketright" unicode="]" horiz-adv-x="774" 
d="M63 1520h553v-1753h-553v260h267v1233h-267v260z" />
    <glyph glyph-name="asciicircum" unicode="^" horiz-adv-x="1247" 
d="M1200 713h-319l-256 422l-258 -422h-318l436 671h279z" />
    <glyph glyph-name="underscore" unicode="_" horiz-adv-x="905" 
d="M20 -324v232h865v-232h-865z" />
    <glyph glyph-name="grave" unicode="`" horiz-adv-x="1228" 
d="M547 1126l-221 312h325l156 -312h-260z" />
    <glyph glyph-name="a" unicode="a" horiz-adv-x="1222" 
d="M831 991h263v-991h-263l-10 121h-8q-37 -66 -117.5 -106t-177.5 -40q-188 0 -315 144.5t-127 376.5t127 376t315 144q97 0 177.5 -40t117.5 -106h8zM807 436v119q0 87 -62 145t-155 58q-99 0 -161 -70t-62 -192t62 -192.5t161 -70.5q93 0 155 58t62 145z" />
    <glyph glyph-name="b" unicode="b" horiz-adv-x="1226" 
d="M705 1016q188 0 315 -144t127 -376t-127 -376.5t-315 -144.5q-98 0 -178 40t-117 106h-9l-10 -121h-262v1434h287v-555h6q37 61 112.5 99t170.5 38zM631 233q99 0 162 70.5t63 192.5t-63 192t-162 70q-92 0 -153.5 -58.5t-61.5 -144.5v-119q0 -86 61.5 -144.5
t153.5 -58.5z" />
    <glyph glyph-name="c" unicode="c" horiz-adv-x="1126" 
d="M584 -25q-224 0 -366 145t-142 376t143 375.5t369 144.5q191 0 322 -103.5t157 -281.5l-289 -45q-12 78 -65.5 125t-128.5 47q-93 0 -155 -71.5t-62 -190.5t62.5 -191t156.5 -72q75 0 131 44.5t69 123.5l281 -45q-26 -172 -159.5 -276.5t-323.5 -104.5z" />
    <glyph glyph-name="d" unicode="d" horiz-adv-x="1224" 
d="M811 1434h287v-1434h-262l-13 121h-6q-38 -66 -118.5 -106t-178.5 -40q-188 0 -315 144.5t-127 376.5t127 376t315 144q96 0 171 -38t112 -99h8v555zM811 436v119q0 87 -62 145t-155 58q-99 0 -162 -70t-63 -192t63 -192.5t162 -70.5q93 0 155 58t62 145z" />
    <glyph glyph-name="e" unicode="e" horiz-adv-x="1153" 
d="M1077 524q0 -42 -6 -98h-715q17 -104 80 -157.5t160 -53.5q71 0 123 30t78 85l262 -60q-47 -137 -172 -216t-295 -79q-231 0 -373.5 142.5t-142.5 371.5q0 233 145 380t371 147q215 0 350 -134t135 -358zM592 780q-85 0 -143.5 -43.5t-81.5 -128.5h426
q-14 87 -67.5 129.5t-133.5 42.5z" />
    <glyph glyph-name="f" unicode="f" horiz-adv-x="761" 
d="M639 1202q-82 0 -120 -34.5t-38 -110.5v-66h238v-248h-238v-743h-286v743h-160v248h160v66q0 199 97 300t279 101q82 0 150 -20v-244q-50 8 -82 8z" />
    <glyph glyph-name="g" unicode="g" horiz-adv-x="1226" 
d="M836 991h262v-973q0 -236 -139.5 -368.5t-378.5 -132.5q-193 0 -325.5 89.5t-170.5 256.5l268 71q58 -165 234 -165q110 0 172.5 65.5t62.5 183.5v140h-6q-37 -64 -118 -103t-177 -39q-187 0 -313.5 139t-126.5 359t127 361t313 141q98 0 179 -40t118 -106h8zM811 457
v114q0 75 -63 131t-154 56q-98 0 -160.5 -67.5t-62.5 -176.5q0 -108 62.5 -175t160.5 -67q90 0 153.5 55.5t63.5 129.5z" />
    <glyph glyph-name="h" unicode="h" horiz-adv-x="1171" 
d="M717 1016q157 0 245.5 -104t88.5 -296v-616h-287v537q0 114 -40.5 164.5t-121.5 50.5q-87 0 -136.5 -56t-49.5 -166v-530h-287v1434h287v-555h6q108 137 295 137z" />
    <glyph glyph-name="i" unicode="i" horiz-adv-x="544" 
d="M272 1126q-76 0 -128 50.5t-52 126.5t52 126t128 50t128.5 -50t52.5 -126t-52.5 -126.5t-128.5 -50.5zM129 0v991h287v-991h-287z" />
    <glyph glyph-name="j" unicode="j" horiz-adv-x="544" 
d="M272 1126q-76 0 -128 50.5t-52 126.5t52 126t128 50t128.5 -50t52.5 -126t-52.5 -126.5t-128.5 -50.5zM74 -483q-65 0 -127 12v248q32 -4 57 -4q67 0 96 31t29 106v1081h287v-1108q0 -195 -81 -280.5t-261 -85.5z" />
    <glyph glyph-name="k" unicode="k" horiz-adv-x="1120" 
d="M1112 0h-352l-338 416h-6v-416h-287v1434h287v-820h8l328 377h346l-414 -469z" />
    <glyph glyph-name="l" unicode="l" horiz-adv-x="544" 
d="M129 0v1434h287v-1434h-287z" />
    <glyph glyph-name="m" unicode="m" horiz-adv-x="1751" 
d="M1298 1016q155 0 244.5 -103.5t89.5 -296.5v-616h-286v539q0 213 -150 213q-78 0 -125 -56.5t-47 -165.5v-530h-287v539q0 112 -37 162.5t-110 50.5q-80 0 -127 -57t-47 -165v-530h-287v991h262l10 -121h9q44 67 123 106.5t169 39.5q183 0 267 -158h8q53 73 138 115.5
t183 42.5z" />
    <glyph glyph-name="n" unicode="n" horiz-adv-x="1171" 
d="M715 1016q156 0 246 -104t90 -296v-616h-287v537q0 114 -40.5 164.5t-121.5 50.5q-87 0 -136.5 -56t-49.5 -166v-530h-287v991h262l10 -121h9q44 67 126 106.5t179 39.5z" />
    <glyph glyph-name="o" unicode="o" horiz-adv-x="1187" 
d="M594 -25q-228 0 -373 145.5t-145 375.5t145 375t373 145t373 -145t145 -375t-145 -375.5t-373 -145.5zM594 231q101 0 164 72t63 193t-63 191.5t-164 70.5t-164 -70.5t-63 -191.5t63 -193t164 -72z" />
    <glyph glyph-name="p" unicode="p" horiz-adv-x="1222" 
d="M705 1016q188 0 315 -144t127 -376t-127 -376.5t-315 -144.5q-95 0 -170.5 38.5t-112.5 99.5h-6v-572h-287v1450h262l10 -121h9q37 66 117 106t178 40zM631 233q99 0 162 70.5t63 192.5t-63 192t-162 70q-92 0 -153.5 -58.5t-61.5 -144.5v-119q0 -86 61.5 -144.5
t153.5 -58.5z" />
    <glyph glyph-name="q" unicode="q" horiz-adv-x="1222" 
d="M831 991h263v-1450h-287v572h-6q-37 -61 -112.5 -99.5t-170.5 -38.5q-188 0 -315 144.5t-127 376.5t127 376t315 144q98 0 178 -40t117 -106h8zM592 233q92 0 153.5 58.5t61.5 144.5v119q0 86 -61.5 144.5t-153.5 58.5q-99 0 -162 -70t-63 -192t63 -192.5t162 -70.5z" />
    <glyph glyph-name="r" unicode="r" horiz-adv-x="813" 
d="M680 1010q52 0 90 -15v-270q-46 6 -86 6q-135 0 -201.5 -70.5t-66.5 -216.5v-444h-287v991h260l14 -149h9q35 79 106.5 123.5t161.5 44.5z" />
    <glyph glyph-name="s" unicode="s" horiz-adv-x="960" 
d="M489 -25q-173 0 -288.5 77.5t-137.5 207.5l256 62q15 -58 64.5 -91.5t116.5 -33.5q61 0 96 25t35 65q0 70 -137 96l-121 25q-154 29 -228.5 99.5t-74.5 186.5q0 142 110.5 232t302.5 90q167 0 273.5 -71t134.5 -197l-256 -64q-14 53 -57.5 83t-106.5 30q-59 0 -93 -24
t-34 -62q0 -30 29.5 -50t111.5 -36l121 -25q155 -28 227 -100.5t72 -186.5q0 -150 -111.5 -244t-304.5 -94z" />
    <glyph glyph-name="t" unicode="t" horiz-adv-x="788" 
d="M637 229q41 0 88 7v-242q-78 -19 -158 -19q-195 0 -289 94t-94 298v372h-153v252h153v236h287v-236h248v-252h-248v-350q0 -90 36.5 -125t129.5 -35z" />
    <glyph glyph-name="u" unicode="u" horiz-adv-x="1161" 
d="M745 991h287v-991h-260l-12 121h-6q-46 -67 -127.5 -106.5t-175.5 -39.5q-151 0 -240.5 104t-89.5 296v616h287v-536q0 -114 39 -164.5t116 -50.5q86 0 134 55.5t48 165.5v530z" />
    <glyph glyph-name="v" unicode="v" horiz-adv-x="1071" 
d="M377 0l-361 991h310l206 -643h7l206 643h310l-361 -991h-317z" />
    <glyph glyph-name="w" unicode="w" horiz-adv-x="1665" 
d="M330 0l-303 991h297l170 -612h8l200 612h261l200 -612h8l170 612h297l-305 -991h-299l-198 627h-7l-198 -627h-301z" />
    <glyph glyph-name="x" unicode="x" horiz-adv-x="1056" 
d="M1036 0h-313l-195 293l-194 -293h-314l342 512l-327 479h309l184 -272l185 272h309l-328 -479z" />
    <glyph glyph-name="y" unicode="y" horiz-adv-x="1077" 
d="M756 991h307l-535 -1450h-307l164 449l-369 1001h312l209 -639h8z" />
    <glyph glyph-name="z" unicode="z" horiz-adv-x="952" 
d="M446 252h437v-252h-813v209l422 530h-414v252h790v-209z" />
    <glyph glyph-name="braceleft" unicode="{" horiz-adv-x="800" 
d="M537 -233q-156 0 -242 79.5t-86 219.5v323q0 65 -31 94t-100 29h-17v262h17q69 0 100 29t31 94v324q0 140 86 219.5t242 79.5h198v-258h-123q-63 0 -90.5 -27t-27.5 -90v-248q0 -203 -172 -250v-8q172 -47 172 -250v-248q0 -63 27.5 -89.5t90.5 -26.5h123v-258h-198z" />
    <glyph glyph-name="bar" unicode="|" horiz-adv-x="655" 
d="M199 -205v1772h258v-1772h-258z" />
    <glyph glyph-name="braceright" unicode="}" horiz-adv-x="800" 
d="M264 -233h-198v258h124q62 0 90.5 27t28.5 89v248q0 204 172 250v8q-172 46 -172 250v248q0 62 -28.5 89.5t-90.5 27.5h-124v258h198q156 0 242 -79.5t86 -219.5v-324q0 -64 31.5 -93.5t99.5 -29.5h18v-262h-18q-68 0 -99.5 -29.5t-31.5 -93.5v-323q0 -140 -86 -219.5
t-242 -79.5z" />
    <glyph glyph-name="asciitilde" unicode="~" horiz-adv-x="1331" 
d="M881 469q-75 0 -215 48t-215 48q-67 0 -124 -20.5t-126 -67.5v262q122 88 254 88q72 0 214 -49t210 -49q143 0 251 90v-262q-124 -88 -249 -88z" />
    <glyph glyph-name="uni00A0" unicode="&#xa0;" horiz-adv-x="464" 
 />
    <glyph glyph-name="exclamdown" unicode="&#xa1;" horiz-adv-x="616" 
d="M307 1016q85 0 139 -54t54 -137q0 -86 -54 -140t-139 -54q-84 0 -137 54t-53 140q0 83 53.5 137t136.5 54zM184 498h248l27 -934h-301z" />
    <glyph glyph-name="cent" unicode="&#xa2;" horiz-adv-x="1153" 
d="M645 440q68 14 115 59.5t59 116.5l258 -41q-25 -157 -142.5 -258t-289.5 -116v-201h-121v203q-195 23 -316.5 163.5t-121.5 350.5t121.5 350.5t316.5 163.5v203h121v-201q173 -14 290 -115t142 -262l-266 -43q-12 72 -57 119t-109 59v-551zM356 717q0 -104 46 -175.5
t122 -95.5v541q-76 -24 -122 -95t-46 -175z" />
    <glyph glyph-name="sterling" unicode="&#xa3;" horiz-adv-x="1110" 
d="M621 489q0 -139 -93 -235h521v-254h-957v166q134 94 188 168.5t54 165.5q0 40 -10 88h-230v186h152q-27 55 -42.5 90t-29.5 90.5t-14 108.5q0 171 122 283t320 112q189 0 309 -103t140 -282l-271 -55q-28 190 -176 190q-70 0 -110.5 -40t-40.5 -111q0 -24 4 -48t17.5 -60
t19 -50.5t28 -66t25.5 -58.5h352v-186h-289q11 -61 11 -99z" />
    <glyph glyph-name="currency" unicode="&#xa4;" horiz-adv-x="1128" 
d="M987 717q0 -127 -63 -228l137 -135l-133 -133l-142 139q-98 -53 -221 -53q-122 0 -223 53l-139 -139l-133 133l137 138q-64 98 -64 225t64 225l-137 137l133 133l139 -139q101 53 223 53q123 0 221 -53l142 139l133 -133l-137 -135q63 -101 63 -227zM565 543q76 0 122 48
t46 126t-46 126t-122 48t-123 -48t-47 -126t47 -126t123 -48z" />
    <glyph glyph-name="yen" unicode="&#xa5;" horiz-adv-x="1181" 
d="M1153 1434l-356 -682h290v-174h-352v-152h352v-174h-352v-252h-289v252h-350v174h350v152h-350v174h289l-356 682h305l258 -529l256 529h305z" />
    <glyph glyph-name="brokenbar" unicode="&#xa6;" horiz-adv-x="655" 
d="M199 825v742h258v-742h-258zM199 -205v725h258v-725h-258z" />
    <glyph glyph-name="section" unicode="&#xa7;" horiz-adv-x="1093" 
d="M811 369q182 -90 182 -281q0 -159 -119.5 -260.5t-316.5 -101.5q-176 0 -292.5 85t-145.5 236l264 68q32 -146 184 -146q70 0 109 29t39 82q0 41 -37 67.5t-131 47.5l-125 24q-320 68 -320 318q0 96 47.5 169.5t133.5 108.5q-183 89 -183 281q0 159 120 260.5t317 101.5
q176 0 292.5 -84.5t147.5 -236.5l-266 -68q-33 145 -183 145q-71 0 -110 -29t-39 -81q0 -41 37 -67.5t131 -47.5l125 -24q321 -68 321 -320q0 -95 -48 -168t-134 -108zM543 442q70 -17 123 31.5t53 128.5q0 52 -29.5 82t-91.5 45l-45 12q-71 17 -123.5 -31t-52.5 -128
q0 -52 28.5 -82t90.5 -45z" />
    <glyph glyph-name="dieresis" unicode="&#xa8;" horiz-adv-x="1228" 
d="M389 1135q-69 0 -116.5 47.5t-47.5 120.5q0 74 47.5 120.5t116.5 46.5q72 0 120 -46.5t48 -120.5q0 -73 -48.5 -120.5t-119.5 -47.5zM838 1135q-70 0 -118 47.5t-48 120.5q0 74 48 120.5t118 46.5t118 -46.5t48 -120.5q0 -73 -48 -120.5t-118 -47.5z" />
    <glyph glyph-name="copyright" unicode="&#xa9;" horiz-adv-x="1660" 
d="M829 -25q-206 0 -377.5 98.5t-270.5 269t-99 374.5q0 153 58.5 290t158 236t238 157t292.5 58t292.5 -58t238.5 -157t158.5 -236t58.5 -290t-58.5 -290.5t-158.5 -236.5t-238.5 -157t-292.5 -58zM829 129q123 0 231.5 46.5t185 125t121 187t44.5 229.5t-44.5 229.5
t-121 187t-185 125t-231.5 46.5q-163 0 -296 -78.5t-208 -213.5t-75 -296t75 -296t208 -213.5t296 -78.5zM840 299q-181 0 -296.5 116.5t-115.5 303.5q0 185 116 301.5t300 116.5q155 0 261 -85t128 -231l-258 -41q-7 56 -44.5 89.5t-90.5 33.5q-66 0 -109 -51t-43 -133
q0 -85 43.5 -137t110.5 -52q50 0 90.5 31.5t50.5 89.5l250 -41q-20 -141 -129 -226t-264 -85z" />
    <glyph glyph-name="ordfeminine" unicode="&#xaa;" horiz-adv-x="1024" 
d="M688 1438h248v-848h-248l-8 98h-8q-29 -54 -94 -86.5t-148 -32.5q-159 0 -266 122.5t-107 322.5q0 198 107 321t266 123q77 0 144.5 -32t97.5 -87h8zM666 969v92q0 65 -48 109t-118 44q-75 0 -122.5 -53t-47.5 -147t48 -148.5t122 -54.5q71 0 118.5 45.5t47.5 112.5z" />
    <glyph glyph-name="guillemotleft" unicode="&#xab;" horiz-adv-x="1288" 
d="M694 1032l-313 -452l313 -451h-311l-317 451l317 452h311zM1212 1032l-315 -452l315 -451h-313l-315 451l315 452h313z" />
    <glyph glyph-name="logicalnot" unicode="&#xac;" horiz-adv-x="1331" 
d="M201 780h929v-467h-272v205h-657v262z" />
    <glyph glyph-name="registered" unicode="&#xae;" horiz-adv-x="946" 
d="M473 1458q174 0 297 -123t123 -295t-123 -294.5t-297 -122.5q-175 0 -298.5 122.5t-123.5 294.5q0 173 123.5 295.5t298.5 122.5zM473 727q129 0 216 91.5t87 221.5t-87 222t-216 92t-217 -92t-88 -222t88 -221.5t217 -91.5zM662 1118q0 -111 -101 -135l113 -154h-129
l-99 148h-32v-148h-111v437h199q75 0 117.5 -39t42.5 -109zM414 1163v-92h82q49 0 49 47q0 45 -49 45h-82z" />
    <glyph glyph-name="macron" unicode="&#xaf;" horiz-adv-x="1228" 
d="M322 1167v213h585v-213h-585z" />
    <glyph glyph-name="degree" unicode="&#xb0;" horiz-adv-x="788" 
d="M393 801q-147 0 -242.5 93.5t-95.5 233.5q0 142 95.5 236t242.5 94q148 0 244 -94t96 -236q0 -140 -96 -233.5t-244 -93.5zM393 997q60 0 95.5 36t35.5 95t-36 96.5t-95 37.5q-58 0 -93.5 -37.5t-35.5 -96.5t35.5 -95t93.5 -36z" />
    <glyph glyph-name="plusminus" unicode="&#xb1;" horiz-adv-x="1331" 
d="M805 954h325v-262h-325v-303h-279v303h-325v262h325v303h279v-303zM201 0v262h929v-262h-929z" />
    <glyph glyph-name="twosuperior" unicode="&#xb2;" horiz-adv-x="753" 
d="M467 874q-112 -67 -145 -114h368v-205h-627v107q0 120 48.5 190.5t197.5 161.5q99 63 131.5 96t32.5 68q0 34 -21.5 53.5t-58.5 19.5q-92 0 -114 -129l-222 39q18 144 105.5 220.5t226.5 76.5q142 0 224.5 -75.5t82.5 -202.5q0 -87 -50.5 -156.5t-178.5 -149.5z" />
    <glyph glyph-name="threesuperior" unicode="&#xb3;" horiz-adv-x="770" 
d="M578 1008q64 -28 98.5 -81.5t34.5 -123.5q0 -116 -89 -189t-231 -73q-145 0 -234 77.5t-96 212.5l222 27q6 -55 34.5 -82.5t71.5 -27.5t69.5 24.5t26.5 61.5q0 38 -26 59.5t-76 21.5h-88v181h86q43 0 66.5 21t23.5 57t-23.5 56.5t-62.5 20.5q-41 0 -68.5 -25.5
t-33.5 -76.5l-224 29q14 127 104.5 203.5t229.5 76.5q134 0 217.5 -72.5t83.5 -187.5q0 -133 -116 -190z" />
    <glyph glyph-name="acute" unicode="&#xb4;" horiz-adv-x="1228" 
d="M406 1126l155 312h326l-221 -312h-260z" />
    <glyph glyph-name="uni00B5" unicode="&#xb5;" horiz-adv-x="1181" 
d="M768 991h287v-991h-258l-11 102h-8q-64 -127 -205 -127q-88 0 -157 60v-494h-287v1450h287v-547q0 -204 172 -204q85 0 132.5 56.5t47.5 164.5v530z" />
    <glyph glyph-name="paragraph" unicode="&#xb6;" horiz-adv-x="1417" 
d="M117 1114q0 144 104.5 232t292.5 88h264v-1696h-274v1055h-23q-166 0 -265 88.5t-99 232.5zM944 1434h275v-1696h-275v1696z" />
    <glyph glyph-name="periodcentered" unicode="&#xb7;" horiz-adv-x="563" 
d="M283 457q-85 0 -139 54.5t-54 137.5q0 85 54 139t139 54q83 0 136.5 -54t53.5 -139q0 -83 -53.5 -137.5t-136.5 -54.5z" />
    <glyph glyph-name="cedilla" unicode="&#xb8;" horiz-adv-x="1228" 
d="M627 -92q86 -13 132 -60.5t46 -121.5q0 -94 -74.5 -149.5t-208.5 -55.5q-56 0 -108 12v162q27 -4 71 -4q95 0 95 49q0 24 -31.5 35.5t-120.5 11.5l21 213h178v-92z" />
    <glyph glyph-name="onesuperior" unicode="&#xb9;" horiz-adv-x="608" 
d="M309 1434h183v-889h-228v600h-182v166h47q86 0 126 29.5t54 93.5z" />
    <glyph glyph-name="ordmasculine" unicode="&#xba;" horiz-adv-x="1007" 
d="M504 569q-197 0 -322 124t-125 321q0 196 125 320t322 124q196 0 321 -123.5t125 -320.5t-125 -321t-321 -124zM504 811q76 0 125 56t49 147q0 90 -49 145t-125 55t-125 -54.5t-49 -145.5q0 -92 49 -147.5t125 -55.5z" />
    <glyph glyph-name="guillemotright" unicode="&#xbb;" horiz-adv-x="1288" 
d="M389 1032l316 -452l-316 -451h-313l315 451l-315 452h313zM905 1032l318 -452l-318 -451h-311l313 451l-313 452h311z" />
    <glyph glyph-name="onequarter" unicode="&#xbc;" horiz-adv-x="1839" 
d="M502 545h-228v600h-184v166h49q86 0 125.5 29.5t52.5 93.5h185v-889zM1200 1434h268l-903 -1434h-270zM1735 342v-192h-95v-150h-210v150h-414v178l354 561h270v-547h95zM1243 342h187v299z" />
    <glyph glyph-name="onehalf" unicode="&#xbd;" horiz-adv-x="1888" 
d="M502 545h-228v600h-184v166h49q86 0 125.5 29.5t52.5 93.5h185v-889zM1196 1434h270l-905 -1434h-268zM1552 319q-114 -70 -145 -114h369v-205h-625v106q0 120 48 191t196 162q99 63 131.5 96t32.5 68q0 34 -20.5 53.5t-57.5 19.5q-92 0 -117 -129l-221 39
q20 144 108 220.5t226 76.5q142 0 224.5 -75.5t82.5 -202.5q0 -87 -51.5 -156.5t-180.5 -149.5z" />
    <glyph glyph-name="threequarters" unicode="&#xbe;" horiz-adv-x="1998" 
d="M739 803q0 -116 -88.5 -189t-230.5 -73q-145 0 -234 77.5t-96 212.5l219 27q6 -55 35.5 -82.5t73.5 -27.5q43 0 68.5 24t25.5 62t-25.5 59.5t-74.5 21.5h-88v181h86q43 0 65.5 21t22.5 57t-23 56.5t-61 20.5q-91 0 -103 -102l-223 29q14 127 104.5 203.5t229.5 76.5
q134 0 217.5 -72.5t83.5 -187.5q0 -134 -117 -188q64 -29 98.5 -83t34.5 -124zM1360 1434h270l-903 -1434h-270zM1894 342v-192h-92v-150h-211v150h-413v178l354 561h270v-547h92zM1405 342h186v299z" />
    <glyph glyph-name="questiondown" unicode="&#xbf;" horiz-adv-x="1021" 
d="M555 1016q83 0 136.5 -54t53.5 -137q0 -86 -53 -140t-137 -54q-85 0 -139 54t-54 140q0 83 54 137t139 54zM698 498v-80q0 -102 -31 -158.5t-139 -146.5l-94 -78q-74 -63 -74 -121q0 -52 34.5 -82.5t97.5 -30.5q162 0 231 205l250 -100q-40 -169 -168.5 -268t-312.5 -99
q-185 0 -301.5 99t-116.5 260q0 85 40 157.5t138 153.5l86 72q48 42 61 67.5t13 83.5v66h286z" />
    <glyph glyph-name="Agrave" unicode="&#xc0;" horiz-adv-x="1376" 
d="M858 1561h-276l-234 327h344zM1042 0l-77 238h-555l-78 -238h-316l498 1434h348l498 -1434h-318zM496 494h385l-189 571h-8z" />
    <glyph glyph-name="Aacute" unicode="&#xc1;" horiz-adv-x="1376" 
d="M1016 1888l-236 -327h-274l164 327h346zM1042 0l-77 238h-555l-78 -238h-316l498 1434h348l498 -1434h-318zM496 494h385l-189 571h-8z" />
    <glyph glyph-name="Acircumflex" unicode="&#xc2;" horiz-adv-x="1376" 
d="M688 1718l-129 -157h-270l254 327h291l253 -327h-270zM1042 0l-77 238h-555l-78 -238h-316l498 1434h348l498 -1434h-318zM496 494h385l-189 571h-8z" />
    <glyph glyph-name="Atilde" unicode="&#xc3;" horiz-adv-x="1376" 
d="M575 1683q-51 0 -51 -120h-198q0 164 54.5 248.5t154.5 84.5q85 0 178 -81q60 -50 88 -50q53 0 53 123h197q0 -164 -54 -250t-153 -86q-83 0 -180 82q-57 49 -89 49zM1042 0l-77 238h-555l-78 -238h-316l498 1434h348l498 -1434h-318zM496 494h385l-189 571h-8z" />
    <glyph glyph-name="Adieresis" unicode="&#xc4;" horiz-adv-x="1376" 
d="M449 1567q-74 0 -126.5 50.5t-52.5 127.5t53 128.5t126 51.5t124.5 -51.5t51.5 -128.5t-51.5 -127.5t-124.5 -50.5zM928 1567q-73 0 -124.5 50.5t-51.5 127.5t51.5 128.5t124.5 51.5t125.5 -51.5t52.5 -128.5t-52.5 -127.5t-125.5 -50.5zM1042 0l-77 238h-555l-78 -238
h-316l498 1434h348l498 -1434h-318zM496 494h385l-189 571h-8z" />
    <glyph glyph-name="Aring" unicode="&#xc5;" horiz-adv-x="1376" 
d="M688 1536q-113 0 -187.5 69.5t-74.5 172.5t74.5 172t187.5 69t187.5 -69t74.5 -172t-74.5 -172.5t-187.5 -69.5zM688 1858q-38 0 -60 -22t-22 -58t22 -58t60 -22t60 22t22 58t-22 58t-60 22zM1042 0l-77 238h-555l-78 -238h-316l498 1434h348l498 -1434h-318zM496 494
h385l-189 571h-8z" />
    <glyph glyph-name="AE" unicode="&#xc6;" horiz-adv-x="2009" 
d="M1903 1155h-598v-348h532v-270h-532v-258h598v-279h-902v238h-509l-130 -238h-350l795 1434h1096v-279zM633 494h368v661h-8z" />
    <glyph glyph-name="Ccedilla" unicode="&#xc7;" horiz-adv-x="1538" 
d="M805 258q144 0 242 80t122 225l304 -51q-35 -229 -204.5 -374.5t-412.5 -160.5l-2 -69q86 -13 133 -60.5t47 -121.5q0 -94 -74.5 -149.5t-207.5 -55.5q-56 0 -109 12v162q27 -4 72 -4q94 0 94 49q0 24 -31.5 35.5t-120.5 11.5l19 199q-265 42 -429.5 242t-164.5 489
q0 128 34.5 243t99 205.5t152.5 156.5t199.5 101t235.5 35q263 0 449 -147t223 -389l-314 -52q-25 145 -120.5 225.5t-237.5 80.5q-178 0 -293 -125t-115 -334t115 -334t295 -125z" />
    <glyph glyph-name="Egrave" unicode="&#xc8;" horiz-adv-x="1165" 
d="M776 1561h-276l-234 327h344zM1057 1155h-596v-348h530v-270h-530v-258h596v-279h-899v1434h899v-279z" />
    <glyph glyph-name="Eacute" unicode="&#xc9;" horiz-adv-x="1165" 
d="M936 1888l-236 -327h-274l164 327h346zM1057 1155h-596v-348h530v-270h-530v-258h596v-279h-899v1434h899v-279z" />
    <glyph glyph-name="Ecircumflex" unicode="&#xca;" horiz-adv-x="1165" 
d="M608 1718l-129 -157h-270l254 327h291l254 -327h-271zM1057 1155h-596v-348h530v-270h-530v-258h596v-279h-899v1434h899v-279z" />
    <glyph glyph-name="Edieresis" unicode="&#xcb;" horiz-adv-x="1165" 
d="M369 1567q-74 0 -126.5 50.5t-52.5 127.5t53 128.5t126 51.5t124.5 -51.5t51.5 -128.5t-51.5 -127.5t-124.5 -50.5zM848 1567q-73 0 -124.5 50.5t-51.5 127.5t51.5 128.5t124.5 51.5t125.5 -51.5t52.5 -128.5t-52.5 -127.5t-125.5 -50.5zM1057 1155h-596v-348h530v-270
h-530v-258h596v-279h-899v1434h899v-279z" />
    <glyph glyph-name="Igrave" unicode="&#xcc;" horiz-adv-x="618" 
d="M201 1561l-234 327h344l166 -327h-276zM158 0v1434h303v-1434h-303z" />
    <glyph glyph-name="Iacute" unicode="&#xcd;" horiz-adv-x="618" 
d="M127 1561l164 327h346l-236 -327h-274zM158 0v1434h303v-1434h-303z" />
    <glyph glyph-name="Icircumflex" unicode="&#xce;" horiz-adv-x="618" 
d="M309 1718l-129 -157h-270l254 327h291l254 -327h-271zM158 0v1434h303v-1434h-303z" />
    <glyph glyph-name="Idieresis" unicode="&#xcf;" horiz-adv-x="618" 
d="M70 1567q-74 0 -126.5 50.5t-52.5 127.5t53 128.5t126 51.5t124.5 -51.5t51.5 -128.5t-51.5 -127.5t-124.5 -50.5zM549 1567q-73 0 -124.5 50.5t-51.5 127.5t51.5 128.5t124.5 51.5t125.5 -51.5t52.5 -128.5t-52.5 -127.5t-125.5 -50.5zM158 0v1434h303v-1434h-303z" />
    <glyph glyph-name="Eth" unicode="&#xd0;" horiz-adv-x="1429" 
d="M584 1434q350 0 556 -191.5t206 -525.5q0 -333 -206.5 -525t-555.5 -192h-404v604h-192v225h192v605h404zM600 283q204 0 319 112t115 322t-115 322t-319 112h-119v-322h262v-225h-262v-321h119z" />
    <glyph glyph-name="Ntilde" unicode="&#xd1;" horiz-adv-x="1523" 
d="M649 1683q-51 0 -51 -120h-199q0 164 54.5 248.5t154.5 84.5q85 0 178 -81q60 -50 88 -50q54 0 54 123h196q0 -164 -53.5 -250t-152.5 -86q-84 0 -181 82q-57 49 -88 49zM1063 1434h303v-1434h-307l-592 909h-6v-909h-303v1434h307l590 -910h8v910z" />
    <glyph glyph-name="Ograve" unicode="&#xd2;" horiz-adv-x="1609" 
d="M696 1561l-233 327h344l166 -327h-277zM805 -25q-208 0 -373 94.5t-257.5 264t-92.5 383.5q0 160 54 298.5t149.5 235.5t230 152t289.5 55t289.5 -55t230 -152t149.5 -235.5t54 -298.5q0 -214 -92.5 -383.5t-257.5 -264t-373 -94.5zM805 256q182 0 295.5 126.5
t113.5 334.5t-113.5 334.5t-295.5 126.5q-183 0 -296.5 -126.5t-113.5 -334.5t113.5 -334.5t296.5 -126.5z" />
    <glyph glyph-name="Oacute" unicode="&#xd3;" horiz-adv-x="1609" 
d="M623 1561l163 327h347l-236 -327h-274zM805 -25q-208 0 -373 94.5t-257.5 264t-92.5 383.5q0 160 54 298.5t149.5 235.5t230 152t289.5 55t289.5 -55t230 -152t149.5 -235.5t54 -298.5q0 -214 -92.5 -383.5t-257.5 -264t-373 -94.5zM805 256q182 0 295.5 126.5
t113.5 334.5t-113.5 334.5t-295.5 126.5q-183 0 -296.5 -126.5t-113.5 -334.5t113.5 -334.5t296.5 -126.5z" />
    <glyph glyph-name="Ocircumflex" unicode="&#xd4;" horiz-adv-x="1609" 
d="M805 1718l-129 -157h-270l253 327h291l254 -327h-270zM805 1458q155 0 289.5 -55t230 -152t149.5 -235.5t54 -298.5q0 -214 -92.5 -383.5t-257.5 -264t-373 -94.5t-373 94.5t-257.5 264t-92.5 383.5q0 160 54 298.5t149.5 235.5t230 152t289.5 55zM805 256
q182 0 295.5 126.5t113.5 334.5t-113.5 334.5t-295.5 126.5q-183 0 -296.5 -126.5t-113.5 -334.5t113.5 -334.5t296.5 -126.5z" />
    <glyph glyph-name="Otilde" unicode="&#xd5;" horiz-adv-x="1609" 
d="M961 1552q-84 0 -181 82q-57 49 -88 49q-51 0 -51 -120h-199q0 164 54.5 248.5t154.5 84.5q85 0 178 -81q60 -50 89 -50q53 0 53 123h196q0 -164 -53.5 -250t-152.5 -86zM805 -25q-208 0 -373 94.5t-257.5 264t-92.5 383.5q0 160 54 298.5t149.5 235.5t230 152t289.5 55
t289.5 -55t230 -152t149.5 -235.5t54 -298.5q0 -214 -92.5 -383.5t-257.5 -264t-373 -94.5zM805 256q182 0 295.5 126.5t113.5 334.5t-113.5 334.5t-295.5 126.5q-183 0 -296.5 -126.5t-113.5 -334.5t113.5 -334.5t296.5 -126.5z" />
    <glyph glyph-name="Odieresis" unicode="&#xd6;" horiz-adv-x="1609" 
d="M565 1567q-73 0 -125.5 50.5t-52.5 127.5t52.5 128.5t125.5 51.5t124.5 -51.5t51.5 -128.5t-51.5 -127.5t-124.5 -50.5zM1044 1567q-73 0 -124.5 50.5t-51.5 127.5t51.5 128.5t124.5 51.5t126 -51.5t53 -128.5t-52.5 -127.5t-126.5 -50.5zM805 -25q-208 0 -373 94.5
t-257.5 264t-92.5 383.5q0 160 54 298.5t149.5 235.5t230 152t289.5 55t289.5 -55t230 -152t149.5 -235.5t54 -298.5q0 -214 -92.5 -383.5t-257.5 -264t-373 -94.5zM805 256q182 0 295.5 126.5t113.5 334.5t-113.5 334.5t-295.5 126.5q-183 0 -296.5 -126.5t-113.5 -334.5
t113.5 -334.5t296.5 -126.5z" />
    <glyph glyph-name="multiply" unicode="&#xd7;" horiz-adv-x="1331" 
d="M1124 930l-280 -281l280 -280l-178 -179l-280 281l-281 -281l-178 179l280 280l-280 281l178 178l281 -281l280 281z" />
    <glyph glyph-name="Oslash" unicode="&#xd8;" horiz-adv-x="1630" 
d="M1567 1300l-152 -151q123 -188 123 -432q0 -214 -92.5 -383.5t-257.5 -264t-373 -94.5q-249 0 -436 138l-148 -148l-165 168l149 152q-123 188 -123 432q0 160 54 298.5t149.5 235.5t230 152t289.5 55q251 0 436 -137l148 147zM815 1178q-182 0 -295.5 -126.5
t-113.5 -334.5q0 -120 38 -213l605 604q-103 70 -234 70zM815 256q183 0 296.5 126.5t113.5 334.5q0 118 -39 213l-604 -604q103 -70 233 -70z" />
    <glyph glyph-name="Ugrave" unicode="&#xd9;" horiz-adv-x="1413" 
d="M598 1561l-233 327h344l165 -327h-276zM707 -25q-264 0 -416 156t-152 430v873h301v-856q0 -156 71.5 -237t195.5 -81q123 0 193.5 81t70.5 237v856h303v-873q0 -274 -152.5 -430t-414.5 -156z" />
    <glyph glyph-name="Uacute" unicode="&#xda;" horiz-adv-x="1413" 
d="M524 1561l164 327h346l-235 -327h-275zM707 -25q-264 0 -416 156t-152 430v873h301v-856q0 -156 71.5 -237t195.5 -81q123 0 193.5 81t70.5 237v856h303v-873q0 -274 -152.5 -430t-414.5 -156z" />
    <glyph glyph-name="Ucircumflex" unicode="&#xdb;" horiz-adv-x="1413" 
d="M707 1718l-129 -157h-271l254 327h291l254 -327h-270zM971 1434h303v-873q0 -274 -152.5 -430t-414.5 -156q-264 0 -416 156t-152 430v873h301v-856q0 -156 71.5 -237t195.5 -81q123 0 193.5 81t70.5 237v856z" />
    <glyph glyph-name="Udieresis" unicode="&#xdc;" horiz-adv-x="1413" 
d="M467 1567q-73 0 -125.5 50.5t-52.5 127.5t52.5 128.5t125.5 51.5t124.5 -51.5t51.5 -128.5t-51.5 -127.5t-124.5 -50.5zM946 1567q-73 0 -124.5 50.5t-51.5 127.5t51.5 128.5t124.5 51.5t125.5 -51.5t52.5 -128.5t-52.5 -127.5t-125.5 -50.5zM707 -25q-264 0 -416 156
t-152 430v873h301v-856q0 -156 71.5 -237t195.5 -81q123 0 193.5 81t70.5 237v856h303v-873q0 -274 -152.5 -430t-414.5 -156z" />
    <glyph glyph-name="Yacute" unicode="&#xdd;" horiz-adv-x="1290" 
d="M463 1561l164 327h346l-236 -327h-274zM494 0v580l-488 854h338l299 -549h6l299 549h336l-487 -854v-580h-303z" />
    <glyph glyph-name="Thorn" unicode="&#xde;" horiz-adv-x="1306" 
d="M621 1249q292 0 449 -140.5t157 -401.5q0 -260 -157.5 -400.5t-448.5 -140.5h-160v-166h-303v1434h303v-185h160zM621 446q149 0 220.5 64.5t71.5 196.5q0 134 -71.5 198t-220.5 64h-160v-523h160z" />
    <glyph glyph-name="germandbls" unicode="&#xdf;" horiz-adv-x="1218" 
d="M707 -25q-80 0 -164 17v256q61 -15 110 -15q105 0 160 47.5t55 129.5q0 85 -55.5 129.5t-161.5 44.5h-106v262h45q100 0 151.5 47t51.5 133q0 83 -48 128.5t-135 45.5q-194 0 -194 -229v-971h-287v983q0 222 128 348.5t351 126.5q213 0 341 -112t128 -291
q0 -120 -58.5 -206t-156.5 -112v-8q136 -17 216.5 -110.5t80.5 -239.5q0 -182 -121.5 -293t-330.5 -111z" />
    <glyph glyph-name="agrave" unicode="&#xe0;" horiz-adv-x="1222" 
d="M774 1126h-260l-221 312h325zM831 991h263v-991h-263l-10 121h-8q-37 -66 -117.5 -106t-177.5 -40q-188 0 -315 144.5t-127 376.5t127 376t315 144q97 0 177.5 -40t117.5 -106h8zM807 436v119q0 87 -62 145t-155 58q-99 0 -161 -70t-62 -192t62 -192.5t161 -70.5
q93 0 155 58t62 145z" />
    <glyph glyph-name="aacute" unicode="&#xe1;" horiz-adv-x="1222" 
d="M932 1438l-221 -312h-260l155 312h326zM831 991h263v-991h-263l-10 121h-8q-37 -66 -117.5 -106t-177.5 -40q-188 0 -315 144.5t-127 376.5t127 376t315 144q97 0 177.5 -40t117.5 -106h8zM807 436v119q0 87 -62 145t-155 58q-99 0 -161 -70t-62 -192t62 -192.5
t161 -70.5q93 0 155 58t62 145z" />
    <glyph glyph-name="acircumflex" unicode="&#xe2;" horiz-adv-x="1222" 
d="M618 1276l-120 -150h-258l239 312h279l239 -312h-258zM831 991h263v-991h-263l-10 121h-8q-37 -66 -117.5 -106t-177.5 -40q-188 0 -315 144.5t-127 376.5t127 376t315 144q97 0 177.5 -40t117.5 -106h8zM807 436v119q0 87 -62 145t-155 58q-99 0 -161 -70t-62 -192
t62 -192.5t161 -70.5q93 0 155 58t62 145z" />
    <glyph glyph-name="atilde" unicode="&#xe3;" horiz-adv-x="1222" 
d="M514 1243q-51 0 -51 -115h-187q0 155 51 235.5t146 80.5q79 0 170 -76q52 -47 82 -47q49 0 49 115h187q0 -154 -51 -235t-144 -81q-79 0 -170 76q-55 47 -82 47zM831 991h263v-991h-263l-10 121h-8q-37 -66 -117.5 -106t-177.5 -40q-188 0 -315 144.5t-127 376.5t127 376
t315 144q97 0 177.5 -40t117.5 -106h8zM807 436v119q0 87 -62 145t-155 58q-99 0 -161 -70t-62 -192t62 -192.5t161 -70.5q93 0 155 58t62 145z" />
    <glyph glyph-name="adieresis" unicode="&#xe4;" horiz-adv-x="1222" 
d="M393 1135q-69 0 -116.5 47.5t-47.5 120.5q0 74 47.5 120.5t116.5 46.5q72 0 120 -46.5t48 -120.5q0 -73 -48.5 -120.5t-119.5 -47.5zM842 1135q-70 0 -118 47.5t-48 120.5q0 74 48 120.5t118 46.5t118 -46.5t48 -120.5q0 -73 -48 -120.5t-118 -47.5zM831 991h263v-991
h-263l-10 121h-8q-37 -66 -117.5 -106t-177.5 -40q-188 0 -315 144.5t-127 376.5t127 376t315 144q97 0 177.5 -40t117.5 -106h8zM807 436v119q0 87 -62 145t-155 58q-99 0 -161 -70t-62 -192t62 -192.5t161 -70.5q93 0 155 58t62 145z" />
    <glyph glyph-name="aring" unicode="&#xe5;" horiz-adv-x="1222" 
d="M618 1106q-107 0 -177 66t-70 163t70.5 163.5t176.5 66.5q107 0 177.5 -66.5t70.5 -163.5t-70.5 -163t-177.5 -66zM618 1411q-35 0 -56 -21t-21 -55t21 -54.5t56 -20.5t56.5 20.5t21.5 54.5t-21.5 55t-56.5 21zM831 991h263v-991h-263l-10 121h-8q-37 -66 -117.5 -106
t-177.5 -40q-188 0 -315 144.5t-127 376.5t127 376t315 144q97 0 177.5 -40t117.5 -106h8zM807 436v119q0 87 -62 145t-155 58q-99 0 -161 -70t-62 -192t62 -192.5t161 -70.5q93 0 155 58t62 145z" />
    <glyph glyph-name="ae" unicode="&#xe6;" horiz-adv-x="1787" 
d="M1714 524q0 -49 -8 -98h-700q17 -104 77.5 -157.5t151.5 -53.5q66 0 117.5 30.5t77.5 84.5l262 -60q-47 -136 -170.5 -215.5t-286.5 -79.5q-121 0 -221 45t-162 125h-8q-50 -79 -149 -124.5t-232 -45.5q-182 0 -283.5 82t-101.5 217q0 144 117 230t335 86h211v26
q0 164 -168 164q-158 0 -192 -143l-268 49q30 157 151.5 243.5t319.5 86.5q219 0 319 -121h8q124 121 326 121q207 0 342 -134.5t135 -357.5zM1233 780q-77 0 -135 -43t-82 -125h414q-16 85 -69 126.5t-128 41.5zM506 203q105 0 168.5 55t66.5 145h-182q-190 0 -190 -110
q0 -90 137 -90z" />
    <glyph glyph-name="ccedilla" unicode="&#xe7;" horiz-adv-x="1126" 
d="M586 233q75 0 131 44.5t69 123.5l281 -45q-25 -160 -141.5 -262t-286.5 -117v-69q86 -13 132 -60.5t46 -121.5q0 -94 -74 -149.5t-208 -55.5q-57 0 -109 12v162q27 -4 72 -4q52 0 73 12t21 37q0 24 -31.5 35.5t-120.5 11.5l19 201q-174 39 -278.5 175.5t-104.5 332.5
q0 231 143 375.5t369 144.5q191 0 322 -103.5t157 -281.5l-289 -45q-12 78 -65.5 125t-128.5 47q-93 0 -155 -71.5t-62 -190.5t62.5 -191t156.5 -72z" />
    <glyph glyph-name="egrave" unicode="&#xe8;" horiz-adv-x="1153" 
d="M745 1126h-260l-221 312h326zM1077 524q0 -42 -6 -98h-715q17 -104 80 -157.5t160 -53.5q71 0 123 30t78 85l262 -60q-47 -137 -172 -216t-295 -79q-231 0 -373.5 142.5t-142.5 371.5q0 233 145 380t371 147q215 0 350 -134t135 -358zM592 780q-85 0 -143.5 -43.5
t-81.5 -128.5h426q-14 87 -67.5 129.5t-133.5 42.5z" />
    <glyph glyph-name="eacute" unicode="&#xe9;" horiz-adv-x="1153" 
d="M903 1438l-221 -312h-260l156 312h325zM1077 524q0 -42 -6 -98h-715q17 -104 80 -157.5t160 -53.5q71 0 123 30t78 85l262 -60q-47 -137 -172 -216t-295 -79q-231 0 -373.5 142.5t-142.5 371.5q0 233 145 380t371 147q215 0 350 -134t135 -358zM592 780
q-85 0 -143.5 -43.5t-81.5 -128.5h426q-14 87 -67.5 129.5t-133.5 42.5z" />
    <glyph glyph-name="ecircumflex" unicode="&#xea;" horiz-adv-x="1153" 
d="M590 1276l-121 -150h-258l240 312h278l240 -312h-258zM1077 524q0 -42 -6 -98h-715q17 -104 80 -157.5t160 -53.5q71 0 123 30t78 85l262 -60q-47 -137 -172 -216t-295 -79q-231 0 -373.5 142.5t-142.5 371.5q0 233 145 380t371 147q215 0 350 -134t135 -358zM592 780
q-85 0 -143.5 -43.5t-81.5 -128.5h426q-14 87 -67.5 129.5t-133.5 42.5z" />
    <glyph glyph-name="edieresis" unicode="&#xeb;" horiz-adv-x="1153" 
d="M365 1135q-69 0 -116.5 47.5t-47.5 120.5q0 74 47.5 120.5t116.5 46.5q72 0 119.5 -46.5t47.5 -120.5q0 -73 -48 -120.5t-119 -47.5zM813 1135q-70 0 -118 47.5t-48 120.5q0 74 48 120.5t118 46.5t118 -46.5t48 -120.5q0 -73 -48 -120.5t-118 -47.5zM1077 524
q0 -42 -6 -98h-715q17 -104 80 -157.5t160 -53.5q71 0 123 30t78 85l262 -60q-47 -137 -172 -216t-295 -79q-231 0 -373.5 142.5t-142.5 371.5q0 233 145 380t371 147q215 0 350 -134t135 -358zM592 780q-85 0 -143.5 -43.5t-81.5 -128.5h426q-14 87 -67.5 129.5
t-133.5 42.5z" />
    <glyph glyph-name="igrave" unicode="&#xec;" horiz-adv-x="544" 
d="M166 1126l-180 312h325l115 -312h-260zM129 0v991h287v-991h-287z" />
    <glyph glyph-name="iacute" unicode="&#xed;" horiz-adv-x="544" 
d="M104 1126l113 312h326l-178 -312h-261zM129 0v991h287v-991h-287z" />
    <glyph glyph-name="icircumflex" unicode="&#xee;" horiz-adv-x="544" 
d="M272 1264l-98 -138h-242l220 312h239l219 -312h-239zM129 0v991h287v-991h-287z" />
    <glyph glyph-name="idieresis" unicode="&#xef;" horiz-adv-x="544" 
d="M76 1135q-69 0 -113.5 46.5t-44.5 121.5t44.5 121t113.5 46t113 -46t44 -121q0 -76 -44.5 -122t-112.5 -46zM467 1135q-68 0 -112 46t-44 122t44 121.5t112 45.5q69 0 113.5 -46t44.5 -121t-44.5 -121.5t-113.5 -46.5zM129 0v991h287v-991h-287z" />
    <glyph glyph-name="eth" unicode="&#xf0;" horiz-adv-x="1187" 
d="M827 1282q139 -131 213 -311.5t74 -392.5q0 -129 -30.5 -236.5t-91.5 -190.5t-163.5 -129.5t-236.5 -46.5q-154 0 -272.5 67t-181 180t-62.5 253q0 211 137.5 350.5t353.5 139.5q138 0 226 -68q-49 149 -164 242l-193 -138l-86 117l146 105q-60 31 -183 71l80 219
q184 -49 314 -137l188 137l88 -118zM594 231q105 0 168 69t63 175q0 107 -62.5 174.5t-168.5 67.5q-105 0 -167 -68.5t-62 -173.5q0 -107 62 -175.5t167 -68.5z" />
    <glyph glyph-name="ntilde" unicode="&#xf1;" horiz-adv-x="1171" 
d="M485 1243q-51 0 -51 -115h-186q0 155 50.5 235.5t145.5 80.5q79 0 170 -76q52 -47 82 -47q49 0 49 115h187q0 -154 -51 -235t-144 -81q-79 0 -170 76q-55 47 -82 47zM715 1016q156 0 246 -104t90 -296v-616h-287v537q0 114 -40.5 164.5t-121.5 50.5q-87 0 -136.5 -56
t-49.5 -166v-530h-287v991h262l10 -121h9q44 67 126 106.5t179 39.5z" />
    <glyph glyph-name="ograve" unicode="&#xf2;" horiz-adv-x="1187" 
d="M487 1126l-221 312h326l156 -312h-261zM594 -25q-228 0 -373 145.5t-145 375.5t145 375t373 145t373 -145t145 -375t-145 -375.5t-373 -145.5zM594 231q101 0 164 72t63 193t-63 191.5t-164 70.5t-164 -70.5t-63 -191.5t63 -193t164 -72z" />
    <glyph glyph-name="oacute" unicode="&#xf3;" horiz-adv-x="1187" 
d="M426 1126l156 312h325l-221 -312h-260zM594 -25q-228 0 -373 145.5t-145 375.5t145 375t373 145t373 -145t145 -375t-145 -375.5t-373 -145.5zM594 231q101 0 164 72t63 193t-63 191.5t-164 70.5t-164 -70.5t-63 -191.5t63 -193t164 -72z" />
    <glyph glyph-name="ocircumflex" unicode="&#xf4;" horiz-adv-x="1187" 
d="M594 1276l-121 -150h-258l240 312h278l240 -312h-258zM594 1016q228 0 373 -145t145 -375t-145 -375.5t-373 -145.5t-373 145.5t-145 375.5t145 375t373 145zM594 231q101 0 164 72t63 193t-63 191.5t-164 70.5t-164 -70.5t-63 -191.5t63 -193t164 -72z" />
    <glyph glyph-name="otilde" unicode="&#xf5;" horiz-adv-x="1187" 
d="M741 1120q-79 0 -170 76q-55 47 -82 47q-51 0 -51 -115h-186q0 155 51 235.5t146 80.5q78 0 169 -76q52 -47 82 -47q50 0 50 115h186q0 -154 -51 -235t-144 -81zM594 -25q-228 0 -373 145.5t-145 375.5t145 375t373 145t373 -145t145 -375t-145 -375.5t-373 -145.5z
M594 231q101 0 164 72t63 193t-63 191.5t-164 70.5t-164 -70.5t-63 -191.5t63 -193t164 -72z" />
    <glyph glyph-name="odieresis" unicode="&#xf6;" horiz-adv-x="1187" 
d="M369 1135q-69 0 -116.5 47.5t-47.5 120.5q0 74 47.5 120.5t116.5 46.5q72 0 120 -46.5t48 -120.5q0 -73 -48.5 -120.5t-119.5 -47.5zM817 1135q-70 0 -118 47.5t-48 120.5q0 74 48 120.5t118 46.5t118 -46.5t48 -120.5q0 -73 -48 -120.5t-118 -47.5zM594 -25
q-228 0 -373 145.5t-145 375.5t145 375t373 145t373 -145t145 -375t-145 -375.5t-373 -145.5zM594 231q101 0 164 72t63 193t-63 191.5t-164 70.5t-164 -70.5t-63 -191.5t63 -193t164 -72z" />
    <glyph glyph-name="divide" unicode="&#xf7;" horiz-adv-x="1331" 
d="M666 883q-80 0 -129.5 45.5t-49.5 118.5t49.5 118t129.5 45t129 -45t49 -118t-49 -118.5t-129 -45.5zM201 518v262h929v-262h-929zM666 88q-80 0 -129.5 45.5t-49.5 118.5t49.5 118.5t129.5 45.5t129 -45.5t49 -118.5t-49 -118.5t-129 -45.5z" />
    <glyph glyph-name="oslash" unicode="&#xf8;" horiz-adv-x="1200" 
d="M1171 932l-137 -135q86 -128 86 -301q0 -230 -146 -375.5t-374 -145.5q-173 0 -301 86l-135 -135l-133 133l135 136q-84 133 -84 301q0 230 145 375t373 145q173 0 301 -86l137 135zM600 782q-108 0 -177 -79t-69 -207q0 -63 19 -115l362 362q-61 39 -135 39zM600 209
q109 0 178.5 79.5t69.5 207.5q0 63 -19 118l-362 -364q56 -41 133 -41z" />
    <glyph glyph-name="ugrave" unicode="&#xf9;" horiz-adv-x="1161" 
d="M737 1126h-260l-221 312h326zM745 991h287v-991h-260l-12 121h-6q-46 -67 -127.5 -106.5t-175.5 -39.5q-151 0 -240.5 104t-89.5 296v616h287v-536q0 -114 39 -164.5t116 -50.5q86 0 134 55.5t48 165.5v530z" />
    <glyph glyph-name="uacute" unicode="&#xfa;" horiz-adv-x="1161" 
d="M895 1438l-221 -312h-260l155 312h326zM745 991h287v-991h-260l-12 121h-6q-46 -67 -127.5 -106.5t-175.5 -39.5q-151 0 -240.5 104t-89.5 296v616h287v-536q0 -114 39 -164.5t116 -50.5q86 0 134 55.5t48 165.5v530z" />
    <glyph glyph-name="ucircumflex" unicode="&#xfb;" horiz-adv-x="1161" 
d="M582 1276l-121 -150h-258l239 312h279l240 -312h-259zM745 991h287v-991h-260l-12 121h-6q-46 -67 -127.5 -106.5t-175.5 -39.5q-151 0 -240.5 104t-89.5 296v616h287v-536q0 -114 39 -164.5t116 -50.5q86 0 134 55.5t48 165.5v530z" />
    <glyph glyph-name="udieresis" unicode="&#xfc;" horiz-adv-x="1161" 
d="M356 1135q-68 0 -115.5 47.5t-47.5 120.5q0 74 47 120.5t116 46.5q72 0 120 -46.5t48 -120.5q0 -73 -48.5 -120.5t-119.5 -47.5zM805 1135q-70 0 -118 47.5t-48 120.5q0 74 48 120.5t118 46.5t118 -46.5t48 -120.5q0 -73 -48 -120.5t-118 -47.5zM745 991h287v-991h-260
l-12 121h-6q-46 -67 -127.5 -106.5t-175.5 -39.5q-151 0 -240.5 104t-89.5 296v616h287v-536q0 -114 39 -164.5t116 -50.5q86 0 134 55.5t48 165.5v530z" />
    <glyph glyph-name="yacute" unicode="&#xfd;" horiz-adv-x="1077" 
d="M854 1438l-221 -312h-260l155 312h326zM756 991h307l-535 -1450h-307l164 449l-369 1001h312l209 -639h8z" />
    <glyph glyph-name="thorn" unicode="&#xfe;" horiz-adv-x="1222" 
d="M705 1016q188 0 315 -144t127 -376t-127 -376.5t-315 -144.5q-95 0 -170.5 38.5t-112.5 99.5h-6v-572h-287v1893h287v-555h6q41 63 115.5 100t167.5 37zM631 233q99 0 162 70.5t63 192.5t-63 192t-162 70q-92 0 -153.5 -58.5t-61.5 -144.5v-119q0 -86 61.5 -144.5
t153.5 -58.5z" />
    <glyph glyph-name="ydieresis" unicode="&#xff;" horiz-adv-x="1077" 
d="M315 1135q-68 0 -115.5 47.5t-47.5 120.5q0 74 47 120.5t116 46.5q72 0 120 -46.5t48 -120.5q0 -73 -48.5 -120.5t-119.5 -47.5zM764 1135q-70 0 -118 47.5t-48 120.5q0 74 48 120.5t118 46.5t118 -46.5t48 -120.5q0 -73 -48 -120.5t-118 -47.5zM756 991h307l-535 -1450
h-307l164 449l-369 1001h312l209 -639h8z" />
    <glyph glyph-name="Amacron" unicode="&#x100;" horiz-adv-x="1376" 
d="M999 1829v-225h-622v225h622zM1042 0l-77 238h-555l-78 -238h-316l498 1434h348l498 -1434h-318zM496 494h385l-189 571h-8z" />
    <glyph glyph-name="amacron" unicode="&#x101;" horiz-adv-x="1222" 
d="M911 1380v-213h-585v213h585zM831 991h263v-991h-263l-10 121h-8q-37 -66 -117.5 -106t-177.5 -40q-188 0 -315 144.5t-127 376.5t127 376t315 144q97 0 177.5 -40t117.5 -106h8zM807 436v119q0 87 -62 145t-155 58q-99 0 -161 -70t-62 -192t62 -192.5t161 -70.5
q93 0 155 58t62 145z" />
    <glyph glyph-name="Abreve" unicode="&#x102;" horiz-adv-x="1376" 
d="M688 1556q-160 0 -246 69t-86 206v22h226q0 -74 26.5 -105.5t79.5 -31.5t80 31.5t27 105.5h225v-22q0 -137 -86 -206t-246 -69zM1042 0l-77 238h-555l-78 -238h-316l498 1434h348l498 -1434h-318zM496 494h385l-189 571h-8z" />
    <glyph glyph-name="abreve" unicode="&#x103;" horiz-adv-x="1222" 
d="M618 1090q-313 0 -313 253v21h213q0 -137 100 -137q101 0 101 137h213v-21q0 -253 -314 -253zM831 991h263v-991h-263l-10 121h-8q-37 -66 -117.5 -106t-177.5 -40q-188 0 -315 144.5t-127 376.5t127 376t315 144q97 0 177.5 -40t117.5 -106h8zM807 436v119q0 87 -62 145
t-155 58q-99 0 -161 -70t-62 -192t62 -192.5t161 -70.5q93 0 155 58t62 145z" />
    <glyph glyph-name="Aogonek" unicode="&#x104;" horiz-adv-x="1376" 
d="M1208 -182q0 -68 86 -68q35 0 66 10v-223q-56 -16 -123 -16q-126 0 -200 61.5t-74 165.5q0 76 40 141.5t117 110.5h-78l-77 238h-555l-78 -238h-316l498 1434h348l498 -1434q-84 -57 -118 -100t-34 -82zM496 494h385l-189 571h-8z" />
    <glyph glyph-name="aogonek" unicode="&#x105;" horiz-adv-x="1222" 
d="M1094 0q-79 -54 -110.5 -94t-31.5 -78q0 -64 80 -64q30 0 62 11v-211q-50 -15 -115 -15q-120 0 -190 57.5t-70 155.5q0 150 147 238h-35l-10 121h-8q-37 -66 -117.5 -106t-177.5 -40q-188 0 -315 144.5t-127 376.5t127 376t315 144q97 0 177.5 -40t117.5 -106h8l10 121
h263v-991zM807 436v119q0 87 -62 145t-155 58q-99 0 -161 -70t-62 -192t62 -192.5t161 -70.5q93 0 155 58t62 145z" />
    <glyph glyph-name="Cacute" unicode="&#x106;" horiz-adv-x="1538" 
d="M621 1561l163 327h346l-235 -327h-274zM803 -25q-207 0 -371.5 94.5t-257 264t-92.5 383.5q0 128 34.5 243t99 205.5t152.5 156.5t199.5 101t235.5 35q263 0 449 -147t223 -389l-314 -52q-25 145 -120.5 225.5t-237.5 80.5q-178 0 -293 -125t-115 -334t115 -334t295 -125
q144 0 242 80t122 225l304 -51q-37 -242 -223 -389.5t-447 -147.5z" />
    <glyph glyph-name="cacute" unicode="&#x107;" horiz-adv-x="1126" 
d="M418 1126l155 312h326l-221 -312h-260zM584 -25q-224 0 -366 145t-142 376t143 375.5t369 144.5q191 0 322 -103.5t157 -281.5l-289 -45q-12 78 -65.5 125t-128.5 47q-93 0 -155 -71.5t-62 -190.5t62.5 -191t156.5 -72q75 0 131 44.5t69 123.5l281 -45
q-26 -172 -159.5 -276.5t-323.5 -104.5z" />
    <glyph glyph-name="Ccircumflex" unicode="&#x108;" horiz-adv-x="1538" 
d="M803 1718l-129 -157h-271l254 327h291l254 -327h-270zM805 258q144 0 242 80t122 225l304 -51q-37 -242 -223 -389.5t-447 -147.5q-207 0 -371.5 94.5t-257 264t-92.5 383.5q0 128 34.5 243t99 205.5t152.5 156.5t199.5 101t235.5 35q263 0 449 -147t223 -389l-314 -52
q-25 145 -120.5 225.5t-237.5 80.5q-178 0 -293 -125t-115 -334t115 -334t295 -125z" />
    <glyph glyph-name="ccircumflex" unicode="&#x109;" horiz-adv-x="1126" 
d="M586 1276l-121 -150h-258l239 312h279l240 -312h-258zM586 233q75 0 131 44.5t69 123.5l281 -45q-26 -172 -159.5 -276.5t-323.5 -104.5q-224 0 -366 145t-142 376t143 375.5t369 144.5q191 0 322 -103.5t157 -281.5l-289 -45q-12 78 -65.5 125t-128.5 47
q-93 0 -155 -71.5t-62 -190.5t62.5 -191t156.5 -72z" />
    <glyph glyph-name="Cdotaccent" unicode="&#x10a;" horiz-adv-x="1538" 
d="M803 1559q-79 0 -135 53t-56 133t56 133t135 53t134.5 -52.5t55.5 -133.5t-55.5 -133.5t-134.5 -52.5zM803 -25q-207 0 -371.5 94.5t-257 264t-92.5 383.5q0 128 34.5 243t99 205.5t152.5 156.5t199.5 101t235.5 35q263 0 449 -147t223 -389l-314 -52
q-25 145 -120.5 225.5t-237.5 80.5q-178 0 -293 -125t-115 -334t115 -334t295 -125q144 0 242 80t122 225l304 -51q-37 -242 -223 -389.5t-447 -147.5z" />
    <glyph glyph-name="cdotaccent" unicode="&#x10b;" horiz-adv-x="1126" 
d="M586 1126q-76 0 -128 50.5t-52 126.5t52 126t128 50t128 -50t52 -126t-52 -126.5t-128 -50.5zM584 -25q-224 0 -366 145t-142 376t143 375.5t369 144.5q191 0 322 -103.5t157 -281.5l-289 -45q-12 78 -65.5 125t-128.5 47q-93 0 -155 -71.5t-62 -190.5t62.5 -191
t156.5 -72q75 0 131 44.5t69 123.5l281 -45q-26 -172 -159.5 -276.5t-323.5 -104.5z" />
    <glyph glyph-name="Ccaron" unicode="&#x10c;" horiz-adv-x="1538" 
d="M948 1561h-291l-254 327h271l129 -157l129 157h270zM805 258q144 0 242 80t122 225l304 -51q-37 -242 -223 -389.5t-447 -147.5q-207 0 -371.5 94.5t-257 264t-92.5 383.5q0 128 34.5 243t99 205.5t152.5 156.5t199.5 101t235.5 35q263 0 449 -147t223 -389l-314 -52
q-25 145 -120.5 225.5t-237.5 80.5q-178 0 -293 -125t-115 -334t115 -334t295 -125z" />
    <glyph glyph-name="ccaron" unicode="&#x10d;" horiz-adv-x="1126" 
d="M725 1126h-279l-239 312h258l121 -150l121 150h258zM586 233q75 0 131 44.5t69 123.5l281 -45q-26 -172 -159.5 -276.5t-323.5 -104.5q-224 0 -366 145t-142 376t143 375.5t369 144.5q191 0 322 -103.5t157 -281.5l-289 -45q-12 78 -65.5 125t-128.5 47q-93 0 -155 -71.5
t-62 -190.5t62.5 -191t156.5 -72z" />
    <glyph glyph-name="Dcaron" unicode="&#x10e;" horiz-adv-x="1409" 
d="M776 1561h-291l-254 327h271l129 -157l129 157h270zM561 1434q351 0 556.5 -191t205.5 -526q0 -333 -206.5 -525t-555.5 -192h-403v1434h403zM578 283q205 0 319.5 112t114.5 322t-114.5 322t-319.5 112h-117v-868h117z" />
    <glyph glyph-name="dcaron" unicode="&#x10f;" horiz-adv-x="1447" 
d="M1362 1458q78 0 127.5 -61.5t46.5 -157.5q-1 -98 -59 -192.5t-166 -176.5l-78 86q114 102 141 187h-16q-69 0 -114.5 42.5t-45.5 108.5q0 70 47.5 117t116.5 47zM811 879v555h287v-1434h-262l-13 121h-6q-38 -66 -118.5 -106t-178.5 -40q-188 0 -315 144.5t-127 376.5
t127 376t315 144q96 0 171 -38t112 -99h8zM811 436v119q0 87 -62 145t-155 58q-99 0 -162 -70t-63 -192t63 -192.5t162 -70.5q93 0 155 58t62 145z" />
    <glyph glyph-name="Dcroat" unicode="&#x110;" horiz-adv-x="1429" 
d="M584 1434q350 0 556 -191.5t206 -525.5q0 -333 -206.5 -525t-555.5 -192h-404v604h-192v225h192v605h404zM600 283q204 0 319 112t115 322t-115 322t-319 112h-119v-322h262v-225h-262v-321h119z" />
    <glyph glyph-name="dcroat" unicode="&#x111;" horiz-adv-x="1224" 
d="M1268 1298v-190h-170v-1108h-262l-13 121h-6q-38 -66 -118.5 -106t-178.5 -40q-188 0 -315 144.5t-127 376.5t127 376t315 144q96 0 171 -38t112 -99h8v229h-256v190h256v136h287v-136h170zM811 436v119q0 87 -62 145t-155 58q-99 0 -162 -70t-63 -192t63 -192.5
t162 -70.5q93 0 155 58t62 145z" />
    <glyph glyph-name="Emacron" unicode="&#x112;" horiz-adv-x="1165" 
d="M920 1829v-225h-623v225h623zM1057 1155h-596v-348h530v-270h-530v-258h596v-279h-899v1434h899v-279z" />
    <glyph glyph-name="emacron" unicode="&#x113;" horiz-adv-x="1153" 
d="M883 1380v-213h-586v213h586zM1077 524q0 -42 -6 -98h-715q17 -104 80 -157.5t160 -53.5q71 0 123 30t78 85l262 -60q-47 -137 -172 -216t-295 -79q-231 0 -373.5 142.5t-142.5 371.5q0 233 145 380t371 147q215 0 350 -134t135 -358zM592 780q-85 0 -143.5 -43.5
t-81.5 -128.5h426q-14 87 -67.5 129.5t-133.5 42.5z" />
    <glyph glyph-name="Ebreve" unicode="&#x114;" horiz-adv-x="1165" 
d="M608 1556q-155 0 -243.5 83.5t-88.5 224.5v22h226q0 -147 106 -147q107 0 107 147h225v-22q0 -141 -88.5 -224.5t-243.5 -83.5zM1057 1155h-596v-348h530v-270h-530v-258h596v-279h-899v1434h899v-279z" />
    <glyph glyph-name="ebreve" unicode="&#x115;" horiz-adv-x="1153" 
d="M590 1124q-147 0 -230.5 78t-83.5 211v21h213q0 -138 101 -138q100 0 100 138h213v-21q0 -133 -83 -211t-230 -78zM1077 524q0 -42 -6 -98h-715q17 -104 80 -157.5t160 -53.5q71 0 123 30t78 85l262 -60q-47 -137 -172 -216t-295 -79q-231 0 -373.5 142.5t-142.5 371.5
q0 233 145 380t371 147q215 0 350 -134t135 -358zM592 780q-85 0 -143.5 -43.5t-81.5 -128.5h426q-14 87 -67.5 129.5t-133.5 42.5z" />
    <glyph glyph-name="Edotaccent" unicode="&#x116;" horiz-adv-x="1165" 
d="M608 1559q-79 0 -134.5 52.5t-55.5 133.5t55.5 133.5t134.5 52.5t135 -53t56 -133t-56 -133t-135 -53zM1057 1155h-596v-348h530v-270h-530v-258h596v-279h-899v1434h899v-279z" />
    <glyph glyph-name="edotaccent" unicode="&#x117;" horiz-adv-x="1153" 
d="M590 1126q-76 0 -128 50.5t-52 126.5t52 126t128 50t128 -50t52 -126t-52 -126.5t-128 -50.5zM1077 524q0 -42 -6 -98h-715q17 -104 80 -157.5t160 -53.5q71 0 123 30t78 85l262 -60q-47 -137 -172 -216t-295 -79q-231 0 -373.5 142.5t-142.5 371.5q0 233 145 380
t371 147q215 0 350 -134t135 -358zM592 780q-85 0 -143.5 -43.5t-81.5 -128.5h426q-14 87 -67.5 129.5t-133.5 42.5z" />
    <glyph glyph-name="Eogonek" unicode="&#x118;" horiz-adv-x="1165" 
d="M1057 1155h-596v-348h530v-270h-530v-258h596v-279q-84 -57 -118 -100t-34 -82q0 -68 86 -68q35 0 66 10v-223q-56 -16 -123 -16q-126 0 -200.5 61.5t-74.5 165.5q0 76 40.5 141.5t117.5 110.5h-659v1434h899v-279z" />
    <glyph glyph-name="eogonek" unicode="&#x119;" horiz-adv-x="1153" 
d="M1077 524q0 -42 -6 -98h-715q17 -104 80 -157.5t160 -53.5q71 0 123 30t78 85l262 -60q-33 -96 -105.5 -164t-173.5 -102q-78 -53 -108.5 -92.5t-30.5 -77.5q0 -63 80 -63q32 0 61 10v-211q-46 -14 -114 -14q-120 0 -190 57.5t-70 155.5q0 129 108 211q-200 23 -320 161
t-120 348q0 233 145 380t371 147q215 0 350 -134t135 -358zM592 780q-85 0 -143.5 -43.5t-81.5 -128.5h426q-14 87 -67.5 129.5t-133.5 42.5z" />
    <glyph glyph-name="Ecaron" unicode="&#x11a;" horiz-adv-x="1165" 
d="M754 1561h-291l-254 327h270l129 -157l129 157h271zM1057 1155h-596v-348h530v-270h-530v-258h596v-279h-899v1434h899v-279z" />
    <glyph glyph-name="ecaron" unicode="&#x11b;" horiz-adv-x="1153" 
d="M729 1126h-278l-240 312h258l121 -150l121 150h258zM1077 524q0 -42 -6 -98h-715q17 -104 80 -157.5t160 -53.5q71 0 123 30t78 85l262 -60q-47 -137 -172 -216t-295 -79q-231 0 -373.5 142.5t-142.5 371.5q0 233 145 380t371 147q215 0 350 -134t135 -358zM592 780
q-85 0 -143.5 -43.5t-81.5 -128.5h426q-14 87 -67.5 129.5t-133.5 42.5z" />
    <glyph glyph-name="Gcircumflex" unicode="&#x11c;" horiz-adv-x="1583" 
d="M815 1718l-129 -157h-270l254 327h291l253 -327h-270zM836 793h637v-793h-228l-16 170h-8q-72 -95 -187.5 -145t-255.5 -50q-145 0 -273.5 54t-221.5 149.5t-147 234.5t-54 302q0 218 94 387.5t261 262.5t378 93q239 0 413 -118.5t234 -319.5l-303 -86
q-35 117 -127 181.5t-223 64.5q-183 0 -298.5 -127.5t-115.5 -337.5q0 -211 116.5 -336t303.5 -125q147 0 248.5 77.5t130.5 209.5h-358v252z" />
    <glyph glyph-name="gcircumflex" unicode="&#x11d;" horiz-adv-x="1226" 
d="M618 1276l-120 -150h-258l239 312h279l239 -312h-258zM836 991h262v-973q0 -236 -139.5 -368.5t-378.5 -132.5q-193 0 -325.5 89.5t-170.5 256.5l268 71q58 -165 234 -165q110 0 172.5 65.5t62.5 183.5v140h-6q-37 -64 -118 -103t-177 -39q-187 0 -313.5 139t-126.5 359
t127 361t313 141q98 0 179 -40t118 -106h8zM811 457v114q0 75 -63 131t-154 56q-98 0 -160.5 -67.5t-62.5 -176.5q0 -108 62.5 -175t160.5 -67q90 0 153.5 55.5t63.5 129.5z" />
    <glyph glyph-name="Gbreve" unicode="&#x11e;" horiz-adv-x="1583" 
d="M815 1556q-155 0 -243.5 83.5t-88.5 224.5v22h226q0 -147 106 -147q107 0 107 147h225v-22q0 -141 -88.5 -224.5t-243.5 -83.5zM836 793h637v-793h-228l-16 170h-8q-72 -95 -187.5 -145t-255.5 -50q-145 0 -273.5 54t-221.5 149.5t-147 234.5t-54 302q0 218 94 387.5
t261 262.5t378 93q239 0 413 -118.5t234 -319.5l-303 -86q-35 117 -127 181.5t-223 64.5q-183 0 -298.5 -127.5t-115.5 -337.5q0 -211 116.5 -336t303.5 -125q147 0 248.5 77.5t130.5 209.5h-358v252z" />
    <glyph glyph-name="gbreve" unicode="&#x11f;" horiz-adv-x="1226" 
d="M618 1124q-147 0 -230 78t-83 211v21h213q0 -138 100 -138q101 0 101 138h213v-21q0 -133 -83.5 -211t-230.5 -78zM836 991h262v-973q0 -236 -139.5 -368.5t-378.5 -132.5q-193 0 -325.5 89.5t-170.5 256.5l268 71q58 -165 234 -165q110 0 172.5 65.5t62.5 183.5v140h-6
q-37 -64 -118 -103t-177 -39q-187 0 -313.5 139t-126.5 359t127 361t313 141q98 0 179 -40t118 -106h8zM811 457v114q0 75 -63 131t-154 56q-98 0 -160.5 -67.5t-62.5 -176.5q0 -108 62.5 -175t160.5 -67q90 0 153.5 55.5t63.5 129.5z" />
    <glyph glyph-name="Gdotaccent" unicode="&#x120;" horiz-adv-x="1583" 
d="M815 1559q-79 0 -134.5 52.5t-55.5 133.5t55.5 133.5t134.5 52.5t135 -53t56 -133t-56 -133t-135 -53zM836 793h637v-793h-228l-16 170h-8q-72 -95 -187.5 -145t-255.5 -50q-145 0 -273.5 54t-221.5 149.5t-147 234.5t-54 302q0 218 94 387.5t261 262.5t378 93
q239 0 413 -118.5t234 -319.5l-303 -86q-35 117 -127 181.5t-223 64.5q-183 0 -298.5 -127.5t-115.5 -337.5q0 -211 116.5 -336t303.5 -125q147 0 248.5 77.5t130.5 209.5h-358v252z" />
    <glyph glyph-name="gdotaccent" unicode="&#x121;" horiz-adv-x="1226" 
d="M618 1126q-76 0 -128 50.5t-52 126.5t52 126t128 50t128.5 -50t52.5 -126t-52.5 -126.5t-128.5 -50.5zM836 991h262v-973q0 -236 -139.5 -368.5t-378.5 -132.5q-193 0 -325.5 89.5t-170.5 256.5l268 71q58 -165 234 -165q110 0 172.5 65.5t62.5 183.5v140h-6
q-37 -64 -118 -103t-177 -39q-187 0 -313.5 139t-126.5 359t127 361t313 141q98 0 179 -40t118 -106h8zM811 457v114q0 75 -63 131t-154 56q-98 0 -160.5 -67.5t-62.5 -176.5q0 -108 62.5 -175t160.5 -67q90 0 153.5 55.5t63.5 129.5z" />
    <glyph glyph-name="uni0122" unicode="&#x122;" horiz-adv-x="1583" 
d="M836 793h637v-793h-228l-16 170h-8q-72 -95 -187.5 -145t-255.5 -50q-145 0 -273.5 54t-221.5 149.5t-147 234.5t-54 302q0 218 94 387.5t261 262.5t378 93q239 0 413 -118.5t234 -319.5l-303 -86q-35 117 -127 181.5t-223 64.5q-183 0 -298.5 -127.5t-115.5 -337.5
q0 -211 116.5 -336t303.5 -125q147 0 248.5 77.5t130.5 209.5h-358v252zM809 -133q84 0 134.5 -61t49.5 -160q-3 -109 -69 -211h-156q36 53 55 119h-18q-74 0 -120 44.5t-46 110.5q0 65 48.5 111.5t121.5 46.5z" />
    <glyph glyph-name="uni0123" unicode="&#x123;" horiz-adv-x="1226" 
d="M625 1124q-84 0 -135 61.5t-50 160.5q3 106 70 210h156q-38 -56 -56 -118h19q74 0 120 -45t46 -111q0 -65 -48.5 -111.5t-121.5 -46.5zM836 991h262v-973q0 -236 -139.5 -368.5t-378.5 -132.5q-193 0 -325.5 89.5t-170.5 256.5l268 71q58 -165 234 -165q110 0 172.5 65.5
t62.5 183.5v140h-6q-37 -64 -118 -103t-177 -39q-187 0 -313.5 139t-126.5 359t127 361t313 141q98 0 179 -40t118 -106h8zM811 457v114q0 75 -63 131t-154 56q-98 0 -160.5 -67.5t-62.5 -176.5q0 -108 62.5 -175t160.5 -67q90 0 153.5 55.5t63.5 129.5z" />
    <glyph glyph-name="Hcircumflex" unicode="&#x124;" horiz-adv-x="1452" 
d="M725 1718l-129 -157h-270l254 327h290l254 -327h-270zM991 1434h303v-1434h-303v524h-530v-524h-303v1434h303v-627h530v627z" />
    <glyph glyph-name="hcircumflex" unicode="&#x125;" horiz-adv-x="1171" 
d="M272 1718l-129 -157h-270l254 327h291l254 -327h-271zM717 1016q157 0 245.5 -104t88.5 -296v-616h-287v537q0 114 -40.5 164.5t-121.5 50.5q-87 0 -136.5 -56t-49.5 -166v-530h-287v1434h287v-555h6q108 137 295 137z" />
    <glyph glyph-name="Hbar" unicode="&#x126;" horiz-adv-x="1513" 
d="M1497 1217v-207h-172v-1010h-303v524h-530v-524h-304v1010h-174v207h174v217h304v-217h530v217h303v-217h172zM1022 807v203h-530v-203h530z" />
    <glyph glyph-name="hbar" unicode="&#x127;" horiz-adv-x="1171" 
d="M717 1016q157 0 245.5 -104t88.5 -296v-616h-287v537q0 114 -40.5 164.5t-121.5 50.5q-87 0 -136.5 -56t-49.5 -166v-530h-287v1108h-170v190h170v136h287v-136h256v-190h-256v-229h6q108 137 295 137z" />
    <glyph glyph-name="Itilde" unicode="&#x128;" horiz-adv-x="618" 
d="M465 1552q-83 0 -180 82q-57 49 -88 49q-52 0 -52 -120h-198q0 164 54.5 248.5t154.5 84.5q85 0 178 -81q60 -50 88 -50q53 0 53 123h197q0 -164 -54 -250t-153 -86zM158 0v1434h303v-1434h-303z" />
    <glyph glyph-name="itilde" unicode="&#x129;" horiz-adv-x="544" 
d="M414 1120q-40 0 -78 17t-88 59q-52 47 -78 47q-47 0 -47 -115h-174q-3 154 44.5 235t135.5 81q77 0 168 -76q52 -47 76 -47q47 0 47 115h174q4 -153 -43.5 -234.5t-136.5 -81.5zM129 0v991h287v-991h-287z" />
    <glyph glyph-name="Imacron" unicode="&#x12a;" horiz-adv-x="618" 
d="M-2 1604v225h623v-225h-623zM158 0v1434h303v-1434h-303z" />
    <glyph glyph-name="imacron" unicode="&#x12b;" horiz-adv-x="544" 
d="M0 1167v213h545v-213h-545zM129 0v991h287v-991h-287z" />
    <glyph glyph-name="Ibreve" unicode="&#x12c;" horiz-adv-x="618" 
d="M309 1556q-155 0 -243.5 83.5t-88.5 224.5v22h226q0 -147 106 -147q107 0 107 147h225v-22q0 -141 -88.5 -224.5t-243.5 -83.5zM158 0v1434h303v-1434h-303z" />
    <glyph glyph-name="ibreve" unicode="&#x12d;" horiz-adv-x="544" 
d="M272 1124q-140 0 -214 77t-74 212v21h194q0 -69 25.5 -103.5t68.5 -34.5t68 34.5t25 103.5h196v-21q0 -135 -74.5 -212t-214.5 -77zM129 0v991h287v-991h-287z" />
    <glyph glyph-name="Iogonek" unicode="&#x12e;" horiz-adv-x="618" 
d="M461 0q-125 -102 -125 -172q0 -64 67 -64q21 0 58 11v-211q-53 -15 -111 -15q-113 0 -179.5 56.5t-66.5 152.5q0 72 39 135.5t111 106.5h-96v1434h303v-1434z" />
    <glyph glyph-name="iogonek" unicode="&#x12f;" horiz-adv-x="544" 
d="M272 1126q-76 0 -128 50.5t-52 126.5t52 126t128 50t128.5 -50t52.5 -126t-52.5 -126.5t-128.5 -50.5zM129 0v991h287v-991q-125 -102 -125 -172q0 -64 67 -64q21 0 58 11v-211q-52 -15 -111 -15q-113 0 -179.5 56.5t-66.5 152.5q0 72 39 135.5t111 106.5h-80z" />
    <glyph glyph-name="Idotaccent" unicode="&#x130;" horiz-adv-x="618" 
d="M309 1559q-79 0 -134.5 52.5t-55.5 133.5t55.5 133.5t134.5 52.5t135 -53t56 -133t-56 -133t-135 -53zM158 0v1434h303v-1434h-303z" />
    <glyph glyph-name="dotlessi" unicode="&#x131;" horiz-adv-x="544" 
d="M129 0v991h287v-991h-287z" />
    <glyph glyph-name="Jcircumflex" unicode="&#x134;" horiz-adv-x="1210" 
d="M657 1718l-129 -157h-270l254 327h291l254 -327h-271zM211 1434h860v-934q0 -259 -131.5 -392t-378.5 -133q-222 0 -352.5 106.5t-155.5 309.5l295 68q24 -108 77 -155.5t136 -47.5q100 0 153.5 64t53.5 194v637h-557v283z" />
    <glyph glyph-name="jcircumflex" unicode="&#x135;" horiz-adv-x="544" 
d="M272 1264l-98 -138h-242l220 312h239l219 -312h-239zM129 -90v1081h287v-1108q0 -195 -81 -280.5t-261 -85.5q-65 0 -127 12v248q32 -4 57 -4q67 0 96 31t29 106z" />
    <glyph glyph-name="uni0136" unicode="&#x136;" horiz-adv-x="1353" 
d="M756 725l587 -725h-376l-500 618h-6v-618h-303v1434h303v-625h6l510 625h356zM698 -133q84 0 135 -61t50 -160q-3 -107 -70 -211h-156q37 55 56 119h-19q-74 0 -120 44.5t-46 110.5q0 65 48.5 111.5t121.5 46.5z" />
    <glyph glyph-name="uni0137" unicode="&#x137;" horiz-adv-x="1118" 
d="M684 522l428 -522h-352l-338 416h-6v-416h-287v1434h287v-820h8l328 377h346zM569 -133q84 0 135 -61t50 -160q-3 -112 -70 -211h-154q34 50 54 119h-17q-75 0 -121.5 44.5t-46.5 110.5q0 65 48.5 111.5t121.5 46.5z" />
    <glyph glyph-name="Lacute" unicode="&#x139;" horiz-adv-x="1087" 
d="M637 1888l-236 -327h-274l164 327h346zM461 283h569v-283h-872v1434h303v-1151z" />
    <glyph glyph-name="lacute" unicode="&#x13a;" horiz-adv-x="544" 
d="M90 1561l164 327h346l-235 -327h-275zM129 0v1434h287v-1434h-287z" />
    <glyph glyph-name="uni013B" unicode="&#x13b;" horiz-adv-x="1087" 
d="M461 283h569v-283h-872v1434h303v-1151zM606 -133q84 0 135 -61t50 -160q-3 -107 -70 -211h-156q37 55 56 119h-19q-74 0 -120 44.5t-46 110.5q0 65 48.5 111.5t121.5 46.5z" />
    <glyph glyph-name="uni013C" unicode="&#x13c;" horiz-adv-x="544" 
d="M416 1434v-1434h-287v1434h287zM264 -133q84 0 135 -61t50 -160q-3 -107 -70 -211h-156q37 55 56 119h-19q-74 0 -120 44.5t-46 110.5q0 65 48.5 111.5t121.5 46.5z" />
    <glyph glyph-name="Lcaron" unicode="&#x13d;" horiz-adv-x="1087" 
d="M756 1143q-69 0 -113.5 42.5t-44.5 108.5q0 70 47 117t117 47q78 0 126.5 -61t47.5 -158q-1 -98 -59 -192.5t-166 -176.5l-78 86q114 102 141 187h-18zM461 283h569v-283h-872v1434h303v-1151z" />
    <glyph glyph-name="lcaron" unicode="&#x13e;" horiz-adv-x="765" 
d="M680 1458q78 0 127.5 -61.5t48.5 -157.5q-3 -98 -61.5 -192.5t-165.5 -176.5l-78 86q114 102 141 187h-16q-69 0 -114.5 42.5t-45.5 108.5q0 70 47.5 117t116.5 47zM129 0v1434h287v-1434h-287z" />
    <glyph glyph-name="Ldot" unicode="&#x13f;" horiz-adv-x="1128" 
d="M461 283h569v-283h-872v1434h303v-1151zM797 473q-77 0 -128 51t-51 127q0 78 51 129t128 51q78 0 128 -51t50 -129q0 -77 -50 -127.5t-128 -50.5z" />
    <glyph glyph-name="ldot" unicode="&#x140;" horiz-adv-x="968" 
d="M129 0v1434h287v-1434h-287zM745 367q-83 0 -136.5 53.5t-53.5 136.5q0 85 53.5 139t136.5 54q85 0 139 -54t54 -139q0 -83 -54 -136.5t-139 -53.5z" />
    <glyph glyph-name="Lslash" unicode="&#x141;" horiz-adv-x="1142" 
d="M516 283h569v-283h-872v446l-217 -157v258l217 158v729h303v-512l334 241v-258l-334 -241v-381z" />
    <glyph glyph-name="lslash" unicode="&#x142;" horiz-adv-x="739" 
d="M709 1051v-258l-195 -142v-651h-287v444l-196 -141v258l196 141v732h287v-525z" />
    <glyph glyph-name="Nacute" unicode="&#x143;" horiz-adv-x="1523" 
d="M1090 1888l-236 -327h-274l163 327h347zM1063 1434h303v-1434h-307l-592 909h-6v-909h-303v1434h307l590 -910h8v910z" />
    <glyph glyph-name="nacute" unicode="&#x144;" horiz-adv-x="1171" 
d="M903 1438l-221 -312h-260l156 312h325zM715 1016q156 0 246 -104t90 -296v-616h-287v537q0 114 -40.5 164.5t-121.5 50.5q-87 0 -136.5 -56t-49.5 -166v-530h-287v991h262l10 -121h9q44 67 126 106.5t179 39.5z" />
    <glyph glyph-name="uni0145" unicode="&#x145;" horiz-adv-x="1523" 
d="M1063 1434h303v-1434h-307l-592 909h-6v-909h-303v1434h307l590 -910h8v910zM754 -133q84 0 134.5 -61t49.5 -160q-3 -107 -70 -211h-155q36 53 55 119h-18q-74 0 -120 44.5t-46 110.5q0 65 48.5 111.5t121.5 46.5z" />
    <glyph glyph-name="uni0146" unicode="&#x146;" horiz-adv-x="1171" 
d="M715 1016q156 0 246 -104t90 -296v-616h-287v537q0 114 -40.5 164.5t-121.5 50.5q-87 0 -136.5 -56t-49.5 -166v-530h-287v991h262l10 -121h9q44 67 126 106.5t179 39.5zM580 -133q84 0 134.5 -61t49.5 -160q-3 -107 -70 -211h-155q36 53 55 119h-19q-74 0 -119.5 44.5
t-45.5 110.5q0 65 48.5 111.5t121.5 46.5z" />
    <glyph glyph-name="Ncaron" unicode="&#x147;" horiz-adv-x="1523" 
d="M907 1561h-291l-254 327h271l129 -157l129 157h270zM1063 1434h303v-1434h-307l-592 909h-6v-909h-303v1434h307l590 -910h8v910z" />
    <glyph glyph-name="ncaron" unicode="&#x148;" horiz-adv-x="1171" 
d="M729 1126h-278l-240 312h258l121 -150l121 150h258zM715 1016q156 0 246 -104t90 -296v-616h-287v537q0 114 -40.5 164.5t-121.5 50.5q-87 0 -136.5 -56t-49.5 -166v-530h-287v991h262l10 -121h9q44 67 126 106.5t179 39.5z" />
    <glyph glyph-name="Eng" unicode="&#x14a;" horiz-adv-x="1523" 
d="M1063 1434h303v-1457q0 -198 -81 -285t-261 -87q-73 0 -127 14v260q32 -4 59 -4q53 0 78 23.5t25 74.5v27l-592 909h-6v-909h-303v1434h307l590 -910h8v910z" />
    <glyph glyph-name="eng" unicode="&#x14b;" horiz-adv-x="1171" 
d="M715 1016q156 0 246 -104t90 -296v-614q0 -197 -81 -283t-261 -86q-65 0 -127 15v248q40 -5 59 -5q65 0 94 31t29 105v510q0 114 -40.5 164.5t-121.5 50.5q-87 0 -136.5 -56t-49.5 -166v-530h-287v991h262l10 -121h9q44 67 126 106.5t179 39.5z" />
    <glyph glyph-name="Omacron" unicode="&#x14c;" horiz-adv-x="1609" 
d="M494 1604v225h622v-225h-622zM805 -25q-208 0 -373 94.5t-257.5 264t-92.5 383.5q0 160 54 298.5t149.5 235.5t230 152t289.5 55t289.5 -55t230 -152t149.5 -235.5t54 -298.5q0 -214 -92.5 -383.5t-257.5 -264t-373 -94.5zM805 256q182 0 295.5 126.5t113.5 334.5
t-113.5 334.5t-295.5 126.5q-183 0 -296.5 -126.5t-113.5 -334.5t113.5 -334.5t296.5 -126.5z" />
    <glyph glyph-name="omacron" unicode="&#x14d;" horiz-adv-x="1187" 
d="M301 1167v213h586v-213h-586zM594 -25q-228 0 -373 145.5t-145 375.5t145 375t373 145t373 -145t145 -375t-145 -375.5t-373 -145.5zM594 231q101 0 164 72t63 193t-63 191.5t-164 70.5t-164 -70.5t-63 -191.5t63 -193t164 -72z" />
    <glyph glyph-name="Obreve" unicode="&#x14e;" horiz-adv-x="1609" 
d="M805 1556q-155 0 -243.5 83.5t-88.5 224.5v22h225q0 -147 107 -147q106 0 106 147h226v-22q0 -141 -88.5 -224.5t-243.5 -83.5zM805 -25q-208 0 -373 94.5t-257.5 264t-92.5 383.5q0 160 54 298.5t149.5 235.5t230 152t289.5 55t289.5 -55t230 -152t149.5 -235.5
t54 -298.5q0 -214 -92.5 -383.5t-257.5 -264t-373 -94.5zM805 256q182 0 295.5 126.5t113.5 334.5t-113.5 334.5t-295.5 126.5q-183 0 -296.5 -126.5t-113.5 -334.5t113.5 -334.5t296.5 -126.5z" />
    <glyph glyph-name="obreve" unicode="&#x14f;" horiz-adv-x="1187" 
d="M594 1124q-147 0 -230 78t-83 211v21h213q0 -138 100 -138t100 138h213v-21q0 -133 -83 -211t-230 -78zM594 -25q-228 0 -373 145.5t-145 375.5t145 375t373 145t373 -145t145 -375t-145 -375.5t-373 -145.5zM594 231q101 0 164 72t63 193t-63 191.5t-164 70.5
t-164 -70.5t-63 -191.5t63 -193t164 -72z" />
    <glyph glyph-name="Ohungarumlaut" unicode="&#x150;" horiz-adv-x="1609" 
d="M424 1561l143 327h291l-194 -327h-240zM834 1561l145 327h289l-193 -327h-241zM805 -25q-208 0 -373 94.5t-257.5 264t-92.5 383.5q0 160 54 298.5t149.5 235.5t230 152t289.5 55t289.5 -55t230 -152t149.5 -235.5t54 -298.5q0 -214 -92.5 -383.5t-257.5 -264t-373 -94.5
zM805 256q182 0 295.5 126.5t113.5 334.5t-113.5 334.5t-295.5 126.5q-183 0 -296.5 -126.5t-113.5 -334.5t113.5 -334.5t296.5 -126.5z" />
    <glyph glyph-name="ohungarumlaut" unicode="&#x151;" horiz-adv-x="1187" 
d="M236 1126l137 312h272l-182 -312h-227zM623 1126l137 312h274l-184 -312h-227zM594 -25q-228 0 -373 145.5t-145 375.5t145 375t373 145t373 -145t145 -375t-145 -375.5t-373 -145.5zM594 231q101 0 164 72t63 193t-63 191.5t-164 70.5t-164 -70.5t-63 -191.5t63 -193
t164 -72z" />
    <glyph glyph-name="OE" unicode="&#x152;" horiz-adv-x="1955" 
d="M1847 1155h-596v-348h531v-270h-531v-258h596v-279h-1001q-348 0 -555 192.5t-207 524.5q0 334 206 525.5t556 191.5h1001v-279zM831 283h117v868h-117q-203 0 -318.5 -113.5t-115.5 -320.5t115.5 -320.5t318.5 -113.5z" />
    <glyph glyph-name="oe" unicode="&#x153;" horiz-adv-x="1900" 
d="M1825 524q0 -42 -6 -98h-713q17 -104 79 -157.5t156 -53.5q145 0 203 115l262 -60q-47 -137 -172 -216t-295 -79q-236 0 -370 156h-8q-137 -156 -367 -156q-228 0 -373 145.5t-145 375.5t145 375t373 145q236 0 371 -160h8q132 160 366 160q215 0 350.5 -134t135.5 -358z
M1339 780q-82 0 -140.5 -42.5t-82.5 -125.5h424q-17 86 -69.5 127t-131.5 41zM594 231q100 0 163.5 73t63.5 192t-63 190.5t-164 71.5t-164 -71.5t-63 -190.5t63.5 -192t163.5 -73z" />
    <glyph glyph-name="Racute" unicode="&#x154;" horiz-adv-x="1331" 
d="M942 1888l-235 -327h-275l164 327h346zM1239 0h-352l-250 350h-176v-350h-303v1434h463q294 0 450 -140.5t156 -400.5q0 -357 -285 -483zM461 1153v-522h160q149 0 220.5 64t71.5 198q0 132 -71.5 196t-220.5 64h-160z" />
    <glyph glyph-name="racute" unicode="&#x155;" horiz-adv-x="813" 
d="M752 1438l-222 -312h-260l156 312h326zM680 1010q52 0 90 -15v-270q-46 6 -86 6q-135 0 -201.5 -70.5t-66.5 -216.5v-444h-287v991h260l14 -149h9q35 79 106.5 123.5t161.5 44.5z" />
    <glyph glyph-name="uni0156" unicode="&#x156;" horiz-adv-x="1331" 
d="M942 410l297 -410h-352l-250 350h-176v-350h-303v1434h463q294 0 450 -140.5t156 -400.5q0 -357 -285 -483zM461 1153v-522h160q149 0 220.5 64t71.5 198q0 132 -71.5 196t-220.5 64h-160zM662 -133q84 0 134.5 -61t49.5 -160q-3 -107 -70 -211h-155q36 53 55 119h-19
q-74 0 -119.5 44.5t-45.5 110.5q0 65 48.5 111.5t121.5 46.5z" />
    <glyph glyph-name="uni0157" unicode="&#x157;" horiz-adv-x="813" 
d="M680 1010q52 0 90 -15v-270q-46 6 -86 6q-135 0 -201.5 -70.5t-66.5 -216.5v-444h-287v991h260l14 -149h9q35 79 106.5 123.5t161.5 44.5zM264 -133q84 0 135 -61t50 -160q-3 -107 -70 -211h-156q37 55 56 119h-19q-74 0 -120 44.5t-46 110.5q0 65 48.5 111.5t121.5 46.5
z" />
    <glyph glyph-name="Rcaron" unicode="&#x158;" horiz-adv-x="1331" 
d="M760 1561h-291l-254 327h270l129 -157l129 157h271zM1239 0h-352l-250 350h-176v-350h-303v1434h463q294 0 450 -140.5t156 -400.5q0 -357 -285 -483zM461 1153v-522h160q149 0 220.5 64t71.5 198q0 132 -71.5 196t-220.5 64h-160z" />
    <glyph glyph-name="rcaron" unicode="&#x159;" horiz-adv-x="813" 
d="M557 1126h-240l-219 312h242l98 -138l99 138h239zM412 842q35 79 106.5 123.5t161.5 44.5q52 0 90 -15v-270q-46 6 -86 6q-135 0 -201.5 -70.5t-66.5 -216.5v-444h-287v991h260l14 -149h9z" />
    <glyph glyph-name="Sacute" unicode="&#x15a;" horiz-adv-x="1208" 
d="M416 1561l164 327h346l-236 -327h-274zM616 -25q-222 0 -373 113.5t-182 302.5l289 70q67 -215 275 -215q100 0 159.5 47.5t59.5 124.5q0 65 -50 104.5t-173 65.5l-148 30q-393 85 -393 400q0 195 143 317.5t377 122.5q212 0 352.5 -103.5t175.5 -287.5l-288 -72
q-43 193 -248 193q-97 0 -154 -44.5t-57 -115.5q0 -60 50 -95.5t181 -64.5l146 -30q201 -44 295 -142t94 -254q0 -207 -146.5 -337t-384.5 -130z" />
    <glyph glyph-name="sacute" unicode="&#x15b;" horiz-adv-x="960" 
d="M313 1126l156 312h326l-222 -312h-260zM489 -25q-173 0 -288.5 77.5t-137.5 207.5l256 62q15 -58 64.5 -91.5t116.5 -33.5q61 0 96 25t35 65q0 70 -137 96l-121 25q-154 29 -228.5 99.5t-74.5 186.5q0 142 110.5 232t302.5 90q167 0 273.5 -71t134.5 -197l-256 -64
q-14 53 -57.5 83t-106.5 30q-59 0 -93 -24t-34 -62q0 -30 29.5 -50t111.5 -36l121 -25q155 -28 227 -100.5t72 -186.5q0 -150 -111.5 -244t-304.5 -94z" />
    <glyph glyph-name="Scircumflex" unicode="&#x15c;" horiz-adv-x="1208" 
d="M598 1718l-129 -157h-270l254 327h290l254 -327h-270zM758 838q201 -44 295 -142t94 -254q0 -207 -146.5 -337t-384.5 -130q-222 0 -373 113.5t-182 302.5l289 70q67 -215 275 -215q100 0 159.5 47.5t59.5 124.5q0 65 -50 104.5t-173 65.5l-148 30q-393 85 -393 400
q0 195 143 317.5t377 122.5q212 0 352.5 -103.5t175.5 -287.5l-288 -72q-43 193 -248 193q-97 0 -154 -44.5t-57 -115.5q0 -60 50 -95.5t181 -64.5z" />
    <glyph glyph-name="scircumflex" unicode="&#x15d;" horiz-adv-x="960" 
d="M481 1276l-121 -150h-258l240 312h279l239 -312h-258zM606 600q155 -28 227 -100.5t72 -186.5q0 -150 -111.5 -244t-304.5 -94q-173 0 -288.5 77.5t-137.5 207.5l256 62q15 -58 64.5 -91.5t116.5 -33.5q61 0 96 25t35 65q0 70 -137 96l-121 25q-154 29 -228.5 99.5
t-74.5 186.5q0 142 110.5 232t302.5 90q167 0 273.5 -71t134.5 -197l-256 -64q-14 53 -57.5 83t-106.5 30q-59 0 -93 -24t-34 -62q0 -30 29.5 -50t111.5 -36z" />
    <glyph glyph-name="Scedilla" unicode="&#x15e;" horiz-adv-x="1208" 
d="M1147 442q0 -191 -125.5 -317t-335.5 -145l-2 -72q86 -13 133 -60.5t47 -121.5q0 -94 -74.5 -149.5t-207.5 -55.5q-56 0 -109 12v162q27 -4 72 -4q94 0 94 49q0 24 -31.5 35.5t-120.5 11.5l19 197q-181 26 -300 134.5t-145 272.5l289 70q67 -215 275 -215
q100 0 159.5 47.5t59.5 124.5q0 65 -50 104.5t-173 65.5l-148 30q-393 85 -393 400q0 195 143 317.5t377 122.5q212 0 352.5 -103.5t175.5 -287.5l-288 -72q-43 193 -248 193q-97 0 -154 -44.5t-57 -115.5q0 -60 50 -95.5t181 -64.5l146 -30q201 -44 295 -142t94 -254z" />
    <glyph glyph-name="scedilla" unicode="&#x15f;" horiz-adv-x="960" 
d="M905 313q0 -136 -93.5 -227t-256.5 -106v-72q86 -13 132 -60.5t46 -121.5q0 -94 -74 -149.5t-208 -55.5q-57 0 -109 12v162q27 -4 72 -4q52 0 73 12t21 37q0 24 -31.5 35.5t-120.5 11.5l19 199q-128 23 -210.5 95t-101.5 179l256 62q15 -58 64.5 -91.5t116.5 -33.5
q61 0 96 25t35 65q0 70 -137 96l-121 25q-154 29 -228.5 99.5t-74.5 186.5q0 142 110.5 232t302.5 90q167 0 273.5 -71t134.5 -197l-256 -64q-14 53 -57.5 83t-106.5 30q-59 0 -93 -24t-34 -62q0 -30 29.5 -50t111.5 -36l121 -25q155 -28 227 -100.5t72 -186.5z" />
    <glyph glyph-name="Scaron" unicode="&#x160;" horiz-adv-x="1208" 
d="M743 1561h-290l-254 327h270l129 -157l129 157h270zM758 838q201 -44 295 -142t94 -254q0 -207 -146.5 -337t-384.5 -130q-222 0 -373 113.5t-182 302.5l289 70q67 -215 275 -215q100 0 159.5 47.5t59.5 124.5q0 65 -50 104.5t-173 65.5l-148 30q-393 85 -393 400
q0 195 143 317.5t377 122.5q212 0 352.5 -103.5t175.5 -287.5l-288 -72q-43 193 -248 193q-97 0 -154 -44.5t-57 -115.5q0 -60 50 -95.5t181 -64.5z" />
    <glyph glyph-name="scaron" unicode="&#x161;" horiz-adv-x="960" 
d="M621 1126h-279l-240 312h258l121 -150l121 150h258zM606 600q155 -28 227 -100.5t72 -186.5q0 -150 -111.5 -244t-304.5 -94q-173 0 -288.5 77.5t-137.5 207.5l256 62q15 -58 64.5 -91.5t116.5 -33.5q61 0 96 25t35 65q0 70 -137 96l-121 25q-154 29 -228.5 99.5
t-74.5 186.5q0 142 110.5 232t302.5 90q167 0 273.5 -71t134.5 -197l-256 -64q-14 53 -57.5 83t-106.5 30q-59 0 -93 -24t-34 -62q0 -30 29.5 -50t111.5 -36z" />
    <glyph glyph-name="uni0162" unicode="&#x162;" horiz-adv-x="1161" 
d="M37 1434h1087v-283h-393v-1151h-303v1151h-391v283zM573 -133q84 0 135 -61t50 -160q-3 -107 -70 -211h-156q37 55 56 119h-19q-74 0 -120 44.5t-46 110.5q0 65 48.5 111.5t121.5 46.5z" />
    <glyph glyph-name="uni0163" unicode="&#x163;" horiz-adv-x="788" 
d="M637 229q41 0 88 7v-242q-78 -19 -158 -19q-195 0 -289 94t-94 298v372h-153v252h153v236h287v-236h248v-252h-248v-350q0 -90 36.5 -125t129.5 -35zM483 -133q84 0 135 -61t50 -160q-3 -107 -70 -211h-156q37 55 56 119h-19q-74 0 -120 44.5t-46 110.5q0 65 48.5 111.5
t121.5 46.5z" />
    <glyph glyph-name="Tcaron" unicode="&#x164;" horiz-adv-x="1161" 
d="M725 1561h-291l-254 327h271l129 -157l129 157h270zM1124 1434v-283h-393v-1151h-303v1151h-391v283h1087z" />
    <glyph glyph-name="tcaron" unicode="&#x165;" horiz-adv-x="788" 
d="M686 1661q78 0 126.5 -61t47.5 -158q-1 -98 -59 -192.5t-166 -176.5l-78 86q114 102 141 187h-18q-69 0 -113.5 42.5t-44.5 108.5q0 71 47 117.5t117 46.5zM471 389q0 -90 36.5 -125t129.5 -35q41 0 88 7v-242q-78 -19 -158 -19q-195 0 -289 94t-94 298v372h-153v252h153
v236h287v-236h248v-252h-248v-350z" />
    <glyph glyph-name="Tbar" unicode="&#x166;" horiz-adv-x="1161" 
d="M1124 1151h-393v-395h227v-226h-227v-530h-303v530h-227v226h227v395h-391v283h1087v-283z" />
    <glyph glyph-name="tbar" unicode="&#x167;" horiz-adv-x="813" 
d="M649 229q41 0 88 7v-242q-78 -19 -157 -19q-195 0 -289 94t-94 298v57h-154v170h154v145h-154v252h154v236h286v-236h248v-252h-248v-145h248v-170h-248v-35q0 -90 36.5 -125t129.5 -35z" />
    <glyph glyph-name="Utilde" unicode="&#x168;" horiz-adv-x="1413" 
d="M862 1552q-83 0 -180 82q-57 49 -88 49q-51 0 -51 -120h-199q0 164 54.5 248.5t154.5 84.5q85 0 178 -81q60 -50 88 -50q53 0 53 123h197q0 -164 -54 -250t-153 -86zM707 -25q-264 0 -416 156t-152 430v873h301v-856q0 -156 71.5 -237t195.5 -81q123 0 193.5 81t70.5 237
v856h303v-873q0 -274 -152.5 -430t-414.5 -156z" />
    <glyph glyph-name="utilde" unicode="&#x169;" horiz-adv-x="1161" 
d="M477 1243q-51 0 -51 -115h-186q0 155 50.5 235.5t145.5 80.5q79 0 170 -76q52 -47 82 -47q49 0 49 115h187q0 -154 -51 -235t-144 -81q-79 0 -170 76q-55 47 -82 47zM745 991h287v-991h-260l-12 121h-6q-46 -67 -127.5 -106.5t-175.5 -39.5q-151 0 -240.5 104t-89.5 296
v616h287v-536q0 -114 39 -164.5t116 -50.5q86 0 134 55.5t48 165.5v530z" />
    <glyph glyph-name="Umacron" unicode="&#x16a;" horiz-adv-x="1413" 
d="M395 1604v225h623v-225h-623zM707 -25q-264 0 -416 156t-152 430v873h301v-856q0 -156 71.5 -237t195.5 -81q123 0 193.5 81t70.5 237v856h303v-873q0 -274 -152.5 -430t-414.5 -156z" />
    <glyph glyph-name="umacron" unicode="&#x16b;" horiz-adv-x="1161" 
d="M874 1380v-213h-585v213h585zM745 991h287v-991h-260l-12 121h-6q-46 -67 -127.5 -106.5t-175.5 -39.5q-151 0 -240.5 104t-89.5 296v616h287v-536q0 -114 39 -164.5t116 -50.5q86 0 134 55.5t48 165.5v530z" />
    <glyph glyph-name="Ubreve" unicode="&#x16c;" horiz-adv-x="1413" 
d="M707 1556q-155 0 -243.5 83.5t-88.5 224.5v22h225q0 -147 107 -147q106 0 106 147h225v-22q0 -141 -88 -224.5t-243 -83.5zM707 -25q-264 0 -416 156t-152 430v873h301v-856q0 -156 71.5 -237t195.5 -81q123 0 193.5 81t70.5 237v856h303v-873q0 -274 -152.5 -430
t-414.5 -156z" />
    <glyph glyph-name="ubreve" unicode="&#x16d;" horiz-adv-x="1161" 
d="M582 1124q-147 0 -230.5 78t-83.5 211v21h213q0 -138 101 -138q100 0 100 138h213v-21q0 -133 -83 -211t-230 -78zM745 991h287v-991h-260l-12 121h-6q-46 -67 -127.5 -106.5t-175.5 -39.5q-151 0 -240.5 104t-89.5 296v616h287v-536q0 -114 39 -164.5t116 -50.5
q86 0 134 55.5t48 165.5v530z" />
    <glyph glyph-name="Uring" unicode="&#x16e;" horiz-adv-x="1413" 
d="M707 1536q-113 0 -188 69.5t-75 172.5t74.5 172t188.5 69q113 0 187.5 -69t74.5 -172t-74.5 -172.5t-187.5 -69.5zM707 1698q38 0 59.5 22t21.5 58t-21.5 58t-59.5 22t-60 -22t-22 -58t22 -58t60 -22zM707 -25q-264 0 -416 156t-152 430v873h301v-856q0 -156 71.5 -237
t195.5 -81q123 0 193.5 81t70.5 237v856h303v-873q0 -274 -152.5 -430t-414.5 -156z" />
    <glyph glyph-name="uring" unicode="&#x16f;" horiz-adv-x="1161" 
d="M582 1106q-107 0 -177.5 66t-70.5 163t70.5 163.5t177.5 66.5q106 0 176.5 -66.5t70.5 -163.5t-70 -163t-177 -66zM582 1411q-35 0 -56.5 -21t-21.5 -55t21.5 -54.5t56.5 -20.5t56 20.5t21 54.5t-21 55t-56 21zM745 991h287v-991h-260l-12 121h-6q-46 -67 -127.5 -106.5
t-175.5 -39.5q-151 0 -240.5 104t-89.5 296v616h287v-536q0 -114 39 -164.5t116 -50.5q86 0 134 55.5t48 165.5v530z" />
    <glyph glyph-name="Uhungarumlaut" unicode="&#x170;" horiz-adv-x="1413" 
d="M324 1561l143 327h291l-195 -327h-239zM733 1561l146 327h288l-192 -327h-242zM707 -25q-264 0 -416 156t-152 430v873h301v-856q0 -156 71.5 -237t195.5 -81q123 0 193.5 81t70.5 237v856h303v-873q0 -274 -152.5 -430t-414.5 -156z" />
    <glyph glyph-name="uhungarumlaut" unicode="&#x171;" horiz-adv-x="1161" 
d="M633 1438l-182 -312h-228l137 312h273zM838 1126h-228l138 312h274zM745 991h287v-991h-260l-12 121h-6q-46 -67 -127.5 -106.5t-175.5 -39.5q-151 0 -240.5 104t-89.5 296v616h287v-536q0 -114 39 -164.5t116 -50.5q86 0 134 55.5t48 165.5v530z" />
    <glyph glyph-name="Uogonek" unicode="&#x172;" horiz-adv-x="1413" 
d="M971 1434h303v-873q0 -216 -98 -361t-273 -198q-84 -57 -117.5 -100t-33.5 -82q0 -68 86 -68q34 0 65 10v-223q-56 -16 -123 -16q-126 0 -200 61.5t-74 165.5q0 142 123 230q-229 23 -359.5 176t-130.5 405v873h301v-856q0 -156 71.5 -237t195.5 -81q123 0 193.5 81
t70.5 237v856z" />
    <glyph glyph-name="uogonek" unicode="&#x173;" horiz-adv-x="1161" 
d="M1032 0q-79 -54 -110 -94t-31 -78q0 -64 80 -64q29 0 61 11v-211q-50 -15 -114 -15q-120 0 -190.5 57.5t-70.5 155.5q0 149 148 238h-33l-12 121h-6q-46 -67 -127.5 -106.5t-175.5 -39.5q-151 0 -240.5 104t-89.5 296v616h287v-536q0 -114 39 -164.5t116 -50.5
q86 0 134 55.5t48 165.5v530h287v-991z" />
    <glyph glyph-name="Wcircumflex" unicode="&#x174;" horiz-adv-x="2048" 
d="M1024 1718l-129 -157h-270l254 327h290l254 -327h-270zM1708 1434h315l-407 -1434h-301l-287 973h-8l-285 -973h-303l-405 1434h313l256 -949h6l287 949h270l287 -949h6z" />
    <glyph glyph-name="wcircumflex" unicode="&#x175;" horiz-adv-x="1665" 
d="M834 1276l-121 -150h-258l239 312h279l239 -312h-258zM1341 991h297l-305 -991h-299l-198 627h-7l-198 -627h-301l-303 991h297l170 -612h8l200 612h261l200 -612h8z" />
    <glyph glyph-name="Ycircumflex" unicode="&#x176;" horiz-adv-x="1290" 
d="M645 1718l-129 -157h-270l254 327h291l253 -327h-270zM948 1434h336l-487 -854v-580h-303v580l-488 854h338l299 -549h6z" />
    <glyph glyph-name="ycircumflex" unicode="&#x177;" horiz-adv-x="1077" 
d="M541 1276l-121 -150h-258l239 312h279l240 -312h-258zM756 991h307l-535 -1450h-307l164 449l-369 1001h312l209 -639h8z" />
    <glyph glyph-name="Ydieresis" unicode="&#x178;" horiz-adv-x="1290" 
d="M406 1567q-74 0 -126.5 50.5t-52.5 127.5t53 128.5t126 51.5t124.5 -51.5t51.5 -128.5t-51.5 -127.5t-124.5 -50.5zM885 1567q-73 0 -124.5 50.5t-51.5 127.5t51.5 128.5t124.5 51.5t125.5 -51.5t52.5 -128.5t-52.5 -127.5t-125.5 -50.5zM494 0v580l-488 854h338
l299 -549h6l299 549h336l-487 -854v-580h-303z" />
    <glyph glyph-name="Zacute" unicode="&#x179;" horiz-adv-x="1169" 
d="M909 1888l-235 -327h-275l164 327h346zM463 283h624v-283h-1005v238l608 913h-592v283h973v-238z" />
    <glyph glyph-name="zacute" unicode="&#x17a;" horiz-adv-x="952" 
d="M791 1438l-222 -312h-260l156 312h326zM446 252h437v-252h-813v209l422 530h-414v252h790v-209z" />
    <glyph glyph-name="Zdotaccent" unicode="&#x17b;" horiz-adv-x="1169" 
d="M582 1559q-79 0 -135 53t-56 133t56 133t135 53t134.5 -52.5t55.5 -133.5t-55.5 -133.5t-134.5 -52.5zM463 283h624v-283h-1005v238l608 913h-592v283h973v-238z" />
    <glyph glyph-name="zdotaccent" unicode="&#x17c;" horiz-adv-x="952" 
d="M477 1126q-76 0 -128 50.5t-52 126.5t52 126t128 50t128 -50t52 -126t-52 -126.5t-128 -50.5zM446 252h437v-252h-813v209l422 530h-414v252h790v-209z" />
    <glyph glyph-name="Zcaron" unicode="&#x17d;" horiz-adv-x="1169" 
d="M727 1561h-291l-254 327h271l129 -157l129 157h270zM463 283h624v-283h-1005v238l608 913h-592v283h973v-238z" />
    <glyph glyph-name="zcaron" unicode="&#x17e;" horiz-adv-x="952" 
d="M616 1126h-278l-240 312h258l121 -150l121 150h258zM446 252h437v-252h-813v209l422 530h-414v252h790v-209z" />
    <glyph glyph-name="florin" unicode="&#x192;" horiz-adv-x="970" 
d="M854 1196q-73 0 -109 -31t-51 -112l-32 -170h243v-185h-278l-76 -405q-32 -163 -123.5 -240.5t-243.5 -77.5q-68 0 -139 19v250q37 -6 72 -6q71 0 106.5 31t52.5 112l60 317h-205v185h240l49 258q32 163 123 240t241 77q72 0 140 -18v-250q-35 6 -70 6z" />
    <glyph glyph-name="Ohorn" unicode="&#x1a0;" horiz-adv-x="1609" 
d="M805 -25q-208 0 -373 94.5t-257.5 264t-92.5 383.5q0 160 54 298.5t149.5 235.5t230 152t289.5 55t289.5 -55t230 -152t149.5 -235.5t54 -298.5q0 -214 -92.5 -383.5t-257.5 -264t-373 -94.5zM805 256q182 0 295.5 126.5t113.5 334.5t-113.5 334.5t-295.5 126.5
q-183 0 -296.5 -126.5t-113.5 -334.5t113.5 -334.5t296.5 -126.5zM1288 1561h262q0 -9 -1.5 -23.5t-11.5 -54.5t-26 -74t-50 -70.5t-79 -54.5q-28 -14 -71 -20q-22 19 -48 39.5t-41 31.5l-16 11q45 23 66 53q50 69 16 162z" />
    <glyph glyph-name="ohorn" unicode="&#x1a1;" horiz-adv-x="1187" 
d="M594 -25q-228 0 -373 145.5t-145 375.5t145 375t373 145t373 -145t145 -375t-145 -375.5t-373 -145.5zM594 231q101 0 164 72t63 193t-63 191.5t-164 70.5t-164 -70.5t-63 -191.5t63 -193t164 -72zM977 1081h211q-1 -5 -2.5 -14.5t-8 -37t-14.5 -52t-22.5 -55t-32 -52
t-42.5 -36.5t-54 -15l-13 15l-77 75q29 29 42 68t13 104z" />
    <glyph glyph-name="Uhorn" unicode="&#x1af;" horiz-adv-x="1413" 
d="M707 -25q-264 0 -416 156t-152 430v873h301v-856q0 -156 71.5 -237t195.5 -81q123 0 193.5 81t70.5 237v856h303v-873q0 -274 -152.5 -430t-414.5 -156zM1323 1554h223q1 -6 1.5 -17t-1.5 -42t-9 -60t-25 -65t-44.5 -63t-73 -48t-106.5 -26h-14v135q65 50 49 186z" />
    <glyph glyph-name="uhorn" unicode="&#x1b0;" horiz-adv-x="1255" 
d="M745 991h287v-991h-260l-12 121h-6q-46 -67 -127.5 -106.5t-175.5 -39.5q-151 0 -240.5 104t-89.5 296v616h287v-536q0 -114 39 -164.5t116 -50.5q86 0 134 55.5t48 165.5v530zM1081 1083h205v-17t-3 -43t-8.5 -62t-18.5 -67t-30.5 -64.5t-47 -49t-66.5 -26.5l-80 -6v141
q3 4 11.5 15.5t11 16t8.5 16.5t8 23t5.5 29t4 41.5t0.5 52.5z" />
    <glyph glyph-name="uni01CD" unicode="&#x1cd;" horiz-adv-x="1376" 
d="M834 1561h-291l-254 327h270l129 -157l129 157h270zM1042 0l-77 238h-555l-78 -238h-316l498 1434h348l498 -1434h-318zM496 494h385l-189 571h-8z" />
    <glyph glyph-name="uni01CE" unicode="&#x1ce;" horiz-adv-x="1222" 
d="M758 1126h-279l-239 312h258l120 -150l121 150h258zM831 991h263v-991h-263l-10 121h-8q-37 -66 -117.5 -106t-177.5 -40q-188 0 -315 144.5t-127 376.5t127 376t315 144q97 0 177.5 -40t117.5 -106h8zM807 436v119q0 87 -62 145t-155 58q-99 0 -161 -70t-62 -192
t62 -192.5t161 -70.5q93 0 155 58t62 145z" />
    <glyph glyph-name="uni01E2" unicode="&#x1e2;" horiz-adv-x="2009" 
d="M1626 1829v-225h-622v225h622zM1903 1155h-598v-348h532v-270h-532v-258h598v-279h-902v238h-509l-130 -238h-350l795 1434h1096v-279zM633 494h368v661h-8z" />
    <glyph glyph-name="uni01E3" unicode="&#x1e3;" horiz-adv-x="1787" 
d="M1206 1380v-213h-585v213h585zM1714 524q0 -49 -8 -98h-700q17 -104 77.5 -157.5t151.5 -53.5q66 0 117.5 30.5t77.5 84.5l262 -60q-47 -136 -170.5 -215.5t-286.5 -79.5q-121 0 -221 45t-162 125h-8q-50 -79 -149 -124.5t-232 -45.5q-182 0 -283.5 82t-101.5 217
q0 144 117 230t335 86h211v26q0 164 -168 164q-158 0 -192 -143l-268 49q30 157 151.5 243.5t319.5 86.5q219 0 319 -121h8q124 121 326 121q207 0 342 -134.5t135 -357.5zM1233 780q-77 0 -135 -43t-82 -125h414q-16 85 -69 126.5t-128 41.5zM506 203q105 0 168.5 55
t66.5 145h-182q-190 0 -190 -110q0 -90 137 -90z" />
    <glyph glyph-name="Gcaron" unicode="&#x1e6;" horiz-adv-x="1583" 
d="M961 1561h-291l-254 327h270l129 -157l129 157h270zM836 793h637v-793h-228l-16 170h-8q-72 -95 -187.5 -145t-255.5 -50q-145 0 -273.5 54t-221.5 149.5t-147 234.5t-54 302q0 218 94 387.5t261 262.5t378 93q239 0 413 -118.5t234 -319.5l-303 -86q-35 117 -127 181.5
t-223 64.5q-183 0 -298.5 -127.5t-115.5 -337.5q0 -211 116.5 -336t303.5 -125q147 0 248.5 77.5t130.5 209.5h-358v252z" />
    <glyph glyph-name="gcaron" unicode="&#x1e7;" horiz-adv-x="1226" 
d="M758 1126h-279l-239 312h258l120 -150l121 150h258zM836 991h262v-973q0 -236 -139.5 -368.5t-378.5 -132.5q-193 0 -325.5 89.5t-170.5 256.5l268 71q58 -165 234 -165q110 0 172.5 65.5t62.5 183.5v140h-6q-37 -64 -118 -103t-177 -39q-187 0 -313.5 139t-126.5 359
t127 361t313 141q98 0 179 -40t118 -106h8zM811 457v114q0 75 -63 131t-154 56q-98 0 -160.5 -67.5t-62.5 -176.5q0 -108 62.5 -175t160.5 -67q90 0 153.5 55.5t63.5 129.5z" />
    <glyph glyph-name="uni01E8" unicode="&#x1e8;" horiz-adv-x="1353" 
d="M858 1561h-291l-254 327h271l129 -157l129 157h270zM756 725l587 -725h-376l-500 618h-6v-618h-303v1434h303v-625h6l510 625h356z" />
    <glyph glyph-name="uni01E9" unicode="&#x1e9;" horiz-adv-x="1118" 
d="M410 1569h-277l-239 311h256l122 -149l121 149h256zM1112 0h-352l-338 416h-6v-416h-287v1434h287v-820h8l328 377h346l-414 -469z" />
    <glyph glyph-name="AEacute" unicode="&#x1fc;" horiz-adv-x="2009" 
d="M1642 1888l-235 -327h-274l163 327h346zM1903 1155h-598v-348h532v-270h-532v-258h598v-279h-902v238h-509l-130 -238h-350l795 1434h1096v-279zM633 494h368v661h-8z" />
    <glyph glyph-name="aeacute" unicode="&#x1fd;" horiz-adv-x="1787" 
d="M1227 1438l-221 -312h-261l156 312h326zM1714 524q0 -49 -8 -98h-700q17 -104 77.5 -157.5t151.5 -53.5q66 0 117.5 30.5t77.5 84.5l262 -60q-47 -136 -170.5 -215.5t-286.5 -79.5q-121 0 -221 45t-162 125h-8q-50 -79 -149 -124.5t-232 -45.5q-182 0 -283.5 82
t-101.5 217q0 144 117 230t335 86h211v26q0 164 -168 164q-158 0 -192 -143l-268 49q30 157 151.5 243.5t319.5 86.5q219 0 319 -121h8q124 121 326 121q207 0 342 -134.5t135 -357.5zM1233 780q-77 0 -135 -43t-82 -125h414q-16 85 -69 126.5t-128 41.5zM506 203
q105 0 168.5 55t66.5 145h-182q-190 0 -190 -110q0 -90 137 -90z" />
    <glyph glyph-name="Oslashacute" unicode="&#x1fe;" horiz-adv-x="1630" 
d="M1143 1888l-236 -327h-274l164 327h346zM1567 1300l-152 -151q123 -188 123 -432q0 -214 -92.5 -383.5t-257.5 -264t-373 -94.5q-249 0 -436 138l-148 -148l-165 168l149 152q-123 188 -123 432q0 160 54 298.5t149.5 235.5t230 152t289.5 55q251 0 436 -137l148 147z
M815 1178q-182 0 -295.5 -126.5t-113.5 -334.5q0 -120 38 -213l605 604q-103 70 -234 70zM815 256q183 0 296.5 126.5t113.5 334.5q0 118 -39 213l-604 -604q103 -70 233 -70z" />
    <glyph glyph-name="oslashacute" unicode="&#x1ff;" horiz-adv-x="1200" 
d="M913 1438l-221 -312h-260l156 312h325zM1171 932l-137 -135q86 -128 86 -301q0 -230 -146 -375.5t-374 -145.5q-173 0 -301 86l-135 -135l-133 133l135 136q-84 133 -84 301q0 230 145 375t373 145q173 0 301 -86l137 135zM600 782q-108 0 -177 -79t-69 -207
q0 -63 19 -115l362 362q-61 39 -135 39zM600 209q109 0 178.5 79.5t69.5 207.5q0 63 -19 118l-362 -364q56 -41 133 -41z" />
    <glyph glyph-name="uni0218" unicode="&#x218;" horiz-adv-x="1208" 
d="M758 838q201 -44 295 -142t94 -254q0 -207 -146.5 -337t-384.5 -130q-222 0 -373 113.5t-182 302.5l289 70q67 -215 275 -215q100 0 159.5 47.5t59.5 124.5q0 65 -50 104.5t-173 65.5l-148 30q-393 85 -393 400q0 195 143 317.5t377 122.5q212 0 352.5 -103.5
t175.5 -287.5l-288 -72q-43 193 -248 193q-97 0 -154 -44.5t-57 -115.5q0 -60 50 -95.5t181 -64.5zM588 -133q84 0 134.5 -61t49.5 -160q-3 -107 -70 -211h-155q36 53 55 119h-18q-74 0 -120 44.5t-46 110.5q0 65 48.5 111.5t121.5 46.5z" />
    <glyph glyph-name="uni0219" unicode="&#x219;" horiz-adv-x="960" 
d="M606 600q155 -28 227 -100.5t72 -186.5q0 -150 -111.5 -244t-304.5 -94q-173 0 -288.5 77.5t-137.5 207.5l256 62q15 -58 64.5 -91.5t116.5 -33.5q61 0 96 25t35 65q0 70 -137 96l-121 25q-154 29 -228.5 99.5t-74.5 186.5q0 142 110.5 232t302.5 90q167 0 273.5 -71
t134.5 -197l-256 -64q-14 53 -57.5 83t-106.5 30q-59 0 -93 -24t-34 -62q0 -30 29.5 -50t111.5 -36zM461 -133q84 0 134.5 -61t49.5 -160q-3 -107 -70 -211h-155q36 53 55 119h-18q-74 0 -120 44.5t-46 110.5q0 65 48.5 111.5t121.5 46.5z" />
    <glyph glyph-name="uni021A" unicode="&#x21a;" horiz-adv-x="1161" 
d="M37 1434h1087v-283h-393v-1151h-303v1151h-391v283zM573 -133q84 0 135 -61t50 -160q-3 -107 -70 -211h-156q37 55 56 119h-19q-74 0 -120 44.5t-46 110.5q0 65 48.5 111.5t121.5 46.5z" />
    <glyph glyph-name="uni021B" unicode="&#x21b;" horiz-adv-x="788" 
d="M637 229q41 0 88 7v-242q-78 -19 -158 -19q-195 0 -289 94t-94 298v372h-153v252h153v236h287v-236h248v-252h-248v-350q0 -90 36.5 -125t129.5 -35zM483 -133q84 0 135 -61t50 -160q-3 -107 -70 -211h-156q37 55 56 119h-19q-74 0 -120 44.5t-46 110.5q0 65 48.5 111.5
t121.5 46.5z" />
    <glyph glyph-name="uni0237" unicode="&#x237;" horiz-adv-x="544" 
d="M74 -483q-65 0 -127 12v248q32 -4 57 -4q67 0 96 31t29 106v1081h287v-1108q0 -195 -81 -280.5t-261 -85.5z" />
    <glyph glyph-name="circumflex" unicode="&#x2c6;" horiz-adv-x="1228" 
d="M993 1126h-258l-121 150l-120 -150h-258l239 312h279z" />
    <glyph glyph-name="caron" unicode="&#x2c7;" horiz-adv-x="1228" 
d="M735 1438h258l-239 -312h-279l-239 312h258l120 -150z" />
    <glyph glyph-name="breve" unicode="&#x2d8;" horiz-adv-x="1228" 
d="M614 1124q-147 0 -230 78t-83 211v21h213q0 -138 100 -138q101 0 101 138h213v-21q0 -133 -83.5 -211t-230.5 -78z" />
    <glyph glyph-name="dotaccent" unicode="&#x2d9;" horiz-adv-x="1228" 
d="M614 1126q-76 0 -128 50.5t-52 126.5t52 126t128 50t128.5 -50t52.5 -126t-52.5 -126.5t-128.5 -50.5z" />
    <glyph glyph-name="ring" unicode="&#x2da;" horiz-adv-x="1228" 
d="M614 1106q-107 0 -177 66t-70 163t70.5 163.5t176.5 66.5q107 0 177.5 -66.5t70.5 -163.5t-70.5 -163t-177.5 -66zM614 1260q35 0 56.5 20.5t21.5 54.5t-21.5 55t-56.5 21t-56 -21t-21 -55t21 -54.5t56 -20.5z" />
    <glyph glyph-name="ogonek" unicode="&#x2db;" horiz-adv-x="1228" 
d="M686 -451q-120 0 -190 57.5t-70 155.5q0 99 72 177t207 114l96 -53q-79 -54 -110.5 -94t-31.5 -78q0 -64 80 -64q30 0 62 11v-211q-49 -15 -115 -15z" />
    <glyph glyph-name="tilde" unicode="&#x2dc;" horiz-adv-x="1228" 
d="M762 1120q-79 0 -170 76q-55 47 -82 47q-51 0 -51 -115h-187q0 155 51 235.5t146 80.5q79 0 170 -76q52 -47 82 -47q49 0 49 115h186q0 -154 -50.5 -235t-143.5 -81z" />
    <glyph glyph-name="hungarumlaut" unicode="&#x2dd;" horiz-adv-x="1228" 
d="M276 1126l138 312h272l-182 -312h-228zM664 1126l137 312h274l-184 -312h-227z" />
    <glyph glyph-name="gravecomb" unicode="&#x300;" 
d="M-682 1126l-221 312h325l156 -312h-260z" />
    <glyph glyph-name="acutecomb" unicode="&#x301;" 
d="M-823 1020l155 268h326l-266 -268h-215z" />
    <glyph glyph-name="uni0302" unicode="&#x302;" 
d="M-236 1126h-258l-120 150l-121 -150h-258l239 312h279z" />
    <glyph glyph-name="tildecomb" unicode="&#x303;" 
d="M-467 1120q-79 0 -170 76q-55 47 -82 47q-51 0 -51 -115h-186q0 155 50.5 235.5t145.5 80.5q79 0 170 -76q52 -47 82 -47q49 0 49 115h187q0 -154 -51 -235t-144 -81z" />
    <glyph glyph-name="uni0304" unicode="&#x304;" 
d="M-907 1167v213h585v-213h-585z" />
    <glyph glyph-name="uni0306" unicode="&#x306;" 
d="M-614 1124q-147 0 -230.5 78t-83.5 211v21h213q0 -138 101 -138q100 0 100 138h213v-21q0 -133 -83 -211t-230 -78z" />
    <glyph glyph-name="uni0307" unicode="&#x307;" 
d="M-614 1126q-76 0 -128.5 50.5t-52.5 126.5t52.5 126t128.5 50t128 -50t52 -126t-52 -126.5t-128 -50.5z" />
    <glyph glyph-name="uni0308" unicode="&#x308;" 
d="M-840 1135q-68 0 -116 47.5t-48 120.5q0 74 47.5 120.5t116.5 46.5q72 0 120 -46.5t48 -120.5q0 -73 -48.5 -120.5t-119.5 -47.5zM-391 1135q-70 0 -118 47.5t-48 120.5q0 74 48 120.5t118 46.5t118 -46.5t48 -120.5q0 -73 -48 -120.5t-118 -47.5z" />
    <glyph glyph-name="uni030A" unicode="&#x30a;" 
d="M-614 1106q-107 0 -177.5 66t-70.5 163t70.5 163.5t177.5 66.5q106 0 176.5 -66.5t70.5 -163.5t-70 -163t-177 -66zM-614 1260q35 0 56 20.5t21 54.5t-21 55t-56 21t-56.5 -21t-21.5 -55t21.5 -54.5t56.5 -20.5z" />
    <glyph glyph-name="uni030B" unicode="&#x30b;" 
d="M-952 1126l137 312h272l-182 -312h-227zM-565 1126l137 312h274l-184 -312h-227z" />
    <glyph glyph-name="uni030C" unicode="&#x30c;" 
d="M-494 1438h258l-239 -312h-279l-239 312h258l121 -150z" />
    <glyph glyph-name="uni0315" unicode="&#x315;" 
d="M-618 1458q78 0 126.5 -61t47.5 -158q-1 -98 -59.5 -192.5t-166.5 -176.5l-78 86q115 103 142 187h-19q-69 0 -113 42.5t-44 108.5q0 70 47 117t117 47z" />
    <glyph glyph-name="uni0326" unicode="&#x326;" 
d="M-621 -133q84 0 135 -61t50 -160q-3 -107 -70 -211h-156q37 55 56 119h-19q-74 0 -120 44.5t-46 110.5q0 65 48.5 111.5t121.5 46.5z" />
    <glyph glyph-name="uni0327" unicode="&#x327;" 
d="M-602 -92q86 -13 132 -60.5t46 -121.5q0 -94 -74.5 -149.5t-208.5 -55.5q-55 0 -108 12v162q27 -4 72 -4q52 0 73 12t21 37q0 24 -31.5 35.5t-120.5 11.5l21 213h178v-92z" />
    <glyph glyph-name="uni0328" unicode="&#x328;" 
d="M-543 -451q-120 0 -190 57.5t-70 155.5q0 99 72 177t207 114l96 -53q-79 -54 -110 -94t-31 -78q0 -64 80 -64q29 0 61 11v-211q-49 -15 -115 -15z" />
    <glyph glyph-name="uni03BC" unicode="&#x3bc;" horiz-adv-x="1181" 
d="M768 991h287v-991h-258l-11 102h-8q-64 -127 -205 -127q-88 0 -157 60v-494h-287v1450h287v-547q0 -204 172 -204q85 0 132.5 56.5t47.5 164.5v530z" />
    <glyph glyph-name="pi" unicode="&#x3c0;" horiz-adv-x="1196" 
d="M1102 254h45v-254h-127q-159 0 -234 74.5t-75 234.5v418h-295v-727h-287v991h868v-631q0 -58 24.5 -82t80.5 -24z" />
    <glyph glyph-name="uni1E20" unicode="&#x1e20;" horiz-adv-x="1583" 
d="M1126 1829v-225h-622v225h622zM836 793h637v-793h-228l-16 170h-8q-72 -95 -187.5 -145t-255.5 -50q-145 0 -273.5 54t-221.5 149.5t-147 234.5t-54 302q0 218 94 387.5t261 262.5t378 93q239 0 413 -118.5t234 -319.5l-303 -86q-35 117 -127 181.5t-223 64.5
q-183 0 -298.5 -127.5t-115.5 -337.5q0 -211 116.5 -336t303.5 -125q147 0 248.5 77.5t130.5 209.5h-358v252z" />
    <glyph glyph-name="uni1E21" unicode="&#x1e21;" horiz-adv-x="1226" 
d="M911 1380v-213h-585v213h585zM836 991h262v-973q0 -236 -139.5 -368.5t-378.5 -132.5q-193 0 -325.5 89.5t-170.5 256.5l268 71q58 -165 234 -165q110 0 172.5 65.5t62.5 183.5v140h-6q-37 -64 -118 -103t-177 -39q-187 0 -313.5 139t-126.5 359t127 361t313 141
q98 0 179 -40t118 -106h8zM811 457v114q0 75 -63 131t-154 56q-98 0 -160.5 -67.5t-62.5 -176.5q0 -108 62.5 -175t160.5 -67q90 0 153.5 55.5t63.5 129.5z" />
    <glyph glyph-name="uni1E30" unicode="&#x1e30;" horiz-adv-x="1353" 
d="M1040 1888l-235 -327h-275l164 327h346zM756 725l587 -725h-376l-500 618h-6v-618h-303v1434h303v-625h6l510 625h356z" />
    <glyph glyph-name="uni1E31" unicode="&#x1e31;" horiz-adv-x="1118" 
d="M584 1880l-219 -311h-261l154 311h326zM1112 0h-352l-338 416h-6v-416h-287v1434h287v-820h8l328 377h346l-414 -469z" />
    <glyph glyph-name="uni1E3E" unicode="&#x1e3e;" horiz-adv-x="1884" 
d="M1270 1888l-236 -327h-274l164 327h346zM1405 1434h321v-1434h-294v850h-9l-391 -850h-180l-391 850h-6v-850h-297v1434h321l459 -979h8z" />
    <glyph glyph-name="uni1E3F" unicode="&#x1e3f;" horiz-adv-x="1751" 
d="M1190 1438l-221 -312h-260l155 312h326zM1298 1016q155 0 244.5 -103.5t89.5 -296.5v-616h-286v539q0 213 -150 213q-78 0 -125 -56.5t-47 -165.5v-530h-287v539q0 112 -37 162.5t-110 50.5q-80 0 -127 -57t-47 -165v-530h-287v991h262l10 -121h9q44 67 123 106.5
t169 39.5q183 0 267 -158h8q53 73 138 115.5t183 42.5z" />
    <glyph glyph-name="uni1E40" unicode="&#x1e40;" horiz-adv-x="1884" 
d="M942 1559q-79 0 -134.5 52.5t-55.5 133.5t55.5 133.5t134.5 52.5t135 -53t56 -133t-56 -133t-135 -53zM1405 1434h321v-1434h-294v850h-9l-391 -850h-180l-391 850h-6v-850h-297v1434h321l459 -979h8z" />
    <glyph glyph-name="uni1E41" unicode="&#x1e41;" horiz-adv-x="1751" 
d="M877 1126q-76 0 -128.5 50.5t-52.5 126.5t52.5 126t128.5 50t128 -50t52 -126t-52 -126.5t-128 -50.5zM1298 1016q155 0 244.5 -103.5t89.5 -296.5v-616h-286v539q0 213 -150 213q-78 0 -125 -56.5t-47 -165.5v-530h-287v539q0 112 -37 162.5t-110 50.5q-80 0 -127 -57
t-47 -165v-530h-287v991h262l10 -121h9q44 67 123 106.5t169 39.5q183 0 267 -158h8q53 73 138 115.5t183 42.5z" />
    <glyph glyph-name="uni1E44" unicode="&#x1e44;" horiz-adv-x="1523" 
d="M762 1559q-79 0 -135 53t-56 133t56 133t135 53t134.5 -52.5t55.5 -133.5t-55.5 -133.5t-134.5 -52.5zM1063 1434h303v-1434h-307l-592 909h-6v-909h-303v1434h307l590 -910h8v910z" />
    <glyph glyph-name="uni1E45" unicode="&#x1e45;" horiz-adv-x="1171" 
d="M590 1126q-76 0 -128 50.5t-52 126.5t52 126t128 50t128 -50t52 -126t-52 -126.5t-128 -50.5zM715 1016q156 0 246 -104t90 -296v-616h-287v537q0 114 -40.5 164.5t-121.5 50.5q-87 0 -136.5 -56t-49.5 -166v-530h-287v991h262l10 -121h9q44 67 126 106.5t179 39.5z" />
    <glyph glyph-name="Wgrave" unicode="&#x1e80;" horiz-adv-x="2048" 
d="M918 1561l-234 327h344l166 -327h-276zM432 0l-405 1434h313l256 -949h6l287 949h270l287 -949h6l256 949h315l-407 -1434h-301l-287 973h-8l-285 -973h-303z" />
    <glyph glyph-name="wgrave" unicode="&#x1e81;" horiz-adv-x="1665" 
d="M727 1126l-221 312h325l156 -312h-260zM330 0l-303 991h297l170 -612h8l200 612h261l200 -612h8l170 612h297l-305 -991h-299l-198 627h-7l-198 -627h-301z" />
    <glyph glyph-name="Wacute" unicode="&#x1e82;" horiz-adv-x="2048" 
d="M842 1561l164 327h346l-236 -327h-274zM432 0l-405 1434h313l256 -949h6l287 949h270l287 -949h6l256 949h315l-407 -1434h-301l-287 973h-8l-285 -973h-303z" />
    <glyph glyph-name="wacute" unicode="&#x1e83;" horiz-adv-x="1665" 
d="M666 1126l155 312h326l-221 -312h-260zM330 0l-303 991h297l170 -612h8l200 612h261l200 -612h8l170 612h297l-305 -991h-299l-198 627h-7l-198 -627h-301z" />
    <glyph glyph-name="Wdieresis" unicode="&#x1e84;" horiz-adv-x="2048" 
d="M784 1567q-73 0 -125.5 50.5t-52.5 127.5t52.5 128.5t125.5 51.5t125 -51.5t52 -128.5t-52 -127.5t-125 -50.5zM1264 1567q-73 0 -125 50.5t-52 127.5t52 128.5t125 51.5t125.5 -51.5t52.5 -128.5t-52.5 -127.5t-125.5 -50.5zM432 0l-405 1434h313l256 -949h6l287 949
h270l287 -949h6l256 949h315l-407 -1434h-301l-287 973h-8l-285 -973h-303z" />
    <glyph glyph-name="wdieresis" unicode="&#x1e85;" horiz-adv-x="1665" 
d="M608 1135q-68 0 -116 47.5t-48 120.5q0 74 47.5 120.5t116.5 46.5q72 0 120 -46.5t48 -120.5q0 -73 -48.5 -120.5t-119.5 -47.5zM1057 1135q-70 0 -118 47.5t-48 120.5q0 74 48 120.5t118 46.5t118 -46.5t48 -120.5q0 -73 -48 -120.5t-118 -47.5zM330 0l-303 991h297
l170 -612h8l200 612h261l200 -612h8l170 612h297l-305 -991h-299l-198 627h-7l-198 -627h-301z" />
    <glyph glyph-name="uni1E90" unicode="&#x1e90;" horiz-adv-x="1169" 
d="M582 1718l-129 -157h-271l254 327h291l254 -327h-270zM463 283h624v-283h-1005v238l608 913h-592v283h973v-238z" />
    <glyph glyph-name="uni1E91" unicode="&#x1e91;" horiz-adv-x="952" 
d="M477 1276l-121 -150h-258l240 312h278l240 -312h-258zM446 252h437v-252h-813v209l422 530h-414v252h790v-209z" />
    <glyph glyph-name="Germandbls" unicode="&#x1e9e;" horiz-adv-x="1417" 
d="M1006 778q348 -60 348 -387q0 -197 -125.5 -306.5t-362.5 -109.5q-112 0 -223 25v279q116 -25 197 -25q202 0 202 147q0 77 -63 112.5t-215 35.5h-84v242l244 339q-79 50 -195 50q-289 0 -289 -314v-866h-301v891q0 278 147 422.5t429 144.5q200 0 350.5 -71.5
t234.5 -196.5z" />
    <glyph glyph-name="uni1EA0" unicode="&#x1ea0;" horiz-adv-x="1376" 
d="M1042 0l-77 238h-555l-78 -238h-316l498 1434h348l498 -1434h-318zM496 494h385l-189 571h-8zM688 -387q-65 0 -108 42t-43 107q0 64 43 106t108 42q64 0 108 -42t44 -106q0 -65 -44 -107t-108 -42z" />
    <glyph glyph-name="uni1EA1" unicode="&#x1ea1;" horiz-adv-x="1222" 
d="M831 991h263v-991h-263l-10 121h-8q-37 -66 -117.5 -106t-177.5 -40q-188 0 -315 144.5t-127 376.5t127 376t315 144q97 0 177.5 -40t117.5 -106h8zM807 436v119q0 87 -62 145t-155 58q-99 0 -161 -70t-62 -192t62 -192.5t161 -70.5q93 0 155 58t62 145zM586 -451
q-65 0 -108.5 42.5t-43.5 107.5q0 64 43.5 105.5t108.5 41.5q64 0 107.5 -41.5t43.5 -105.5q0 -65 -43.5 -107.5t-107.5 -42.5z" />
    <glyph glyph-name="uni1EA2" unicode="&#x1ea2;" horiz-adv-x="1376" 
d="M1042 0l-77 238h-555l-78 -238h-316l498 1434h348l498 -1434h-318zM496 494h385l-189 571h-8zM850 1784q3 -114 -102 -248h-130q18 32 31 60t17 40l4 13q-66 6 -108.5 55.5t-37.5 114.5q6 66 55.5 108t114.5 37q65 -6 109 -57.5t47 -122.5z" />
    <glyph glyph-name="uni1EA3" unicode="&#x1ea3;" horiz-adv-x="1222" 
d="M831 991h263v-991h-263l-10 121h-8q-37 -66 -117.5 -106t-177.5 -40q-188 0 -315 144.5t-127 376.5t127 376t315 144q97 0 177.5 -40t117.5 -106h8zM807 436v119q0 87 -62 145t-155 58q-99 0 -161 -70t-62 -192t62 -192.5t161 -70.5q93 0 155 58t62 145zM748 1360
q3 -113 -103 -248h-129q18 32 31 60t17 40l3 13q-66 6 -108 55.5t-37 114.5q6 66 55.5 108t114.5 37q65 -6 109 -57.5t47 -122.5z" />
    <glyph glyph-name="uni1EA4" unicode="&#x1ea4;" horiz-adv-x="1376" 
d="M975 1845l125 281h260l-213 -281h-172zM688 1718l-129 -157h-270l254 327h291l253 -327h-270zM1042 0l-77 238h-555l-78 -238h-316l498 1434h348l498 -1434h-318zM496 494h385l-189 571h-8z" />
    <glyph glyph-name="uni1EA5" unicode="&#x1ea5;" horiz-adv-x="1245" 
d="M852 1395l125 280h260l-213 -280h-172zM618 1276l-120 -150h-258l239 312h279l239 -312h-258zM831 991h263v-991h-263l-10 121h-8q-37 -66 -117.5 -106t-177.5 -40q-188 0 -315 144.5t-127 376.5t127 376t315 144q97 0 177.5 -40t117.5 -106h8zM807 436v119q0 87 -62 145
t-155 58q-99 0 -161 -70t-62 -192t62 -192.5t161 -70.5q93 0 155 58t62 145z" />
    <glyph glyph-name="uni1EA6" unicode="&#x1ea6;" horiz-adv-x="1376" 
d="M1161 2044l125 -281h-172l-213 281h260zM688 1718l-129 -157h-270l254 327h291l253 -327h-270zM1042 0l-77 238h-555l-78 -238h-316l498 1434h348l498 -1434h-318zM496 494h385l-189 571h-8z" />
    <glyph glyph-name="uni1EA7" unicode="&#x1ea7;" horiz-adv-x="1222" 
d="M1061 1634l125 -280h-172l-213 280h260zM618 1276l-120 -150h-258l239 312h279l239 -312h-258zM831 991h263v-991h-263l-10 121h-8q-37 -66 -117.5 -106t-177.5 -40q-188 0 -315 144.5t-127 376.5t127 376t315 144q97 0 177.5 -40t117.5 -106h8zM807 436v119
q0 87 -62 145t-155 58q-99 0 -161 -70t-62 -192t62 -192.5t161 -70.5q93 0 155 58t62 145z" />
    <glyph glyph-name="uni1EA8" unicode="&#x1ea8;" horiz-adv-x="1376" 
d="M688 1718l-129 -157h-270l254 327h291l253 -327h-270zM1042 0l-77 238h-555l-78 -238h-316l498 1434h348l498 -1434h-318zM496 494h385l-189 571h-8zM1307 1978q3 -112 -103 -247h-129q18 32 31 60t16 40l4 12q-66 6 -108 55.5t-37 114.5q6 66 55.5 108.5t114.5 37.5
q65 -6 109 -58t47 -123z" />
    <glyph glyph-name="uni1EA9" unicode="&#x1ea9;" horiz-adv-x="1243" 
d="M618 1276l-120 -150h-258l239 312h279l239 -312h-258zM831 991h263v-991h-263l-10 121h-8q-37 -66 -117.5 -106t-177.5 -40q-188 0 -315 144.5t-127 376.5t127 376t315 144q97 0 177.5 -40t117.5 -106h8zM807 436v119q0 87 -62 145t-155 58q-99 0 -161 -70t-62 -192
t62 -192.5t161 -70.5q93 0 155 58t62 145zM1223 1491q3 -113 -103 -248h-129q18 32 31 60.5t16 40.5l4 12q-66 6 -108 55.5t-37 114.5q6 66 55.5 108t114.5 37q65 -6 109 -57.5t47 -122.5z" />
    <glyph glyph-name="uni1EAA" unicode="&#x1eaa;" horiz-adv-x="1376" 
d="M834 1993q-68 0 -144 57q-45 37 -67 37q-45 0 -45 -88h-158q0 119 44 180.5t124 61.5q66 0 143 -58q45 -37 70 -37q41 0 41 88h157q0 -117 -43 -179t-122 -62zM688 1718l-129 -157h-270l254 327h291l253 -327h-270zM1042 0l-77 238h-555l-78 -238h-316l498 1434h348
l498 -1434h-318zM496 494h385l-189 571h-8z" />
    <glyph glyph-name="uni1EAB" unicode="&#x1eab;" horiz-adv-x="1222" 
d="M772 1544q-66 0 -143 58q-43 36 -68 36q-45 0 -45 -88h-158q0 119 44 180.5t124 61.5q68 0 144 -57q45 -37 69 -37q41 0 41 88h158q0 -117 -43.5 -179.5t-122.5 -62.5zM618 1276l-120 -150h-258l239 312h279l239 -312h-258zM831 991h263v-991h-263l-10 121h-8
q-37 -66 -117.5 -106t-177.5 -40q-188 0 -315 144.5t-127 376.5t127 376t315 144q97 0 177.5 -40t117.5 -106h8zM807 436v119q0 87 -62 145t-155 58q-99 0 -161 -70t-62 -192t62 -192.5t161 -70.5q93 0 155 58t62 145z" />
    <glyph glyph-name="uni1EAC" unicode="&#x1eac;" horiz-adv-x="1376" 
d="M688 1718l-129 -157h-270l254 327h291l253 -327h-270zM1042 0l-77 238h-555l-78 -238h-316l498 1434h348l498 -1434h-318zM496 494h385l-189 571h-8zM688 -387q-65 0 -108 42t-43 107q0 64 43 106t108 42q64 0 108 -42t44 -106q0 -65 -44 -107t-108 -42z" />
    <glyph glyph-name="uni1EAD" unicode="&#x1ead;" horiz-adv-x="1222" 
d="M618 1276l-120 -150h-258l239 312h279l239 -312h-258zM831 991h263v-991h-263l-10 121h-8q-37 -66 -117.5 -106t-177.5 -40q-188 0 -315 144.5t-127 376.5t127 376t315 144q97 0 177.5 -40t117.5 -106h8zM807 436v119q0 87 -62 145t-155 58q-99 0 -161 -70t-62 -192
t62 -192.5t161 -70.5q93 0 155 58t62 145zM586 -449q-65 0 -108.5 42.5t-43.5 107.5q0 64 43.5 105.5t108.5 41.5q64 0 107.5 -41.5t43.5 -105.5q0 -65 -43.5 -107.5t-107.5 -42.5z" />
    <glyph glyph-name="uni1EAE" unicode="&#x1eae;" horiz-adv-x="1376" 
d="M537 1939l147 205h309l-252 -205h-204zM688 1556q-160 0 -246 69t-86 206v22h226q0 -74 26.5 -105.5t79.5 -31.5t80 31.5t27 105.5h225v-22q0 -137 -86 -206t-246 -69zM1042 0l-77 238h-555l-78 -238h-316l498 1434h348l498 -1434h-318zM496 494h385l-189 571h-8z" />
    <glyph glyph-name="uni1EAF" unicode="&#x1eaf;" horiz-adv-x="1222" 
d="M475 1436l123 217h260l-213 -217h-170zM618 1090q-313 0 -313 253v21h213q0 -137 100 -137q101 0 101 137h213v-21q0 -253 -314 -253zM831 991h263v-991h-263l-10 121h-8q-37 -66 -117.5 -106t-177.5 -40q-188 0 -315 144.5t-127 376.5t127 376t315 144q97 0 177.5 -40
t117.5 -106h8zM807 436v119q0 87 -62 145t-155 58q-99 0 -161 -70t-62 -192t62 -192.5t161 -70.5q93 0 155 58t62 145z" />
    <glyph glyph-name="uni1EB0" unicode="&#x1eb0;" horiz-adv-x="1376" 
d="M770 2142l148 -205h-205l-252 205h309zM688 1556q-160 0 -246 69t-86 206v22h226q0 -74 26.5 -105.5t79.5 -31.5t80 31.5t27 105.5h225v-22q0 -137 -86 -206t-246 -69zM1042 0l-77 238h-555l-78 -238h-316l498 1434h348l498 -1434h-318zM496 494h385l-189 571h-8z" />
    <glyph glyph-name="uni1EB1" unicode="&#x1eb1;" horiz-adv-x="1222" 
d="M686 1653l123 -217h-170l-213 217h260zM618 1090q-313 0 -313 253v21h213q0 -137 100 -137q101 0 101 137h213v-21q0 -253 -314 -253zM831 991h263v-991h-263l-10 121h-8q-37 -66 -117.5 -106t-177.5 -40q-188 0 -315 144.5t-127 376.5t127 376t315 144q97 0 177.5 -40
t117.5 -106h8zM807 436v119q0 87 -62 145t-155 58q-99 0 -161 -70t-62 -192t62 -192.5t161 -70.5q93 0 155 58t62 145z" />
    <glyph glyph-name="uni1EB2" unicode="&#x1eb2;" horiz-adv-x="1376" 
d="M688 1556q-160 0 -246 69t-86 206v22h226q0 -74 26.5 -105.5t79.5 -31.5t80 31.5t27 105.5h225v-22q0 -137 -86 -206t-246 -69zM1042 0l-77 238h-555l-78 -238h-316l498 1434h348l498 -1434h-318zM496 494h385l-189 571h-8zM850 2161q3 -114 -102 -248h-130q18 32 31 60
t17 40l4 12q-66 6 -108.5 55.5t-37.5 114.5q6 66 55.5 108.5t114.5 37.5q65 -6 109 -57.5t47 -122.5z" />
    <glyph glyph-name="uni1EB3" unicode="&#x1eb3;" horiz-adv-x="1222" 
d="M618 1090q-313 0 -313 253v21h213q0 -137 100 -137q101 0 101 137h213v-21q0 -253 -314 -253zM831 991h263v-991h-263l-10 121h-8q-37 -66 -117.5 -106t-177.5 -40q-188 0 -315 144.5t-127 376.5t127 376t315 144q97 0 177.5 -40t117.5 -106h8zM807 436v119q0 87 -62 145
t-155 58q-99 0 -161 -70t-62 -192t62 -192.5t161 -70.5q93 0 155 58t62 145zM739 1632q5 -86 -80 -196h-102q15 25 25 47.5t13 32.5l3 10q-52 3 -85 42t-30 91q4 52 43 85t92 30q51 -4 85 -45t36 -97z" />
    <glyph glyph-name="uni1EB4" unicode="&#x1eb4;" horiz-adv-x="1376" 
d="M811 1960q-67 0 -143 57q-45 37 -68 37q-45 0 -45 -88h-158q0 119 44 180.5t124 61.5q67 0 144 -58q43 -36 69 -36q41 0 41 88h158q0 -117 -43.5 -179.5t-122.5 -62.5zM688 1556q-160 0 -246 69t-86 206v22h226q0 -74 26.5 -105.5t79.5 -31.5t80 31.5t27 105.5h225v-22
q0 -137 -86 -206t-246 -69zM1042 0l-77 238h-555l-78 -238h-316l498 1434h348l498 -1434h-318zM496 494h385l-189 571h-8z" />
    <glyph glyph-name="uni1EB5" unicode="&#x1eb5;" horiz-adv-x="1222" 
d="M772 1444q-67 0 -143 57q-45 37 -68 37q-45 0 -45 -88h-158q0 119 44 180.5t124 61.5q67 0 144 -58q45 -37 69 -37q41 0 41 89h158q0 -117 -43.5 -179.5t-122.5 -62.5zM618 1090q-313 0 -313 253v21h213q0 -137 100 -137q101 0 101 137h213v-21q0 -253 -314 -253z
M831 991h263v-991h-263l-10 121h-8q-37 -66 -117.5 -106t-177.5 -40q-188 0 -315 144.5t-127 376.5t127 376t315 144q97 0 177.5 -40t117.5 -106h8zM807 436v119q0 87 -62 145t-155 58q-99 0 -161 -70t-62 -192t62 -192.5t161 -70.5q93 0 155 58t62 145z" />
    <glyph glyph-name="uni1EB6" unicode="&#x1eb6;" horiz-adv-x="1376" 
d="M688 1556q-160 0 -246 69t-86 206v22h226q0 -74 26.5 -105.5t79.5 -31.5t80 31.5t27 105.5h225v-22q0 -137 -86 -206t-246 -69zM1042 0l-77 238h-555l-78 -238h-316l498 1434h348l498 -1434h-318zM496 494h385l-189 571h-8zM688 -387q-65 0 -108 42t-43 107q0 64 43 106
t108 42q64 0 108 -42t44 -106q0 -65 -44 -107t-108 -42z" />
    <glyph glyph-name="uni1EB7" unicode="&#x1eb7;" horiz-adv-x="1222" 
d="M618 1090q-313 0 -313 253v21h213q0 -137 100 -137q101 0 101 137h213v-21q0 -253 -314 -253zM831 991h263v-991h-263l-10 121h-8q-37 -66 -117.5 -106t-177.5 -40q-188 0 -315 144.5t-127 376.5t127 376t315 144q97 0 177.5 -40t117.5 -106h8zM807 436v119q0 87 -62 145
t-155 58q-99 0 -161 -70t-62 -192t62 -192.5t161 -70.5q93 0 155 58t62 145zM586 -432q-65 0 -108.5 42t-43.5 107q0 64 43.5 106t108.5 42q64 0 107.5 -42t43.5 -106q0 -65 -43.5 -107t-107.5 -42z" />
    <glyph glyph-name="uni1EB8" unicode="&#x1eb8;" horiz-adv-x="1165" 
d="M1057 1155h-596v-348h530v-270h-530v-258h596v-279h-899v1434h899v-279zM586 -449q-65 0 -108.5 42.5t-43.5 107.5q0 64 43.5 105.5t108.5 41.5q64 0 107.5 -41.5t43.5 -105.5q0 -65 -43.5 -107.5t-107.5 -42.5z" />
    <glyph glyph-name="uni1EB9" unicode="&#x1eb9;" horiz-adv-x="1153" 
d="M1077 524q0 -42 -6 -98h-715q17 -104 80 -157.5t160 -53.5q71 0 123 30t78 85l262 -60q-47 -137 -172 -216t-295 -79q-231 0 -373.5 142.5t-142.5 371.5q0 233 145 380t371 147q215 0 350 -134t135 -358zM592 780q-85 0 -143.5 -43.5t-81.5 -128.5h426
q-14 87 -67.5 129.5t-133.5 42.5zM586 -449q-65 0 -108.5 42.5t-43.5 107.5q0 64 43.5 105.5t108.5 41.5q64 0 107.5 -41.5t43.5 -105.5q0 -65 -43.5 -107.5t-107.5 -42.5z" />
    <glyph glyph-name="uni1EBA" unicode="&#x1eba;" horiz-adv-x="1165" 
d="M1057 1155h-596v-348h530v-270h-530v-258h596v-279h-899v1434h899v-279zM770 1782q3 -114 -102 -248h-129q18 32 31 60t16 40l4 13q-66 6 -108.5 55.5t-37.5 114.5q6 66 55.5 108t114.5 37q65 -6 109 -57.5t47 -122.5z" />
    <glyph glyph-name="uni1EBB" unicode="&#x1ebb;" horiz-adv-x="1153" 
d="M1077 524q0 -42 -6 -98h-715q17 -104 80 -157.5t160 -53.5q71 0 123 30t78 85l262 -60q-47 -137 -172 -216t-295 -79q-231 0 -373.5 142.5t-142.5 371.5q0 233 145 380t371 147q215 0 350 -134t135 -358zM592 780q-85 0 -143.5 -43.5t-81.5 -128.5h426
q-14 87 -67.5 129.5t-133.5 42.5zM752 1350q2 -104 -97 -230h-116q16 29 27.5 55.5t14.5 38.5l3 11q-60 5 -98.5 50t-32.5 105q4 60 49.5 99t105.5 34q59 -4 100 -51.5t44 -111.5z" />
    <glyph glyph-name="uni1EBC" unicode="&#x1ebc;" horiz-adv-x="1165" 
d="M731 1556q-66 0 -143 58q-45 37 -68 37q-45 0 -45 -88h-158q0 119 43.5 180t124.5 61q68 0 144 -57q45 -37 69 -37q41 0 41 88h158q0 -117 -43.5 -179.5t-122.5 -62.5zM1057 1155h-596v-348h530v-270h-530v-258h596v-279h-899v1434h899v-279z" />
    <glyph glyph-name="uni1EBD" unicode="&#x1ebd;" horiz-adv-x="1153" 
d="M719 1128q-67 0 -144 58q-45 37 -67 37q-45 0 -45 -88h-158q0 119 43.5 180t124.5 61q67 0 143 -57q45 -37 70 -37q41 0 41 88h158q0 -117 -43.5 -179.5t-122.5 -62.5zM1077 524q0 -42 -6 -98h-715q17 -104 80 -157.5t160 -53.5q71 0 123 30t78 85l262 -60
q-47 -137 -172 -216t-295 -79q-231 0 -373.5 142.5t-142.5 371.5q0 233 145 380t371 147q215 0 350 -134t135 -358zM592 780q-85 0 -143.5 -43.5t-81.5 -128.5h426q-14 87 -67.5 129.5t-133.5 42.5z" />
    <glyph glyph-name="uni1EBE" unicode="&#x1ebe;" horiz-adv-x="1167" 
d="M913 1819l125 280h260l-213 -280h-172zM610 1718l-129 -157h-270l254 327h291l254 -327h-271zM1059 1155h-596v-348h530v-270h-530v-258h596v-279h-899v1434h899v-279z" />
    <glyph glyph-name="uni1EBF" unicode="&#x1ebf;" horiz-adv-x="1153" 
d="M852 1395l125 280h260l-213 -280h-172zM590 1276l-121 -150h-258l240 312h278l240 -312h-258zM1077 524q0 -42 -6 -98h-715q17 -104 80 -157.5t160 -53.5q71 0 123 30t78 85l262 -60q-47 -137 -172 -216t-295 -79q-231 0 -373.5 142.5t-142.5 371.5q0 233 145 380
t371 147q215 0 350 -134t135 -358zM592 780q-85 0 -143.5 -43.5t-81.5 -128.5h426q-14 87 -67.5 129.5t-133.5 42.5z" />
    <glyph glyph-name="uni1EC0" unicode="&#x1ec0;" horiz-adv-x="1165" 
d="M1085 2044l125 -281h-172l-213 281h260zM608 1718l-129 -157h-270l254 327h291l254 -327h-271zM1057 1155h-596v-348h530v-270h-530v-258h596v-279h-899v1434h899v-279z" />
    <glyph glyph-name="uni1EC1" unicode="&#x1ec1;" horiz-adv-x="1153" 
d="M1028 1602l125 -281h-172l-213 281h260zM590 1276l-121 -150h-258l240 312h278l240 -312h-258zM1077 524q0 -42 -6 -98h-715q17 -104 80 -157.5t160 -53.5q71 0 123 30t78 85l262 -60q-47 -137 -172 -216t-295 -79q-231 0 -373.5 142.5t-142.5 371.5q0 233 145 380
t371 147q215 0 350 -134t135 -358zM592 780q-85 0 -143.5 -43.5t-81.5 -128.5h426q-14 87 -67.5 129.5t-133.5 42.5z" />
    <glyph glyph-name="uni1EC2" unicode="&#x1ec2;" horiz-adv-x="1165" 
d="M608 1718l-129 -157h-270l254 327h291l254 -327h-271zM1057 1155h-596v-348h530v-270h-530v-258h596v-279h-899v1434h899v-279zM1171 2009q3 -114 -102 -248h-129q18 32 31 60.5t17 40.5l3 12q-66 6 -108 55.5t-37 114.5q6 66 55.5 108t114.5 37q65 -6 108.5 -57.5
t46.5 -122.5z" />
    <glyph glyph-name="uni1EC3" unicode="&#x1ec3;" horiz-adv-x="1153" 
d="M590 1276l-121 -150h-258l240 312h278l240 -312h-258zM1077 524q0 -42 -6 -98h-715q17 -104 80 -157.5t160 -53.5q71 0 123 30t78 85l262 -60q-47 -137 -172 -216t-295 -79q-231 0 -373.5 142.5t-142.5 371.5q0 233 145 380t371 147q215 0 350 -134t135 -358zM592 780
q-85 0 -143.5 -43.5t-81.5 -128.5h426q-14 87 -67.5 129.5t-133.5 42.5zM1118 1485q5 -87 -80 -197h-102q15 25 25 47.5t13 32.5l3 10q-52 3 -85 42t-30 91q4 52 43 85t92 30q51 -4 85 -44.5t36 -96.5z" />
    <glyph glyph-name="uni1EC4" unicode="&#x1ec4;" horiz-adv-x="1165" 
d="M756 2017q-79 0 -170 76q-55 47 -82 47q-51 0 -51 -115h-187q0 155 51 235.5t146 80.5q79 0 170 -76q52 -47 82 -47q49 0 49 115h186q0 -154 -50.5 -235t-143.5 -81zM608 1718l-129 -157h-270l254 327h291l254 -327h-271zM1057 1155h-596v-348h530v-270h-530v-258h596
v-279h-899v1434h899v-279z" />
    <glyph glyph-name="uni1EC5" unicode="&#x1ec5;" horiz-adv-x="1153" 
d="M721 1534q-67 0 -143 57q-45 37 -68 37q-45 0 -45 -88h-158q0 119 44 180.5t124 61.5q66 0 143 -58q43 -36 70 -36q41 0 41 88h158q0 -117 -43.5 -179.5t-122.5 -62.5zM590 1276l-121 -150h-258l240 312h278l240 -312h-258zM1077 524q0 -42 -6 -98h-715
q17 -104 80 -157.5t160 -53.5q71 0 123 30t78 85l262 -60q-47 -137 -172 -216t-295 -79q-231 0 -373.5 142.5t-142.5 371.5q0 233 145 380t371 147q215 0 350 -134t135 -358zM592 780q-85 0 -143.5 -43.5t-81.5 -128.5h426q-14 87 -67.5 129.5t-133.5 42.5z" />
    <glyph glyph-name="uni1EC6" unicode="&#x1ec6;" horiz-adv-x="1165" 
d="M608 1718l-129 -157h-270l254 327h291l254 -327h-271zM1057 1155h-596v-348h530v-270h-530v-258h596v-279h-899v1434h899v-279zM586 -449q-65 0 -108.5 42.5t-43.5 107.5q0 64 43.5 105.5t108.5 41.5q64 0 107.5 -41.5t43.5 -105.5q0 -65 -43.5 -107.5t-107.5 -42.5z" />
    <glyph glyph-name="uni1EC7" unicode="&#x1ec7;" horiz-adv-x="1153" 
d="M590 1276l-121 -150h-258l240 312h278l240 -312h-258zM1077 524q0 -42 -6 -98h-715q17 -104 80 -157.5t160 -53.5q71 0 123 30t78 85l262 -60q-47 -137 -172 -216t-295 -79q-231 0 -373.5 142.5t-142.5 371.5q0 233 145 380t371 147q215 0 350 -134t135 -358zM592 780
q-85 0 -143.5 -43.5t-81.5 -128.5h426q-14 87 -67.5 129.5t-133.5 42.5zM586 -449q-65 0 -108.5 42.5t-43.5 107.5q0 64 43.5 105.5t108.5 41.5q64 0 107.5 -41.5t43.5 -105.5q0 -65 -43.5 -107.5t-107.5 -42.5z" />
    <glyph glyph-name="uni1EC8" unicode="&#x1ec8;" horiz-adv-x="618" 
d="M158 0v1434h303v-1434h-303zM477 1772q3 -114 -102 -248h-129q18 32 31 60t17 40l3 12q-66 6 -108 55.5t-37 114.5q6 66 55.5 108.5t114.5 37.5q65 -6 108.5 -57.5t46.5 -122.5z" />
    <glyph glyph-name="uni1EC9" unicode="&#x1ec9;" horiz-adv-x="544" 
d="M129 0v991h287v-991h-287zM395 1298q5 -86 -80 -196h-102q15 25 25 47.5t13 32.5l3 10q-52 3 -85 42t-30 91q4 52 43 85t92 30q51 -4 85 -45t36 -97z" />
    <glyph glyph-name="uni1ECA" unicode="&#x1eca;" horiz-adv-x="618" 
d="M158 0v1434h303v-1434h-303zM309 -449q-65 0 -108 42t-43 108q0 64 43 105.5t108 41.5q64 0 108 -41.5t44 -105.5q0 -65 -44 -107.5t-108 -42.5z" />
    <glyph glyph-name="uni1ECB" unicode="&#x1ecb;" horiz-adv-x="544" 
d="M272 1126q-76 0 -128 50.5t-52 126.5t52 126t128 50t128.5 -50t52.5 -126t-52.5 -126.5t-128.5 -50.5zM129 0v991h287v-991h-287zM272 -444q-65 0 -108 42t-43 107q0 64 43 106t108 42q64 0 108 -42t44 -106q0 -65 -44 -107t-108 -42z" />
    <glyph glyph-name="uni1ECC" unicode="&#x1ecc;" horiz-adv-x="1609" 
d="M805 -25q-208 0 -373 94.5t-257.5 264t-92.5 383.5q0 160 54 298.5t149.5 235.5t230 152t289.5 55t289.5 -55t230 -152t149.5 -235.5t54 -298.5q0 -214 -92.5 -383.5t-257.5 -264t-373 -94.5zM805 256q182 0 295.5 126.5t113.5 334.5t-113.5 334.5t-295.5 126.5
q-183 0 -296.5 -126.5t-113.5 -334.5t113.5 -334.5t296.5 -126.5zM803 -449q-65 0 -108.5 42.5t-43.5 107.5q0 64 43.5 105.5t108.5 41.5q64 0 107.5 -41.5t43.5 -105.5q0 -65 -43.5 -107.5t-107.5 -42.5z" />
    <glyph glyph-name="uni1ECD" unicode="&#x1ecd;" horiz-adv-x="1187" 
d="M594 -25q-228 0 -373 145.5t-145 375.5t145 375t373 145t373 -145t145 -375t-145 -375.5t-373 -145.5zM594 231q101 0 164 72t63 193t-63 191.5t-164 70.5t-164 -70.5t-63 -191.5t63 -193t164 -72zM586 -449q-65 0 -108.5 42.5t-43.5 107.5q0 64 43.5 105.5t108.5 41.5
q64 0 107.5 -41.5t43.5 -105.5q0 -65 -43.5 -107.5t-107.5 -42.5z" />
    <glyph glyph-name="uni1ECE" unicode="&#x1ece;" horiz-adv-x="1609" 
d="M805 -25q-208 0 -373 94.5t-257.5 264t-92.5 383.5q0 160 54 298.5t149.5 235.5t230 152t289.5 55t289.5 -55t230 -152t149.5 -235.5t54 -298.5q0 -214 -92.5 -383.5t-257.5 -264t-373 -94.5zM805 256q182 0 295.5 126.5t113.5 334.5t-113.5 334.5t-295.5 126.5
q-183 0 -296.5 -126.5t-113.5 -334.5t113.5 -334.5t296.5 -126.5zM971 1821q3 -113 -103 -248h-129q18 32 31 60t17 41l4 12q-66 6 -108.5 55t-37.5 114q6 66 55.5 108.5t114.5 37.5q65 -6 109 -57.5t47 -122.5z" />
    <glyph glyph-name="uni1ECF" unicode="&#x1ecf;" horiz-adv-x="1187" 
d="M594 -25q-228 0 -373 145.5t-145 375.5t145 375t373 145t373 -145t145 -375t-145 -375.5t-373 -145.5zM594 231q101 0 164 72t63 193t-63 191.5t-164 70.5t-164 -70.5t-63 -191.5t63 -193t164 -72zM752 1350q2 -104 -97 -230h-116q16 29 27.5 55.5t14.5 38.5l3 11
q-60 5 -98.5 50t-32.5 105q4 60 49.5 99t105.5 34q59 -4 100 -51.5t44 -111.5z" />
    <glyph glyph-name="uni1ED0" unicode="&#x1ed0;" horiz-adv-x="1609" 
d="M1126 1780l131 266h273l-223 -266h-181zM805 1718l-129 -157h-270l253 327h291l254 -327h-270zM805 1458q155 0 289.5 -55t230 -152t149.5 -235.5t54 -298.5q0 -214 -92.5 -383.5t-257.5 -264t-373 -94.5t-373 94.5t-257.5 264t-92.5 383.5q0 160 54 298.5t149.5 235.5
t230 152t289.5 55zM805 256q182 0 295.5 126.5t113.5 334.5t-113.5 334.5t-295.5 126.5q-183 0 -296.5 -126.5t-113.5 -334.5t113.5 -334.5t296.5 -126.5z" />
    <glyph glyph-name="uni1ED1" unicode="&#x1ed1;" horiz-adv-x="1187" 
d="M872 1374l115 238h238l-195 -238h-158zM594 1276l-121 -150h-258l240 312h278l240 -312h-258zM594 1016q228 0 373 -145t145 -375t-145 -375.5t-373 -145.5t-373 145.5t-145 375.5t145 375t373 145zM594 231q101 0 164 72t63 193t-63 191.5t-164 70.5t-164 -70.5
t-63 -191.5t63 -193t164 -72z" />
    <glyph glyph-name="uni1ED2" unicode="&#x1ed2;" horiz-adv-x="1609" 
d="M1337 2046l131 -281h-182l-223 281h274zM805 1718l-129 -157h-270l253 327h291l254 -327h-270zM805 1458q155 0 289.5 -55t230 -152t149.5 -235.5t54 -298.5q0 -214 -92.5 -383.5t-257.5 -264t-373 -94.5t-373 94.5t-257.5 264t-92.5 383.5q0 160 54 298.5t149.5 235.5
t230 152t289.5 55zM805 256q182 0 295.5 126.5t113.5 334.5t-113.5 334.5t-295.5 126.5q-183 0 -296.5 -126.5t-113.5 -334.5t113.5 -334.5t296.5 -126.5z" />
    <glyph glyph-name="uni1ED3" unicode="&#x1ed3;" horiz-adv-x="1187" 
d="M1055 1556l121 -241h-166l-207 241h252zM594 1276l-121 -150h-258l240 312h278l240 -312h-258zM594 1016q228 0 373 -145t145 -375t-145 -375.5t-373 -145.5t-373 145.5t-145 375.5t145 375t373 145zM594 231q101 0 164 72t63 193t-63 191.5t-164 70.5t-164 -70.5
t-63 -191.5t63 -193t164 -72z" />
    <glyph glyph-name="uni1ED4" unicode="&#x1ed4;" horiz-adv-x="1609" 
d="M805 1718l-129 -157h-270l253 327h291l254 -327h-270zM805 1458q155 0 289.5 -55t230 -152t149.5 -235.5t54 -298.5q0 -214 -92.5 -383.5t-257.5 -264t-373 -94.5t-373 94.5t-257.5 264t-92.5 383.5q0 160 54 298.5t149.5 235.5t230 152t289.5 55zM805 256
q182 0 295.5 126.5t113.5 334.5t-113.5 334.5t-295.5 126.5q-183 0 -296.5 -126.5t-113.5 -334.5t113.5 -334.5t296.5 -126.5zM1456 1948q3 -114 -102 -248h-129q18 32 31 60t16 40l4 12q-66 6 -108.5 55.5t-37.5 114.5q6 66 55.5 108.5t114.5 37.5q65 -6 109 -57.5
t47 -122.5z" />
    <glyph glyph-name="uni1ED5" unicode="&#x1ed5;" horiz-adv-x="1187" 
d="M594 1276l-121 -150h-258l240 312h278l240 -312h-258zM594 1016q228 0 373 -145t145 -375t-145 -375.5t-373 -145.5t-373 145.5t-145 375.5t145 375t373 145zM594 231q101 0 164 72t63 193t-63 191.5t-164 70.5t-164 -70.5t-63 -191.5t63 -193t164 -72zM1137 1499
q5 -86 -80 -196h-103q15 25 25 47.5t13 32.5l3 10q-52 3 -84.5 42t-29.5 91q4 52 43 84.5t92 29.5q51 -4 85 -44.5t36 -96.5z" />
    <glyph glyph-name="uni1ED6" unicode="&#x1ed6;" horiz-adv-x="1609" 
d="M946 1985q-67 0 -143 57q-45 37 -68 37q-45 0 -45 -88h-158q0 119 43.5 180t124.5 61q68 0 144 -57q45 -37 69 -37q41 0 41 88h158q0 -117 -43.5 -179t-122.5 -62zM805 1718l-129 -157h-270l253 327h291l254 -327h-270zM805 1458q155 0 289.5 -55t230 -152t149.5 -235.5
t54 -298.5q0 -214 -92.5 -383.5t-257.5 -264t-373 -94.5t-373 94.5t-257.5 264t-92.5 383.5q0 160 54 298.5t149.5 235.5t230 152t289.5 55zM805 256q182 0 295.5 126.5t113.5 334.5t-113.5 334.5t-295.5 126.5q-183 0 -296.5 -126.5t-113.5 -334.5t113.5 -334.5
t296.5 -126.5z" />
    <glyph glyph-name="uni1ED7" unicode="&#x1ed7;" horiz-adv-x="1187" 
d="M733 1538q-67 0 -143 57q-45 37 -68 37q-45 0 -45 -88h-158q0 119 44 180.5t124 61.5q68 0 144 -57q45 -37 69 -37q41 0 41 88h158q0 -117 -43.5 -179.5t-122.5 -62.5zM594 1276l-121 -150h-258l240 312h278l240 -312h-258zM594 1016q228 0 373 -145t145 -375
t-145 -375.5t-373 -145.5t-373 145.5t-145 375.5t145 375t373 145zM594 231q101 0 164 72t63 193t-63 191.5t-164 70.5t-164 -70.5t-63 -191.5t63 -193t164 -72z" />
    <glyph glyph-name="uni1ED8" unicode="&#x1ed8;" horiz-adv-x="1609" 
d="M805 1718l-129 -157h-270l253 327h291l254 -327h-270zM805 1458q155 0 289.5 -55t230 -152t149.5 -235.5t54 -298.5q0 -214 -92.5 -383.5t-257.5 -264t-373 -94.5t-373 94.5t-257.5 264t-92.5 383.5q0 160 54 298.5t149.5 235.5t230 152t289.5 55zM805 256
q182 0 295.5 126.5t113.5 334.5t-113.5 334.5t-295.5 126.5q-183 0 -296.5 -126.5t-113.5 -334.5t113.5 -334.5t296.5 -126.5zM793 -449q-65 0 -108.5 42.5t-43.5 107.5q0 64 43.5 105.5t108.5 41.5q64 0 107.5 -41.5t43.5 -105.5q0 -65 -43.5 -107.5t-107.5 -42.5z" />
    <glyph glyph-name="uni1ED9" unicode="&#x1ed9;" horiz-adv-x="1187" 
d="M594 1276l-121 -150h-258l240 312h278l240 -312h-258zM594 1016q228 0 373 -145t145 -375t-145 -375.5t-373 -145.5t-373 145.5t-145 375.5t145 375t373 145zM594 231q101 0 164 72t63 193t-63 191.5t-164 70.5t-164 -70.5t-63 -191.5t63 -193t164 -72zM594 -449
q-65 0 -108.5 42.5t-43.5 107.5q0 64 43.5 105.5t108.5 41.5q64 0 107.5 -41.5t43.5 -105.5q0 -65 -43.5 -107.5t-107.5 -42.5z" />
    <glyph glyph-name="uni1EDA" unicode="&#x1eda;" horiz-adv-x="1609" 
d="M805 -25q-208 0 -373 94.5t-257.5 264t-92.5 383.5q0 160 54 298.5t149.5 235.5t230 152t289.5 55t289.5 -55t230 -152t149.5 -235.5t54 -298.5q0 -214 -92.5 -383.5t-257.5 -264t-373 -94.5zM805 256q182 0 295.5 126.5t113.5 334.5t-113.5 334.5t-295.5 126.5
q-183 0 -296.5 -126.5t-113.5 -334.5t113.5 -334.5t296.5 -126.5zM715 1556l125 281h260l-213 -281h-172zM1288 1561h262q0 -9 -1.5 -23.5t-11.5 -54.5t-26 -74t-50 -70.5t-79 -54.5q-28 -14 -71 -20q-22 19 -48 39.5t-41 31.5l-16 11q45 23 66 53q50 69 16 162z" />
    <glyph glyph-name="uni1EDB" unicode="&#x1edb;" horiz-adv-x="1187" 
d="M594 -25q-228 0 -373 145.5t-145 375.5t145 375t373 145t373 -145t145 -375t-145 -375.5t-373 -145.5zM594 231q101 0 164 72t63 193t-63 191.5t-164 70.5t-164 -70.5t-63 -191.5t63 -193t164 -72zM502 1104l125 254h262l-215 -254h-172zM975 1100h213q-1 -11 -3 -29
t-13.5 -63.5t-29.5 -81t-54.5 -64t-83.5 -28.5h-5l-77 75q75 75 53 191z" />
    <glyph glyph-name="uni1EDC" unicode="&#x1edc;" horiz-adv-x="1609" 
d="M805 -25q-208 0 -373 94.5t-257.5 264t-92.5 383.5q0 160 54 298.5t149.5 235.5t230 152t289.5 55t289.5 -55t230 -152t149.5 -235.5t54 -298.5q0 -214 -92.5 -383.5t-257.5 -264t-373 -94.5zM805 256q182 0 295.5 126.5t113.5 334.5t-113.5 334.5t-295.5 126.5
q-183 0 -296.5 -126.5t-113.5 -334.5t113.5 -334.5t296.5 -126.5zM907 1837l125 -281h-172l-213 281h260zM1288 1561h262q0 -9 -1.5 -23.5t-11.5 -54.5t-26 -74t-50 -70.5t-79 -54.5q-28 -14 -71 -20q-22 19 -48 39.5t-41 31.5l-16 11q45 23 66 53q50 69 16 162z" />
    <glyph glyph-name="uni1EDD" unicode="&#x1edd;" horiz-adv-x="1187" 
d="M594 -25q-228 0 -373 145.5t-145 375.5t145 375t373 145t373 -145t145 -375t-145 -375.5t-373 -145.5zM594 231q101 0 164 72t63 193t-63 191.5t-164 70.5t-164 -70.5t-63 -191.5t63 -193t164 -72zM698 1395l125 -281h-172l-213 281h260zM975 1100h213q-1 -11 -3 -29
t-13.5 -63.5t-29.5 -81t-54.5 -64t-83.5 -28.5h-5l-77 75q75 75 53 191z" />
    <glyph glyph-name="uni1EDE" unicode="&#x1ede;" horiz-adv-x="1609" 
d="M805 -25q-208 0 -373 94.5t-257.5 264t-92.5 383.5q0 160 54 298.5t149.5 235.5t230 152t289.5 55t289.5 -55t230 -152t149.5 -235.5t54 -298.5q0 -214 -92.5 -383.5t-257.5 -264t-373 -94.5zM805 256q182 0 295.5 126.5t113.5 334.5t-113.5 334.5t-295.5 126.5
q-183 0 -296.5 -126.5t-113.5 -334.5t113.5 -334.5t296.5 -126.5zM967 1823q3 -113 -103 -248h-129q18 32 31 60.5t16 40.5l4 12q-66 6 -108 55.5t-37 114.5q6 66 55.5 108t114.5 37q65 -6 109 -57.5t47 -122.5zM1288 1561h262q0 -9 -1.5 -23.5t-11.5 -54.5t-26 -74
t-50 -70.5t-79 -54.5q-28 -14 -71 -20q-22 19 -48 39.5t-41 31.5l-16 11q45 23 66 53q50 69 16 162z" />
    <glyph glyph-name="uni1EDF" unicode="&#x1edf;" horiz-adv-x="1187" 
d="M594 -25q-228 0 -373 145.5t-145 375.5t145 375t373 145t373 -145t145 -375t-145 -375.5t-373 -145.5zM594 231q101 0 164 72t63 193t-63 191.5t-164 70.5t-164 -70.5t-63 -191.5t63 -193t164 -72zM752 1350q2 -104 -97 -230h-116q16 29 27.5 55.5t14.5 38.5l3 11
q-60 5 -98.5 50t-32.5 105q4 60 49.5 99t105.5 34q59 -4 100 -51.5t44 -111.5zM975 1100h213q-1 -11 -3 -29t-13.5 -63.5t-29.5 -81t-54.5 -64t-83.5 -28.5h-5l-77 75q75 75 53 191z" />
    <glyph glyph-name="uni1EE0" unicode="&#x1ee0;" horiz-adv-x="1609" 
d="M805 -25q-208 0 -373 94.5t-257.5 264t-92.5 383.5q0 160 54 298.5t149.5 235.5t230 152t289.5 55t289.5 -55t230 -152t149.5 -235.5t54 -298.5q0 -214 -92.5 -383.5t-257.5 -264t-373 -94.5zM805 256q182 0 295.5 126.5t113.5 334.5t-113.5 334.5t-295.5 126.5
q-183 0 -296.5 -126.5t-113.5 -334.5t113.5 -334.5t296.5 -126.5zM969 1556q-67 0 -144 58q-45 37 -69 37q-43 0 -43 -88h-158q0 119 43.5 180t124.5 61q67 0 143 -57q45 -37 70 -37q41 0 41 88h158q0 -118 -43.5 -180t-122.5 -62zM1288 1561h262q0 -9 -1.5 -23.5
t-11.5 -54.5t-26 -74t-50 -70.5t-79 -54.5q-28 -14 -71 -20q-22 19 -48 39.5t-41 31.5l-16 11q45 23 66 53q50 69 16 162z" />
    <glyph glyph-name="uni1EE1" unicode="&#x1ee1;" horiz-adv-x="1187" 
d="M594 -25q-228 0 -373 145.5t-145 375.5t145 375t373 145t373 -145t145 -375t-145 -375.5t-373 -145.5zM594 231q101 0 164 72t63 193t-63 191.5t-164 70.5t-164 -70.5t-63 -191.5t63 -193t164 -72zM754 1108q-68 0 -144 57q-45 37 -69 37q-43 0 -43 -88h-158
q0 119 44 180.5t124 61.5q66 0 143 -58q43 -36 70 -36q41 0 41 88h158q0 -118 -43.5 -180t-122.5 -62zM975 1100h213q-1 -11 -3 -29t-13.5 -63.5t-29.5 -81t-54.5 -64t-83.5 -28.5h-5l-77 75q75 75 53 191z" />
    <glyph glyph-name="uni1EE2" unicode="&#x1ee2;" horiz-adv-x="1609" 
d="M805 -25q-208 0 -373 94.5t-257.5 264t-92.5 383.5q0 160 54 298.5t149.5 235.5t230 152t289.5 55t289.5 -55t230 -152t149.5 -235.5t54 -298.5q0 -214 -92.5 -383.5t-257.5 -264t-373 -94.5zM805 256q182 0 295.5 126.5t113.5 334.5t-113.5 334.5t-295.5 126.5
q-183 0 -296.5 -126.5t-113.5 -334.5t113.5 -334.5t296.5 -126.5zM803 -356q-65 0 -108.5 42t-43.5 107q0 64 43.5 106t108.5 42q64 0 107.5 -42t43.5 -106q0 -65 -43.5 -107t-107.5 -42zM1288 1561h262q0 -9 -1.5 -23.5t-11.5 -54.5t-26 -74t-50 -70.5t-79 -54.5
q-28 -14 -71 -20q-22 19 -48 39.5t-41 31.5l-16 11q45 23 66 53q50 69 16 162z" />
    <glyph glyph-name="uni1EE3" unicode="&#x1ee3;" horiz-adv-x="1187" 
d="M594 -25q-228 0 -373 145.5t-145 375.5t145 375t373 145t373 -145t145 -375t-145 -375.5t-373 -145.5zM594 231q101 0 164 72t63 193t-63 191.5t-164 70.5t-164 -70.5t-63 -191.5t63 -193t164 -72zM594 -449q-65 0 -108.5 42.5t-43.5 107.5q0 64 43.5 105.5t108.5 41.5
q64 0 107.5 -41.5t43.5 -105.5q0 -65 -43.5 -107.5t-107.5 -42.5zM975 1100h213q-1 -11 -3 -29t-13.5 -63.5t-29.5 -81t-54.5 -64t-83.5 -28.5h-5l-77 75q75 75 53 191z" />
    <glyph glyph-name="uni1EE4" unicode="&#x1ee4;" horiz-adv-x="1413" 
d="M707 -25q-264 0 -416 156t-152 430v873h301v-856q0 -156 71.5 -237t195.5 -81q123 0 193.5 81t70.5 237v856h303v-873q0 -274 -152.5 -430t-414.5 -156zM707 -451q-65 0 -108.5 42.5t-43.5 107.5q0 64 43.5 105.5t108.5 41.5q64 0 107.5 -41.5t43.5 -105.5
q0 -65 -43.5 -107.5t-107.5 -42.5z" />
    <glyph glyph-name="uni1EE5" unicode="&#x1ee5;" horiz-adv-x="1161" 
d="M745 991h287v-991h-260l-12 121h-6q-46 -67 -127.5 -106.5t-175.5 -39.5q-151 0 -240.5 104t-89.5 296v616h287v-536q0 -114 39 -164.5t116 -50.5q86 0 134 55.5t48 165.5v530zM578 -446q-65 0 -108.5 42t-43.5 107q0 64 43.5 105.5t108.5 41.5q64 0 107.5 -41.5
t43.5 -105.5q0 -65 -43.5 -107t-107.5 -42z" />
    <glyph glyph-name="uni1EE6" unicode="&#x1ee6;" horiz-adv-x="1413" 
d="M707 -25q-264 0 -416 156t-152 430v873h301v-856q0 -156 71.5 -237t195.5 -81q123 0 193.5 81t70.5 237v856h303v-873q0 -274 -152.5 -430t-414.5 -156zM856 1796q3 -114 -102 -248h-129q18 32 31 60t16 40l4 13q-66 6 -108.5 55.5t-37.5 114.5q6 66 55.5 108t114.5 37
q65 -6 109 -57.5t47 -122.5z" />
    <glyph glyph-name="uni1EE7" unicode="&#x1ee7;" horiz-adv-x="1161" 
d="M745 991h287v-991h-260l-12 121h-6q-46 -67 -127.5 -106.5t-175.5 -39.5q-151 0 -240.5 104t-89.5 296v616h287v-536q0 -114 39 -164.5t116 -50.5q86 0 134 55.5t48 165.5v530zM727 1348q3 -106 -96 -230h-117q16 29 27.5 55.5t14.5 38.5l3 11q-60 5 -98.5 50t-32.5 105
q4 60 50 99t106 34q59 -4 99.5 -51.5t43.5 -111.5z" />
    <glyph glyph-name="uni1EE8" unicode="&#x1ee8;" horiz-adv-x="1413" 
d="M707 -25q-264 0 -416 156t-152 430v873h301v-856q0 -156 71.5 -237t195.5 -81q123 0 193.5 81t70.5 237v856h303v-873q0 -274 -152.5 -430t-414.5 -156zM594 1556l131 267h270l-221 -267h-180zM1323 1554h223q1 -6 1.5 -17t-1.5 -42t-9 -60t-25 -65t-44.5 -63t-73 -48
t-106.5 -26h-14v135q65 50 49 186z" />
    <glyph glyph-name="uni1EE9" unicode="&#x1ee9;" horiz-adv-x="1255" 
d="M745 991h287v-991h-260l-12 121h-6q-46 -67 -127.5 -106.5t-175.5 -39.5q-151 0 -240.5 104t-89.5 296v616h287v-536q0 -114 39 -164.5t116 -50.5q86 0 134 55.5t48 165.5v530zM469 1100l131 266h270l-221 -266h-180zM1067 1100h219q0 -9 -1 -24t-10 -54.5t-24 -72.5
t-48 -65.5t-77 -45.5h-94v98q55 68 35 164z" />
    <glyph glyph-name="uni1EEA" unicode="&#x1eea;" horiz-adv-x="1413" 
d="M707 -25q-264 0 -416 156t-152 430v873h301v-856q0 -156 71.5 -237t195.5 -81q123 0 193.5 81t70.5 237v856h303v-873q0 -274 -152.5 -430t-414.5 -156zM778 1821l131 -281h-182l-223 281h274zM1323 1554h223q1 -6 1.5 -17t-1.5 -42t-9 -60t-25 -65t-44.5 -63t-73 -48
t-106.5 -26h-14v135q65 50 49 186z" />
    <glyph glyph-name="uni1EEB" unicode="&#x1eeb;" horiz-adv-x="1255" 
d="M745 991h287v-991h-260l-12 121h-6q-46 -67 -127.5 -106.5t-175.5 -39.5q-151 0 -240.5 104t-89.5 296v616h287v-536q0 -114 39 -164.5t116 -50.5q86 0 134 55.5t48 165.5v530zM633 1380l131 -280h-182l-224 280h275zM1067 1100h219q0 -9 -1 -24t-10 -54.5t-24 -72.5
t-48 -65.5t-77 -45.5h-94v98q55 68 35 164z" />
    <glyph glyph-name="uni1EEC" unicode="&#x1eec;" horiz-adv-x="1413" 
d="M707 -25q-264 0 -416 156t-152 430v873h301v-856q0 -156 71.5 -237t195.5 -81q123 0 193.5 81t70.5 237v856h303v-873q0 -274 -152.5 -430t-414.5 -156zM868 1776q3 -114 -102 -248h-129q18 32 31 60t16 40l4 12q-66 6 -108 55.5t-37 114.5q6 66 55.5 108.5t114.5 37.5
q65 -6 108.5 -57.5t46.5 -122.5zM1323 1554h223q1 -6 1.5 -17t-1.5 -42t-9 -60t-25 -65t-44.5 -63t-73 -48t-106.5 -26h-14v135q65 50 49 186z" />
    <glyph glyph-name="uni1EED" unicode="&#x1eed;" horiz-adv-x="1255" 
d="M745 991h287v-991h-260l-12 121h-6q-46 -67 -127.5 -106.5t-175.5 -39.5q-151 0 -240.5 104t-89.5 296v616h287v-536q0 -114 39 -164.5t116 -50.5q86 0 134 55.5t48 165.5v530zM727 1354q3 -106 -96 -230h-117q16 29 27.5 55.5t14.5 38.5l3 11q-60 5 -98.5 50t-32.5 105
q4 60 50 99.5t106 34.5q59 -4 99.5 -52t43.5 -112zM1067 1100h219q0 -9 -1 -24t-10 -54.5t-24 -72.5t-48 -65.5t-77 -45.5h-94v98q55 68 35 164z" />
    <glyph glyph-name="uni1EEE" unicode="&#x1eee;" horiz-adv-x="1413" 
d="M707 -25q-264 0 -416 156t-152 430v873h301v-856q0 -156 71.5 -237t195.5 -81q123 0 193.5 81t70.5 237v856h303v-873q0 -274 -152.5 -430t-414.5 -156zM858 1556q-66 0 -143 58q-45 37 -70 37q-43 0 -43 -88h-158q0 119 43.5 180t124.5 61q68 0 144 -57q45 -37 69 -37
q41 0 41 88h158q0 -118 -43.5 -180t-122.5 -62zM1323 1554h223q1 -6 1.5 -17t-1.5 -42t-9 -60t-25 -65t-44.5 -63t-73 -48t-106.5 -26h-14v135q65 50 49 186z" />
    <glyph glyph-name="uni1EEF" unicode="&#x1eef;" horiz-adv-x="1255" 
d="M745 991h287v-991h-260l-12 121h-6q-46 -67 -127.5 -106.5t-175.5 -39.5q-151 0 -240.5 104t-89.5 296v616h287v-536q0 -114 39 -164.5t116 -50.5q86 0 134 55.5t48 165.5v530zM721 1137q-67 0 -143 57q-45 37 -70 37q-43 0 -43 -88h-158q0 119 43.5 180t124.5 61
q67 0 143 -57q45 -37 70 -37q41 0 41 88h158q0 -118 -43.5 -179.5t-122.5 -61.5zM1067 1100h219q0 -9 -1 -24t-10 -54.5t-24 -72.5t-48 -65.5t-77 -45.5h-94v98q55 68 35 164z" />
    <glyph glyph-name="uni1EF0" unicode="&#x1ef0;" horiz-adv-x="1413" 
d="M707 -25q-264 0 -416 156t-152 430v873h301v-856q0 -156 71.5 -237t195.5 -81q123 0 193.5 81t70.5 237v856h303v-873q0 -274 -152.5 -430t-414.5 -156zM707 -451q-65 0 -108.5 42.5t-43.5 107.5q0 64 43.5 105.5t108.5 41.5q64 0 107.5 -41.5t43.5 -105.5
q0 -65 -43.5 -107.5t-107.5 -42.5zM1323 1554h223q1 -6 1.5 -17t-1.5 -42t-9 -60t-25 -65t-44.5 -63t-73 -48t-106.5 -26h-14v135q65 50 49 186z" />
    <glyph glyph-name="uni1EF1" unicode="&#x1ef1;" horiz-adv-x="1255" 
d="M745 991h287v-991h-260l-12 121h-6q-46 -67 -127.5 -106.5t-175.5 -39.5q-151 0 -240.5 104t-89.5 296v616h287v-536q0 -114 39 -164.5t116 -50.5q86 0 134 55.5t48 165.5v530zM578 -444q-65 0 -108.5 42t-43.5 107q0 64 43.5 106t108.5 42q64 0 107.5 -42t43.5 -106
q0 -65 -43.5 -107t-107.5 -42zM1067 1100h219q0 -9 -1 -24t-10 -54.5t-24 -72.5t-48 -65.5t-77 -45.5h-94v98q55 68 35 164z" />
    <glyph glyph-name="Ygrave" unicode="&#x1ef2;" horiz-adv-x="1290" 
d="M539 1561l-234 327h344l166 -327h-276zM494 0v580l-488 854h338l299 -549h6l299 549h336l-487 -854v-580h-303z" />
    <glyph glyph-name="ygrave" unicode="&#x1ef3;" horiz-adv-x="1077" 
d="M694 1126h-260l-221 312h326zM756 991h307l-535 -1450h-307l164 449l-369 1001h312l209 -639h8z" />
    <glyph glyph-name="uni1EF4" unicode="&#x1ef4;" horiz-adv-x="1290" 
d="M494 0v580l-488 854h338l299 -549h6l299 549h336l-487 -854v-580h-303zM645 -444q-65 0 -108 42t-43 107q0 64 43 106t108 42q64 0 108 -42t44 -106q0 -65 -44 -107t-108 -42z" />
    <glyph glyph-name="uni1EF5" unicode="&#x1ef5;" horiz-adv-x="1077" 
d="M756 991h307l-535 -1450h-307l164 449l-369 1001h312l209 -639h8zM879 -434q-65 0 -108.5 42t-43.5 107q0 64 43.5 106t108.5 42q64 0 107.5 -42t43.5 -106q0 -65 -43.5 -107t-107.5 -42z" />
    <glyph glyph-name="uni1EF6" unicode="&#x1ef6;" horiz-adv-x="1290" 
d="M494 0v580l-488 854h338l299 -549h6l299 549h336l-487 -854v-580h-303zM807 1780q3 -114 -102 -248h-130q18 32 31 60.5t17 40.5l4 12q-66 6 -108.5 55.5t-37.5 114.5q6 66 55.5 108t114.5 37q65 -6 109 -57.5t47 -122.5z" />
    <glyph glyph-name="uni1EF7" unicode="&#x1ef7;" horiz-adv-x="1077" 
d="M756 991h307l-535 -1450h-307l164 449l-369 1001h312l209 -639h8zM713 1341q2 -103 -97 -229h-116q16 29 27.5 55.5t14.5 38.5l3 11q-60 5 -98.5 50t-32.5 105q4 60 49.5 99t105.5 34q59 -4 100 -52t44 -112z" />
    <glyph glyph-name="uni1EF8" unicode="&#x1ef8;" horiz-adv-x="1290" 
d="M768 1579q-67 0 -143 57q-45 37 -68 37q-45 0 -45 -88h-158q0 119 44 180.5t124 61.5q67 0 144 -58q43 -36 69 -36q41 0 41 88h158q0 -117 -43.5 -179.5t-122.5 -62.5zM494 0v580l-488 854h338l299 -549h6l299 549h336l-487 -854v-580h-303z" />
    <glyph glyph-name="uni1EF9" unicode="&#x1ef9;" horiz-adv-x="1077" 
d="M690 1145q-67 0 -143 57q-45 37 -68 37q-45 0 -45 -88h-158q0 119 44 180.5t124 61.5q67 0 144 -58q45 -37 69 -37q41 0 41 88h158q0 -117 -43.5 -179t-122.5 -62zM756 991h307l-535 -1450h-307l164 449l-369 1001h312l209 -639h8z" />
    <glyph glyph-name="uni2000" unicode="&#x2000;" horiz-adv-x="1024" 
 />
    <glyph glyph-name="uni2001" unicode="&#x2001;" horiz-adv-x="2048" 
 />
    <glyph glyph-name="uni2002" unicode="&#x2002;" horiz-adv-x="1024" 
 />
    <glyph glyph-name="uni2003" unicode="&#x2003;" horiz-adv-x="2048" 
 />
    <glyph glyph-name="uni2009" unicode="&#x2009;" horiz-adv-x="307" 
 />
    <glyph glyph-name="uni200A" unicode="&#x200a;" horiz-adv-x="153" 
 />
    <glyph glyph-name="uni200B" unicode="&#x200b;" 
 />
    <glyph glyph-name="endash" unicode="&#x2013;" horiz-adv-x="1024" 
d="M0 444v254h1024v-254h-1024z" />
    <glyph glyph-name="emdash" unicode="&#x2014;" horiz-adv-x="2048" 
d="M0 444v254h2048v-254h-2048z" />
    <glyph glyph-name="quoteleft" unicode="&#x2018;" horiz-adv-x="485" 
d="M252 1186q69 0 114.5 -43t45.5 -109q0 -70 -47.5 -117t-116.5 -47q-78 0 -127.5 62t-48.5 158q6 200 227 368l78 -86q-106 -96 -135 -186h10z" />
    <glyph glyph-name="quoteright" unicode="&#x2019;" horiz-adv-x="485" 
d="M238 1458q78 0 126.5 -61t47.5 -158q-1 -98 -59.5 -192.5t-166.5 -176.5l-77 86q106 95 135 187h-13q-69 0 -114 42.5t-45 108.5q0 70 47.5 117t118.5 47z" />
    <glyph glyph-name="quotesinglbase" unicode="&#x201a;" horiz-adv-x="520" 
d="M254 315q80 0 128.5 -60.5t47.5 -158.5q-2 -97 -60 -191.5t-167 -176.5l-78 86q105 92 135 186h-10q-69 0 -114.5 43t-45.5 109q0 70 47.5 116.5t116.5 46.5z" />
    <glyph glyph-name="quotedblleft" unicode="&#x201c;" horiz-adv-x="907" 
d="M252 1186q69 0 114.5 -43t45.5 -109q0 -70 -47.5 -117t-116.5 -47q-78 0 -127.5 62t-48.5 158q6 200 227 368l78 -86q-106 -96 -135 -186h10zM676 1186q69 0 114.5 -43t45.5 -109q0 -70 -47.5 -117t-116.5 -47q-78 0 -127.5 62t-48.5 158q6 200 227 368l78 -86
q-106 -96 -135 -186h10z" />
    <glyph glyph-name="quotedblright" unicode="&#x201d;" horiz-adv-x="907" 
d="M238 1458q78 0 126.5 -61t47.5 -158q-1 -98 -59.5 -192.5t-166.5 -176.5l-77 86q106 95 135 187h-13q-69 0 -114 42.5t-45 108.5q0 70 47.5 117t118.5 47zM659 1458q80 0 129 -61t48 -158q-1 -98 -59.5 -192.5t-166.5 -176.5l-78 86q107 97 136 187h-13q-69 0 -114 42.5
t-45 108.5q0 70 47 117t116 47z" />
    <glyph glyph-name="quotedblbase" unicode="&#x201e;" horiz-adv-x="944" 
d="M254 315q80 0 128.5 -60.5t47.5 -158.5q-2 -97 -60 -191.5t-167 -176.5l-78 86q105 92 135 186h-10q-69 0 -114.5 43t-45.5 109q0 70 47.5 116.5t116.5 46.5zM678 315q80 0 128.5 -60.5t47.5 -158.5q-3 -97 -61.5 -191.5t-165.5 -176.5l-78 86q106 96 135 186h-10
q-69 0 -114.5 43t-45.5 109q0 70 47.5 116.5t116.5 46.5z" />
    <glyph glyph-name="dagger" unicode="&#x2020;" horiz-adv-x="1060" 
d="M981 1067v-264h-315v-1065h-271v1065h-315v264h315v453h271v-453h315z" />
    <glyph glyph-name="daggerdbl" unicode="&#x2021;" horiz-adv-x="1101" 
d="M1001 803h-315v-350h275v-265h-275v-450h-270v450h-275v265h275v350h-316v264h316v453h270v-453h315v-264z" />
    <glyph glyph-name="bullet" unicode="&#x2022;" horiz-adv-x="1050" 
d="M524 369q-144 0 -241 98.5t-97 241.5q0 142 97 240t241 98q145 0 242.5 -98t97.5 -240q0 -143 -97.5 -241.5t-242.5 -98.5z" />
    <glyph glyph-name="ellipsis" unicode="&#x2026;" horiz-adv-x="1650" 
d="M283 -18q-85 0 -139 53.5t-54 138.5t54 139t139 54q83 0 136.5 -54t53.5 -139t-53.5 -138.5t-136.5 -53.5zM825 -18q-83 0 -136.5 53.5t-53.5 138.5t53.5 139t136.5 54t137 -54t54 -139q0 -84 -54 -138t-137 -54zM1368 -18q-83 0 -136.5 53.5t-53.5 138.5t53.5 139
t136.5 54q85 0 139 -54t54 -139t-54 -138.5t-139 -53.5z" />
    <glyph glyph-name="perthousand" unicode="&#x2030;" horiz-adv-x="2719" 
d="M444 702q-164 0 -273.5 108t-109.5 271q0 161 109.5 269t273.5 108t273.5 -108t109.5 -269q0 -163 -109.5 -271t-273.5 -108zM344 0l905 1434h269l-904 -1434h-270zM444 909q71 0 115.5 48t44.5 124q0 75 -44 122.5t-116 47.5t-115.5 -47.5t-43.5 -122.5q0 -76 44 -124
t115 -48zM1419 -25q-164 0 -273.5 108t-109.5 269q0 163 109.5 271t273.5 108t273.5 -108t109.5 -271q0 -161 -109.5 -269t-273.5 -108zM2275 -25q-164 0 -273.5 108t-109.5 269q0 163 109.5 271t273.5 108t273.5 -108t109.5 -271q0 -161 -109.5 -269t-273.5 -108zM1419 182
q71 0 115.5 47.5t44.5 122.5q0 76 -44.5 124t-115.5 48q-72 0 -115.5 -47.5t-43.5 -124.5q0 -75 43.5 -122.5t115.5 -47.5zM2275 182q72 0 116 47.5t44 122.5q0 77 -44 124.5t-116 47.5t-115.5 -47.5t-43.5 -124.5q0 -75 43.5 -122.5t115.5 -47.5z" />
    <glyph glyph-name="guilsinglleft" unicode="&#x2039;" horiz-adv-x="772" 
d="M694 1032l-313 -452l313 -451h-311l-317 451l317 452h311z" />
    <glyph glyph-name="guilsinglright" unicode="&#x203a;" horiz-adv-x="772" 
d="M389 1032l316 -452l-316 -451h-313l315 451l-315 452h313z" />
    <glyph glyph-name="fraction" unicode="&#x2044;" horiz-adv-x="1173" 
d="M0 0l903 1434h271l-906 -1434h-268z" />
    <glyph glyph-name="uni2070" unicode="&#x2070;" horiz-adv-x="819" 
d="M410 541q-163 0 -253.5 89t-90.5 247v245q0 158 90.5 247t253.5 89q164 0 255 -89.5t91 -246.5v-245q0 -157 -91 -246.5t-255 -89.5zM410 748q55 0 84.5 30t29.5 88v267q0 58 -29.5 88t-84.5 30t-85 -30t-30 -88v-267q0 -58 30 -88t85 -30z" />
    <glyph glyph-name="uni2074" unicode="&#x2074;" horiz-adv-x="821" 
d="M778 887v-193h-94v-149h-209v149h-416v178l355 562h270v-547h94zM287 887h188v299z" />
    <glyph glyph-name="uni2075" unicode="&#x2075;" horiz-adv-x="772" 
d="M442 1133q122 0 200.5 -80.5t78.5 -212.5q0 -141 -91.5 -225.5t-240.5 -84.5q-133 0 -223 70t-103 191l220 40q7 -44 37.5 -69t72.5 -25q47 0 76 30.5t29 80.5t-28.5 80t-74.5 30q-68 0 -98 -51h-221l63 527h525v-205h-338l-17 -127q60 31 133 31z" />
    <glyph glyph-name="uni2076" unicode="&#x2076;" horiz-adv-x="790" 
d="M449 1178q125 -6 208.5 -94t83.5 -218q0 -143 -100 -239.5t-244 -96.5t-245 96t-101 240q0 60 24.5 123t82.5 150l198 295h267zM397 737q53 0 86 35t33 92q0 55 -33 90t-86 35t-87 -35t-34 -90q0 -57 34 -92t87 -35z" />
    <glyph glyph-name="uni2077" unicode="&#x2077;" horiz-adv-x="690" 
d="M43 1434h600v-207l-278 -682h-271l291 672h-342v217z" />
    <glyph glyph-name="uni2078" unicode="&#x2078;" horiz-adv-x="784" 
d="M596 1016q129 -66 129 -213q0 -118 -89 -190t-245 -72q-155 0 -243.5 72t-88.5 190q0 70 33.5 125.5t95.5 87.5q-116 70 -116 192q0 109 88 179.5t231 70.5q145 0 233.5 -71t88.5 -179q0 -122 -117 -192zM391 1272q-42 0 -69 -24.5t-27 -63.5q0 -38 27.5 -63t68.5 -25
q43 0 69.5 25t26.5 63q0 40 -26.5 64t-69.5 24zM391 727q45 0 76 27t31 69q0 41 -30.5 68t-76.5 27q-45 0 -75.5 -27t-30.5 -68q0 -42 31 -69t75 -27z" />
    <glyph glyph-name="uni2079" unicode="&#x2079;" horiz-adv-x="790" 
d="M397 1458q143 0 243.5 -96t100.5 -240q0 -62 -23.5 -124t-82.5 -148l-197 -295h-268l174 256q-124 6 -208.5 93.5t-84.5 217.5q0 143 101 239.5t245 96.5zM397 999q53 0 87 35t34 90q0 57 -34 92t-87 35t-87 -35t-34 -92q0 -55 34 -90t87 -35z" />
    <glyph glyph-name="Euro" unicode="&#x20ac;" horiz-adv-x="1280" 
d="M760 227q77 0 131.5 53.5t75.5 155.5l270 -67q-35 -181 -167.5 -287.5t-309.5 -106.5q-200 0 -343 135t-190 377h-159v162h141q-2 23 -2 68q0 44 2 67h-141v162h159q49 242 191 377t342 135q176 0 309 -106t168 -287l-274 -68q-18 103 -72.5 156t-130.5 53
q-86 0 -149 -65t-93 -195h356v-162h-376q-2 -23 -2 -67q0 -45 2 -68h376v-162h-356q30 -129 93.5 -194.5t148.5 -65.5z" />
    <glyph glyph-name="uni2116" unicode="&#x2116;" horiz-adv-x="2529" 
d="M1999 569q-197 0 -322 124t-125 321q0 196 125 320t322 124q196 0 321 -123.5t125 -320.5t-125 -321t-321 -124zM1063 524v910h303v-1434h-307l-592 909h-6v-909h-303v1434h307l590 -910h8zM1999 1214q-76 0 -125 -54.5t-49 -145.5q0 -92 49 -147.5t125 -55.5t125 56
t49 147q0 90 -49 145t-125 55zM1675 186v252h647v-252h-647z" />
    <glyph glyph-name="trademark" unicode="&#x2122;" horiz-adv-x="1566" 
d="M59 1235v199h533v-199h-162v-428h-209v428h-162zM1239 1434h240v-627h-195v358l-131 -225h-145l-129 223v-356h-195v627h238l159 -275z" />
    <glyph glyph-name="uni2126" unicode="&#x2126;" horiz-adv-x="1622" 
d="M1503 770q0 -172 -70 -309.5t-198 -206.5h268v-254h-602v283q148 77 229.5 198t81.5 279q0 191 -112 311.5t-289 120.5t-289 -120.5t-112 -311.5q0 -158 81.5 -279t229.5 -198v-283h-602v254h268q-128 69 -198 206.5t-70 309.5q0 196 92 354t250 246t350 88t350 -88
t250 -246t92 -354z" />
    <glyph glyph-name="estimated" unicode="&#x212e;" horiz-adv-x="1669" 
d="M834 0q-152 0 -284.5 54.5t-226 149.5t-147 228t-53.5 285q0 205 91 368.5t253.5 256t366.5 92.5t366.5 -93t253 -256.5t90.5 -367.5v-25h-1196v-309q0 -72 20.5 -119t71.5 -84q171 -127 394 -127q172 0 315 75t231 210l43 -33q-97 -145 -251.5 -225t-337.5 -80zM348 741
h981v299q0 71 -20 120.5t-68 86.5q-177 133 -407 133q-223 0 -394 -127q-51 -37 -71.5 -84t-20.5 -120v-308z" />
    <glyph glyph-name="arrowleft" unicode="&#x2190;" horiz-adv-x="1454" 
d="M1384 852v-270h-841l248 -250l-177 -180l-542 565l542 565l177 -180l-248 -250h841z" />
    <glyph glyph-name="arrowup" unicode="&#x2191;" horiz-adv-x="1454" 
d="M1292 836l-180 -179l-250 250v-841h-270v841l-250 -250l-180 179l565 542z" />
    <glyph glyph-name="arrowright" unicode="&#x2192;" horiz-adv-x="1454" 
d="M840 1282l542 -565l-542 -565l-176 180l247 250h-841v270h841l-247 250z" />
    <glyph glyph-name="arrowdown" unicode="&#x2193;" horiz-adv-x="1454" 
d="M1112 776l180 -178l-565 -543l-565 543l180 178l250 -250v842h270v-842z" />
    <glyph glyph-name="uni2196" unicode="&#x2196;" horiz-adv-x="1454" 
d="M1247 389l-192 -192l-594 594v-351l-254 -2l16 783l783 16l-2 -254h-351z" />
    <glyph glyph-name="uni2197" unicode="&#x2197;" horiz-adv-x="1454" 
d="M1247 438l-254 2v351l-594 -594l-192 192l594 594h-350l-2 254l782 -16z" />
    <glyph glyph-name="uni2198" unicode="&#x2198;" horiz-adv-x="1454" 
d="M993 993l254 2l-16 -782l-782 -16l2 254h350l-594 593l192 193l594 -594v350z" />
    <glyph glyph-name="uni2199" unicode="&#x2199;" horiz-adv-x="1454" 
d="M653 451h351l2 -254l-783 16l-16 782l254 -2v-350l594 594l192 -193z" />
    <glyph glyph-name="partialdiff" unicode="&#x2202;" horiz-adv-x="1284" 
d="M580 1458q618 0 618 -774q0 -392 -184 -567q-155 -142 -391 -142q-249 0 -398 137t-149 355q0 206 140.5 341.5t356.5 135.5q206 0 320 -131h8q-15 209 -94.5 296t-251.5 87q-137 0 -266 -59l-60 245q162 76 351 76zM625 225q113 0 181 66.5t68 175.5q0 105 -67.5 168
t-181.5 63t-183 -63.5t-69 -167.5q0 -109 69 -175.5t183 -66.5z" />
    <glyph glyph-name="uni2206" unicode="&#x2206;" horiz-adv-x="1435" 
d="M819 1434l580 -1295l-88 -139h-1186l-86 139l579 1295h201zM1030 270l-311 713l-311 -713h622z" />
    <glyph glyph-name="product" unicode="&#x220f;" horiz-adv-x="1355" 
d="M158 1520h1040v-1782h-291v1513h-456v-1513h-293v1782z" />
    <glyph glyph-name="summation" unicode="&#x2211;" horiz-adv-x="1099" 
d="M1051 1520v-269h-625l451 -622l-451 -623h625v-268h-965v268l451 623l-451 622v269h965z" />
    <glyph glyph-name="minus" unicode="&#x2212;" horiz-adv-x="1331" 
d="M201 518v262h929v-262h-929z" />
    <glyph glyph-name="radical" unicode="&#x221a;" horiz-adv-x="1337" 
d="M1012 1520h299l-512 -1782h-297l-254 713h-203v266h408l182 -527z" />
    <glyph glyph-name="infinity" unicode="&#x221e;" horiz-adv-x="1548" 
d="M1100 1073q174 0 277.5 -110t103.5 -281t-103.5 -281t-277.5 -110q-202 0 -326 174q-60 -82 -138 -128t-190 -46q-172 0 -276 110.5t-104 280.5t104 280.5t276 110.5q112 0 190 -46t138 -128q124 174 326 174zM449 508q63 0 107 44t91 130q-47 86 -91 130t-107 44
q-65 0 -108.5 -48.5t-43.5 -125.5t43.5 -125.5t108.5 -48.5zM1100 508q65 0 107 48.5t42 125.5t-42 125.5t-107 48.5q-63 0 -108.5 -44.5t-92.5 -129.5q47 -85 92.5 -129.5t108.5 -44.5z" />
    <glyph glyph-name="integral" unicode="&#x222b;" horiz-adv-x="833" 
d="M45 -262v254h107q64 0 91 26.5t27 90.5v1114q0 297 314 297h204v-254h-106q-64 0 -91.5 -26.5t-27.5 -90.5v-1114q0 -297 -313 -297h-205z" />
    <glyph glyph-name="approxequal" unicode="&#x2248;" horiz-adv-x="1331" 
d="M881 690q-75 0 -215 48t-215 48q-66 0 -122.5 -20.5t-127.5 -67.5v263q118 86 254 86q72 0 214 -48.5t210 -48.5q71 0 137 25.5t114 64.5v-262q-122 -88 -249 -88zM881 252q-75 0 -215 49t-215 49q-67 0 -124.5 -21.5t-125.5 -68.5v262q119 88 254 88q72 0 214 -49
t210 -49q72 0 138 25.5t113 64.5v-262q-126 -88 -249 -88z" />
    <glyph glyph-name="notequal" unicode="&#x2260;" horiz-adv-x="1331" 
d="M1130 737h-321l-74 -176h395v-262h-505l-90 -215h-213l90 215h-211v262h321l74 176h-395v262h506l90 215h213l-90 -215h210v-262z" />
    <glyph glyph-name="lessequal" unicode="&#x2264;" horiz-adv-x="1331" 
d="M1130 1247v-272l-579 -176l579 -176v-275l-929 322v258zM201 0v262h929v-262h-929z" />
    <glyph glyph-name="greaterequal" unicode="&#x2265;" horiz-adv-x="1331" 
d="M201 1247l929 -319v-258l-929 -322v275l579 176l-579 176v272zM201 0v262h929v-262h-929z" />
    <glyph glyph-name="filledbox" unicode="&#x25a0;" horiz-adv-x="1843" 
d="M205 0v1434h1433v-1434h-1433z" />
    <glyph glyph-name="triagup" unicode="&#x25b2;" horiz-adv-x="1843" 
d="M205 0l717 1434l716 -1434h-1433z" />
    <glyph glyph-name="triagdn" unicode="&#x25bc;" horiz-adv-x="1843" 
d="M922 0l-717 1434h1433z" />
    <glyph glyph-name="uni25C6" unicode="&#x25c6;" horiz-adv-x="1843" 
d="M920 0l-715 715l715 719l718 -719z" />
    <glyph glyph-name="lozenge" unicode="&#x25ca;" horiz-adv-x="1335" 
d="M39 717l514 717h229l514 -717l-514 -717h-229zM369 715l297 -416l301 420l-299 416z" />
    <glyph glyph-name="uni25CF" unicode="&#x25cf;" horiz-adv-x="1843" 
d="M922 0q-145 0 -278 57t-229 153t-153 229t-57 278t57 278t153 229t229 153t278 57t278 -57t228.5 -153t152.5 -228.5t57 -278.5t-57 -278.5t-152.5 -228.5t-228.5 -153t-278 -57z" />
    <glyph glyph-name="uni2610" unicode="&#x2610;" horiz-adv-x="1843" 
d="M205 0v1434h1433v-1434h-1433zM371 156h1102v1122h-1102v-1122z" />
    <glyph glyph-name="uni2611" unicode="&#x2611;" horiz-adv-x="1843" 
d="M205 1434h1433v-1434h-1433v1434zM1473 156v1122h-1102v-1122h1102zM1352 1055l-465 -803l-393 227l131 228l176 -103l334 576z" />
    <glyph glyph-name="uni2612" unicode="&#x2612;" horiz-adv-x="1843" 
d="M205 0v1434h1433v-1434h-1433zM371 156h1102v1122h-1102v-1122zM639 264l-170 170l283 283l-283 282l170 170l283 -282l282 282l170 -170l-282 -282l282 -283l-170 -170l-282 283z" />
    <glyph glyph-name="heart" unicode="&#x2665;" horiz-adv-x="1843" 
d="M922 98q-65 63 -150.5 127t-153.5 107t-139 98.5t-118 108.5t-77 130t-30 169q0 97 32 176t84 127.5t115.5 74t130.5 25.5q119 0 205.5 -73t96.5 -205h8q10 132 96 205t205 73q67 0 130.5 -25.5t115.5 -74t84 -127.5t32 -176q0 -92 -30 -169t-77 -130t-117.5 -108.5
t-138.5 -98.5t-153.5 -107t-150.5 -127z" />
    <glyph glyph-name="uni2B51" unicode="&#x2b51;" horiz-adv-x="1843" 
d="M446 -6l183 557l-469 340h581l179 553l178 -555h585l-473 -342l181 -553l-471 344z" />
    <glyph glyph-name="uni00A40301" horiz-adv-x="1210" 
d="M985 1888l-235 -327h-275l164 327h346zM211 1434h860v-934q0 -259 -131.5 -392t-378.5 -133q-222 0 -352.5 106.5t-155.5 309.5l295 68q24 -108 77 -155.5t136 -47.5q100 0 153.5 64t53.5 194v637h-557v283z" />
    <glyph glyph-name="i.loclTRK" horiz-adv-x="544" 
d="M272 1126q-76 0 -128 50.5t-52 126.5t52 126t128 50t128.5 -50t52.5 -126t-52.5 -126.5t-128.5 -50.5zM129 0v991h287v-991h-287z" />
    <glyph glyph-name="uni006A0301" horiz-adv-x="544" 
d="M104 1126l113 312h326l-178 -312h-261zM74 -483q-65 0 -127 12v248q32 -4 57 -4q67 0 96 31t29 106v1081h287v-1108q0 -195 -81 -280.5t-261 -85.5z" />
    <glyph glyph-name="a.ss01" horiz-adv-x="1124" 
d="M571 1016q206 0 315 -104.5t109 -303.5v-608h-258l-12 123h-6q-43 -69 -124.5 -108.5t-184.5 -39.5q-149 0 -240.5 80.5t-91.5 208.5q0 124 91 203t275 106l275 41v4q0 162 -158 162q-150 0 -184 -143l-271 55q30 150 151 237t314 87zM496 195q99 0 161 59.5t62 157.5v16
l-197 -29q-153 -19 -153 -112q0 -44 33 -68t94 -24z" />
    <glyph glyph-name="aacute.ss01" horiz-adv-x="1124" 
d="M862 1438l-221 -312h-260l156 312h325zM571 1016q206 0 315 -104.5t109 -303.5v-608h-258l-12 123h-6q-43 -69 -124.5 -108.5t-184.5 -39.5q-149 0 -240.5 80.5t-91.5 208.5q0 124 91 203t275 106l275 41v4q0 162 -158 162q-150 0 -184 -143l-271 55q30 150 151 237
t314 87zM496 195q99 0 161 59.5t62 157.5v16l-197 -29q-153 -19 -153 -112q0 -44 33 -68t94 -24z" />
    <glyph glyph-name="abreve.ss01" horiz-adv-x="1124" 
d="M549 1124q-147 0 -230 78t-83 211v21h213q0 -138 100 -138t100 138h213v-21q0 -133 -83 -211t-230 -78zM571 1016q206 0 315 -104.5t109 -303.5v-608h-258l-12 123h-6q-43 -69 -124.5 -108.5t-184.5 -39.5q-149 0 -240.5 80.5t-91.5 208.5q0 124 91 203t275 106l275 41v4
q0 162 -158 162q-150 0 -184 -143l-271 55q30 150 151 237t314 87zM496 195q99 0 161 59.5t62 157.5v16l-197 -29q-153 -19 -153 -112q0 -44 33 -68t94 -24z" />
    <glyph glyph-name="uni01CE.ss01" horiz-adv-x="1124" 
d="M688 1126h-278l-240 312h258l121 -150l121 150h258zM571 1016q206 0 315 -104.5t109 -303.5v-608h-258l-12 123h-6q-43 -69 -124.5 -108.5t-184.5 -39.5q-149 0 -240.5 80.5t-91.5 208.5q0 124 91 203t275 106l275 41v4q0 162 -158 162q-150 0 -184 -143l-271 55
q30 150 151 237t314 87zM496 195q99 0 161 59.5t62 157.5v16l-197 -29q-153 -19 -153 -112q0 -44 33 -68t94 -24z" />
    <glyph glyph-name="acircumflex.ss01" horiz-adv-x="1124" 
d="M549 1276l-121 -150h-258l240 312h278l240 -312h-258zM571 1016q206 0 315 -104.5t109 -303.5v-608h-258l-12 123h-6q-43 -69 -124.5 -108.5t-184.5 -39.5q-149 0 -240.5 80.5t-91.5 208.5q0 124 91 203t275 106l275 41v4q0 162 -158 162q-150 0 -184 -143l-271 55
q30 150 151 237t314 87zM496 195q99 0 161 59.5t62 157.5v16l-197 -29q-153 -19 -153 -112q0 -44 33 -68t94 -24z" />
    <glyph glyph-name="adieresis.ss01" horiz-adv-x="1124" 
d="M324 1135q-68 0 -116 47.5t-48 120.5q0 74 47.5 120.5t116.5 46.5q72 0 120 -46.5t48 -120.5q0 -73 -48.5 -120.5t-119.5 -47.5zM772 1135q-70 0 -118 47.5t-48 120.5q0 74 48 120.5t118 46.5t118 -46.5t48 -120.5q0 -73 -48 -120.5t-118 -47.5zM571 1016
q206 0 315 -104.5t109 -303.5v-608h-258l-12 123h-6q-43 -69 -124.5 -108.5t-184.5 -39.5q-149 0 -240.5 80.5t-91.5 208.5q0 124 91 203t275 106l275 41v4q0 162 -158 162q-150 0 -184 -143l-271 55q30 150 151 237t314 87zM496 195q99 0 161 59.5t62 157.5v16l-197 -29
q-153 -19 -153 -112q0 -44 33 -68t94 -24z" />
    <glyph glyph-name="agrave.ss01" horiz-adv-x="1124" 
d="M705 1126h-261l-221 312h326zM571 1016q206 0 315 -104.5t109 -303.5v-608h-258l-12 123h-6q-43 -69 -124.5 -108.5t-184.5 -39.5q-149 0 -240.5 80.5t-91.5 208.5q0 124 91 203t275 106l275 41v4q0 162 -158 162q-150 0 -184 -143l-271 55q30 150 151 237t314 87z
M496 195q99 0 161 59.5t62 157.5v16l-197 -29q-153 -19 -153 -112q0 -44 33 -68t94 -24z" />
    <glyph glyph-name="amacron.ss01" horiz-adv-x="1124" 
d="M842 1380v-213h-586v213h586zM571 1016q206 0 315 -104.5t109 -303.5v-608h-258l-12 123h-6q-43 -69 -124.5 -108.5t-184.5 -39.5q-149 0 -240.5 80.5t-91.5 208.5q0 124 91 203t275 106l275 41v4q0 162 -158 162q-150 0 -184 -143l-271 55q30 150 151 237t314 87z
M496 195q99 0 161 59.5t62 157.5v16l-197 -29q-153 -19 -153 -112q0 -44 33 -68t94 -24z" />
    <glyph glyph-name="aogonek.ss01" horiz-adv-x="1124" 
d="M995 0q-79 -54 -110 -94t-31 -78q0 -64 80 -64q29 0 61 11v-211q-50 -15 -114 -15q-120 0 -190 57.5t-70 155.5q0 150 147 238h-31l-12 123h-6q-43 -69 -124.5 -108.5t-184.5 -39.5q-149 0 -240.5 80.5t-91.5 208.5q0 124 91 203t275 106l275 41v4q0 162 -158 162
q-150 0 -184 -143l-271 55q30 150 151 237t314 87q206 0 315 -104.5t109 -303.5v-608zM496 195q99 0 161 59.5t62 157.5v16l-197 -29q-153 -19 -153 -112q0 -44 33 -68t94 -24z" />
    <glyph glyph-name="aring.ss01" horiz-adv-x="1124" 
d="M549 1106q-107 0 -177.5 66t-70.5 163t70.5 163.5t177.5 66.5t177.5 -66.5t70.5 -163.5t-70.5 -163t-177.5 -66zM549 1411q-35 0 -56.5 -21t-21.5 -55t21.5 -54.5t56.5 -20.5t56.5 20.5t21.5 54.5t-21.5 55t-56.5 21zM571 1016q206 0 315 -104.5t109 -303.5v-608h-258
l-12 123h-6q-43 -69 -124.5 -108.5t-184.5 -39.5q-149 0 -240.5 80.5t-91.5 208.5q0 124 91 203t275 106l275 41v4q0 162 -158 162q-150 0 -184 -143l-271 55q30 150 151 237t314 87zM496 195q99 0 161 59.5t62 157.5v16l-197 -29q-153 -19 -153 -112q0 -44 33 -68t94 -24z
" />
    <glyph glyph-name="atilde.ss01" horiz-adv-x="1124" 
d="M444 1243q-51 0 -51 -115h-186q0 155 50.5 235.5t145.5 80.5q79 0 170 -76q52 -47 82 -47q50 0 50 115h186q0 -154 -51 -235t-144 -81q-79 0 -170 76q-55 47 -82 47zM571 1016q206 0 315 -104.5t109 -303.5v-608h-258l-12 123h-6q-43 -69 -124.5 -108.5t-184.5 -39.5
q-149 0 -240.5 80.5t-91.5 208.5q0 124 91 203t275 106l275 41v4q0 162 -158 162q-150 0 -184 -143l-271 55q30 150 151 237t314 87zM496 195q99 0 161 59.5t62 157.5v16l-197 -29q-153 -19 -153 -112q0 -44 33 -68t94 -24z" />
    <glyph glyph-name="g.ss02" horiz-adv-x="1026" 
d="M1012 1016v-148l-148 -26q49 -76 49 -185q0 -157 -109.5 -255.5t-291.5 -98.5q-71 0 -150 21q-30 -7 -47.5 -27t-17.5 -47q0 -31 24 -48.5t68 -17.5h279q169 0 256.5 -78t87.5 -227q0 -174 -126 -268t-382 -94q-236 0 -356.5 79.5t-120.5 219.5q0 142 120 207
q-86 67 -86 176q0 74 39 130.5t107 86.5q-94 97 -94 241q0 160 109 259.5t290 99.5h500zM512 512q69 0 110.5 41t41.5 109q0 66 -41.5 106.5t-110.5 40.5q-67 0 -108.5 -40.5t-41.5 -106.5q0 -68 41 -109t109 -41zM621 -47h-232q-41 0 -69.5 -28.5t-28.5 -71.5
q0 -115 225 -115q232 0 232 121q0 94 -127 94z" />
    <glyph glyph-name="gbreve.ss02" horiz-adv-x="1026" 
d="M530 1124q-147 0 -230 78t-83 211v21h213q0 -138 100 -138q101 0 101 138h213v-21q0 -133 -83.5 -211t-230.5 -78zM1012 1016v-148l-148 -26q49 -76 49 -185q0 -157 -109.5 -255.5t-291.5 -98.5q-71 0 -150 21q-30 -7 -47.5 -27t-17.5 -47q0 -31 24 -48.5t68 -17.5h279
q169 0 256.5 -78t87.5 -227q0 -174 -126 -268t-382 -94q-236 0 -356.5 79.5t-120.5 219.5q0 142 120 207q-86 67 -86 176q0 74 39 130.5t107 86.5q-94 97 -94 241q0 160 109 259.5t290 99.5h500zM512 512q69 0 110.5 41t41.5 109q0 66 -41.5 106.5t-110.5 40.5
q-67 0 -108.5 -40.5t-41.5 -106.5q0 -68 41 -109t109 -41zM621 -47h-232q-41 0 -69.5 -28.5t-28.5 -71.5q0 -115 225 -115q232 0 232 121q0 94 -127 94z" />
    <glyph glyph-name="gcaron.ss02" horiz-adv-x="1026" 
d="M670 1126h-279l-239 312h258l120 -150l121 150h258zM1012 1016v-148l-148 -26q49 -76 49 -185q0 -157 -109.5 -255.5t-291.5 -98.5q-71 0 -150 21q-30 -7 -47.5 -27t-17.5 -47q0 -31 24 -48.5t68 -17.5h279q169 0 256.5 -78t87.5 -227q0 -174 -126 -268t-382 -94
q-236 0 -356.5 79.5t-120.5 219.5q0 142 120 207q-86 67 -86 176q0 74 39 130.5t107 86.5q-94 97 -94 241q0 160 109 259.5t290 99.5h500zM512 512q69 0 110.5 41t41.5 109q0 66 -41.5 106.5t-110.5 40.5q-67 0 -108.5 -40.5t-41.5 -106.5q0 -68 41 -109t109 -41zM621 -47
h-232q-41 0 -69.5 -28.5t-28.5 -71.5q0 -115 225 -115q232 0 232 121q0 94 -127 94z" />
    <glyph glyph-name="gcircumflex.ss02" horiz-adv-x="1026" 
d="M530 1276l-120 -150h-258l239 312h279l239 -312h-258zM1012 1016v-148l-148 -26q49 -76 49 -185q0 -157 -109.5 -255.5t-291.5 -98.5q-71 0 -150 21q-30 -7 -47.5 -27t-17.5 -47q0 -31 24 -48.5t68 -17.5h279q169 0 256.5 -78t87.5 -227q0 -174 -126 -268t-382 -94
q-236 0 -356.5 79.5t-120.5 219.5q0 142 120 207q-86 67 -86 176q0 74 39 130.5t107 86.5q-94 97 -94 241q0 160 109 259.5t290 99.5h500zM512 512q69 0 110.5 41t41.5 109q0 66 -41.5 106.5t-110.5 40.5q-67 0 -108.5 -40.5t-41.5 -106.5q0 -68 41 -109t109 -41zM621 -47
h-232q-41 0 -69.5 -28.5t-28.5 -71.5q0 -115 225 -115q232 0 232 121q0 94 -127 94z" />
    <glyph glyph-name="uni0123.ss02" horiz-adv-x="1026" 
d="M539 1124q-84 0 -135 61.5t-50 160.5q3 106 70 210h156q-38 -56 -56 -118h19q74 0 120 -45t46 -111q0 -65 -48.5 -111.5t-121.5 -46.5zM1012 1016v-148l-148 -26q49 -76 49 -185q0 -157 -109.5 -255.5t-291.5 -98.5q-71 0 -150 21q-30 -7 -47.5 -27t-17.5 -47
q0 -31 24 -48.5t68 -17.5h279q169 0 256.5 -78t87.5 -227q0 -174 -126 -268t-382 -94q-236 0 -356.5 79.5t-120.5 219.5q0 142 120 207q-86 67 -86 176q0 74 39 130.5t107 86.5q-94 97 -94 241q0 160 109 259.5t290 99.5h500zM512 512q69 0 110.5 41t41.5 109
q0 66 -41.5 106.5t-110.5 40.5q-67 0 -108.5 -40.5t-41.5 -106.5q0 -68 41 -109t109 -41zM621 -47h-232q-41 0 -69.5 -28.5t-28.5 -71.5q0 -115 225 -115q232 0 232 121q0 94 -127 94z" />
    <glyph glyph-name="gdotaccent.ss02" horiz-adv-x="1026" 
d="M530 1126q-76 0 -128 50.5t-52 126.5t52 126t128 50t128.5 -50t52.5 -126t-52.5 -126.5t-128.5 -50.5zM1012 1016v-148l-148 -26q49 -76 49 -185q0 -157 -109.5 -255.5t-291.5 -98.5q-71 0 -150 21q-30 -7 -47.5 -27t-17.5 -47q0 -31 24 -48.5t68 -17.5h279
q169 0 256.5 -78t87.5 -227q0 -174 -126 -268t-382 -94q-236 0 -356.5 79.5t-120.5 219.5q0 142 120 207q-86 67 -86 176q0 74 39 130.5t107 86.5q-94 97 -94 241q0 160 109 259.5t290 99.5h500zM512 512q69 0 110.5 41t41.5 109q0 66 -41.5 106.5t-110.5 40.5
q-67 0 -108.5 -40.5t-41.5 -106.5q0 -68 41 -109t109 -41zM621 -47h-232q-41 0 -69.5 -28.5t-28.5 -71.5q0 -115 225 -115q232 0 232 121q0 94 -127 94z" />
    <glyph glyph-name="uni1E21.ss02" horiz-adv-x="1026" 
d="M823 1380v-213h-585v213h585zM1012 1016v-148l-148 -26q49 -76 49 -185q0 -157 -109.5 -255.5t-291.5 -98.5q-71 0 -150 21q-30 -7 -47.5 -27t-17.5 -47q0 -31 24 -48.5t68 -17.5h279q169 0 256.5 -78t87.5 -227q0 -174 -126 -268t-382 -94q-236 0 -356.5 79.5
t-120.5 219.5q0 142 120 207q-86 67 -86 176q0 74 39 130.5t107 86.5q-94 97 -94 241q0 160 109 259.5t290 99.5h500zM512 512q69 0 110.5 41t41.5 109q0 66 -41.5 106.5t-110.5 40.5q-67 0 -108.5 -40.5t-41.5 -106.5q0 -68 41 -109t109 -41zM621 -47h-232
q-41 0 -69.5 -28.5t-28.5 -71.5q0 -115 225 -115q232 0 232 121q0 94 -127 94z" />
    <glyph glyph-name="y.ss03" horiz-adv-x="1167" 
d="M754 991h286v-995q0 -227 -130.5 -353t-356.5 -126q-186 0 -311.5 86t-155.5 245l266 72q47 -151 207 -151q95 0 150 57.5t55 169.5v166h-8q-41 -67 -122.5 -106.5t-176.5 -39.5q-155 0 -244.5 103t-89.5 295v577h287v-499q0 -112 39.5 -161.5t117.5 -49.5q88 0 137.5 55
t49.5 162v493z" />
    <glyph glyph-name="yacute.ss03" horiz-adv-x="1167" 
d="M899 1438l-221 -312h-260l155 312h326zM754 991h286v-995q0 -227 -130.5 -353t-356.5 -126q-186 0 -311.5 86t-155.5 245l266 72q47 -151 207 -151q95 0 150 57.5t55 169.5v166h-8q-41 -67 -122.5 -106.5t-176.5 -39.5q-155 0 -244.5 103t-89.5 295v577h287v-499
q0 -112 39.5 -161.5t117.5 -49.5q88 0 137.5 55t49.5 162v493z" />
    <glyph glyph-name="ycircumflex.ss03" horiz-adv-x="1167" 
d="M586 1276l-121 -150h-258l239 312h279l240 -312h-258zM754 991h286v-995q0 -227 -130.5 -353t-356.5 -126q-186 0 -311.5 86t-155.5 245l266 72q47 -151 207 -151q95 0 150 57.5t55 169.5v166h-8q-41 -67 -122.5 -106.5t-176.5 -39.5q-155 0 -244.5 103t-89.5 295v577
h287v-499q0 -112 39.5 -161.5t117.5 -49.5q88 0 137.5 55t49.5 162v493z" />
    <glyph glyph-name="ydieresis.ss03" horiz-adv-x="1167" 
d="M360 1135q-68 0 -115.5 47.5t-47.5 120.5q0 74 47 120.5t116 46.5q72 0 120 -46.5t48 -120.5q0 -73 -48.5 -120.5t-119.5 -47.5zM809 1135q-70 0 -118 47.5t-48 120.5q0 74 48 120.5t118 46.5t118 -46.5t48 -120.5q0 -73 -48 -120.5t-118 -47.5zM754 991h286v-995
q0 -227 -130.5 -353t-356.5 -126q-186 0 -311.5 86t-155.5 245l266 72q47 -151 207 -151q95 0 150 57.5t55 169.5v166h-8q-41 -67 -122.5 -106.5t-176.5 -39.5q-155 0 -244.5 103t-89.5 295v577h287v-499q0 -112 39.5 -161.5t117.5 -49.5q88 0 137.5 55t49.5 162v493z" />
    <glyph glyph-name="ygrave.ss03" horiz-adv-x="1167" 
d="M739 1126h-260l-221 312h326zM754 991h286v-995q0 -227 -130.5 -353t-356.5 -126q-186 0 -311.5 86t-155.5 245l266 72q47 -151 207 -151q95 0 150 57.5t55 169.5v166h-8q-41 -67 -122.5 -106.5t-176.5 -39.5q-155 0 -244.5 103t-89.5 295v577h287v-499
q0 -112 39.5 -161.5t117.5 -49.5q88 0 137.5 55t49.5 162v493z" />
    <glyph glyph-name="zero.zero" horiz-adv-x="1300" 
d="M649 1458q252 0 390.5 -142.5t138.5 -397.5v-402q0 -255 -138.5 -398t-390.5 -143q-251 0 -388.5 143t-137.5 398v402q0 255 137.5 397.5t388.5 142.5zM649 1186q-229 0 -229 -268v-230l452 303q-13 97 -70.5 146t-152.5 49zM649 248q112 0 171 66.5t59 201.5v232
l-455 -306q30 -194 225 -194z" />
    <glyph glyph-name="zero.lf" horiz-adv-x="1300" 
d="M649 -25q-251 0 -388.5 143t-137.5 398v402q0 255 137.5 397.5t388.5 142.5q252 0 390.5 -142.5t138.5 -397.5v-402q0 -255 -138.5 -398t-390.5 -143zM649 248q112 0 171 66.5t59 201.5v402q0 135 -59 201.5t-171 66.5q-229 0 -229 -268v-402q0 -268 229 -268z" />
    <glyph glyph-name="one.lf" horiz-adv-x="901" 
d="M479 1434h240v-1434h-299v991h-303v262h73q140 0 203 40t86 141z" />
    <glyph glyph-name="two.lf" horiz-adv-x="1171" 
d="M707 518q-126 -76 -190.5 -132t-92.5 -114h655v-272h-981v145q0 89 17.5 156.5t63 134.5t122.5 130.5t199 138.5q166 104 225 173t59 142q0 77 -46.5 121.5t-125.5 44.5q-90 0 -151 -62t-82 -192l-293 51q32 230 170.5 352.5t351.5 122.5q216 0 345.5 -118.5
t129.5 -317.5q0 -144 -84 -260.5t-292 -243.5z" />
    <glyph glyph-name="three.lf" horiz-adv-x="1202" 
d="M606 -25q-222 0 -359.5 120t-154.5 331l291 37q13 -105 72 -160t151 -55q93 0 149 51t56 135q0 83 -56 128.5t-161 45.5h-141v246h137q95 0 142.5 44t47.5 120q0 79 -47.5 123.5t-132.5 44.5q-175 0 -211 -207l-293 39q26 205 164 322.5t348 117.5t339.5 -112.5
t129.5 -296.5q0 -216 -188 -312v-6q106 -46 163.5 -131.5t57.5 -200.5q0 -187 -140 -305.5t-364 -118.5z" />
    <glyph glyph-name="four.lf" horiz-adv-x="1253" 
d="M1204 510v-254h-168v-256h-280v256h-680v236l602 942h358v-924h168zM379 510h377v592z" />
    <glyph glyph-name="five.lf" horiz-adv-x="1200" 
d="M680 946q197 0 322.5 -130.5t125.5 -344.5q0 -222 -143.5 -359t-374.5 -137q-209 0 -348 111.5t-164 300.5l291 53q15 -90 76.5 -141t148.5 -51q99 0 157 64t58 171q0 105 -57 165.5t-154 60.5q-64 0 -118.5 -27.5t-87.5 -79.5h-287l98 832h809v-273h-555l-35 -278
q100 63 238 63z" />
    <glyph glyph-name="six.lf" horiz-adv-x="1222" 
d="M662 995q207 0 348 -139.5t141 -353.5q0 -147 -71 -268t-195 -190t-273 -69q-147 0 -269 67.5t-193.5 187.5t-71.5 268q0 101 38.5 202.5t133.5 239.5l330 494h352l-297 -439h27zM614 248q102 0 170 70.5t68 179.5q0 108 -68 177.5t-170 69.5t-169.5 -69.5t-67.5 -177.5
q0 -109 67.5 -179.5t169.5 -70.5z" />
    <glyph glyph-name="seven.lf" horiz-adv-x="1077" 
d="M70 1434h944v-267l-496 -1167h-348l512 1161h-612v273z" />
    <glyph glyph-name="eight.lf" horiz-adv-x="1222" 
d="M610 -25q-238 0 -377 115.5t-139 302.5q0 116 57 206.5t162 139.5v9q-196 103 -196 311q0 174 136 286.5t357 112.5q223 0 359.5 -112.5t136.5 -286.5q0 -207 -197 -311v-9q105 -49 162 -139.5t57 -206.5q0 -187 -139 -302.5t-379 -115.5zM610 850q92 0 146.5 49.5
t54.5 128.5q0 81 -54 130.5t-147 49.5q-91 0 -144.5 -49.5t-53.5 -130.5q0 -79 53.5 -128.5t144.5 -49.5zM610 225q97 0 159 53t62 140q0 85 -62.5 140.5t-158.5 55.5q-95 0 -157 -55.5t-62 -140.5q0 -87 62 -140t157 -53z" />
    <glyph glyph-name="nine.lf" horiz-adv-x="1222" 
d="M610 1458q147 0 269.5 -67t194 -187t71.5 -268q0 -101 -38.5 -202.5t-133.5 -239.5l-330 -494h-352l297 438h-27q-206 0 -347.5 140t-141.5 354q0 147 71 268t194.5 189.5t272.5 68.5zM608 688q102 0 170 70t68 178q0 109 -68 179.5t-170 70.5t-169.5 -70.5t-67.5 -179.5
q0 -108 67.5 -178t169.5 -70z" />
    <glyph glyph-name="zero.tf" horiz-adv-x="1331" 
d="M666 -25q-252 0 -390.5 143t-138.5 398v402q0 255 138.5 397.5t390.5 142.5t390 -142.5t138 -397.5v-402q0 -255 -138 -398t-390 -143zM666 248q229 0 229 268v402q0 268 -229 268q-112 0 -171 -66.5t-59 -201.5v-402q0 -135 59 -201.5t171 -66.5z" />
    <glyph glyph-name="one.tf" horiz-adv-x="1331" 
d="M901 272h285v-272h-955v272h371v719h-332v262h103q140 0 203 40t86 141h239v-1162z" />
    <glyph glyph-name="two.tf" horiz-adv-x="1331" 
d="M788 518q-125 -75 -189.5 -131.5t-92.5 -114.5h655v-272h-981v145q0 89 17.5 156.5t63 135t122.5 131t199 137.5q166 104 225 173t59 142q0 77 -46.5 121.5t-125.5 44.5q-90 0 -151 -62t-82 -192l-293 51q32 230 170.5 352.5t351.5 122.5q216 0 345.5 -118.5
t129.5 -317.5q0 -144 -84.5 -260.5t-292.5 -243.5z" />
    <glyph glyph-name="three.tf" horiz-adv-x="1331" 
d="M676 -25q-221 0 -358 120t-154 331l289 37q13 -106 72 -160.5t153 -54.5q93 0 148 51t55 135q0 83 -56 128.5t-161 45.5h-142v246h137q96 0 143.5 43.5t47.5 120.5q0 80 -46.5 124t-131.5 44q-177 0 -213 -207l-293 39q28 205 165 322.5t347 117.5t340.5 -112.5
t130.5 -296.5q0 -216 -191 -312v-6q107 -46 164.5 -131.5t57.5 -200.5q0 -187 -139.5 -305.5t-364.5 -118.5z" />
    <glyph glyph-name="four.tf" horiz-adv-x="1331" 
d="M1249 510v-254h-168v-256h-280v256h-678v236l600 942h358v-924h168zM424 510h377v592z" />
    <glyph glyph-name="five.tf" horiz-adv-x="1331" 
d="M745 946q197 0 323 -130.5t126 -344.5q0 -222 -143.5 -359t-374.5 -137q-208 0 -347.5 112t-162.5 300l289 53q15 -90 76.5 -141t148.5 -51q99 0 158 64.5t59 170.5q0 105 -58 165.5t-155 60.5q-64 0 -119 -27.5t-88 -79.5h-287l99 832h809v-273h-555l-35 -278
q100 63 237 63z" />
    <glyph glyph-name="six.tf" horiz-adv-x="1331" 
d="M717 995q207 0 348 -139.5t141 -353.5q0 -147 -71 -268t-194.5 -190t-272.5 -69q-147 0 -269.5 67.5t-194 187.5t-71.5 268q0 101 38.5 202.5t133.5 239.5l330 494h352l-297 -439h27zM670 248q102 0 169.5 70.5t67.5 179.5q0 108 -67.5 177.5t-169.5 69.5t-170 -69.5
t-68 -177.5q0 -109 68 -179.5t170 -70.5z" />
    <glyph glyph-name="seven.tf" horiz-adv-x="1331" 
d="M170 1434h983v-267l-496 -1167h-348l510 1153h-649v281z" />
    <glyph glyph-name="eight.tf" horiz-adv-x="1331" 
d="M666 -25q-240 0 -379.5 115.5t-139.5 302.5q0 116 57.5 206.5t162.5 139.5v9q-195 104 -195 311q0 174 136 286.5t358 112.5q221 0 357 -112.5t136 -286.5q0 -207 -194 -311v-9q105 -49 162 -139.5t57 -206.5q0 -187 -139 -302.5t-379 -115.5zM666 850q91 0 145.5 49.5
t54.5 128.5q0 80 -54.5 130t-145.5 50t-146 -50t-55 -130q0 -79 55 -128.5t146 -49.5zM666 225q95 0 158 53.5t63 139.5q0 85 -62.5 140.5t-158.5 55.5q-97 0 -159.5 -55.5t-62.5 -140.5q0 -86 63.5 -139.5t158.5 -53.5z" />
    <glyph glyph-name="nine.tf" horiz-adv-x="1331" 
d="M664 1458q147 0 269 -67t193.5 -187t71.5 -268q0 -101 -38.5 -202.5t-133.5 -239.5l-330 -494h-352l297 438h-27q-206 0 -347.5 140t-141.5 354q0 147 71 268t194.5 189.5t273.5 68.5zM662 688q102 0 169.5 70t67.5 178q0 109 -67.5 179.5t-169.5 70.5t-170 -70.5
t-68 -179.5q0 -108 68 -178t170 -70z" />
    <glyph glyph-name="zero.tf.zero" horiz-adv-x="1331" 
d="M666 1458q252 0 390 -142.5t138 -397.5v-402q0 -255 -138 -398t-390 -143t-390.5 143t-138.5 398v402q0 255 138.5 397.5t390.5 142.5zM666 1186q-112 0 -171 -66.5t-59 -201.5v-230l453 303q-13 97 -70.5 146t-152.5 49zM666 248q229 0 229 268v232l-455 -306
q30 -194 226 -194z" />
    <glyph glyph-name="colon.case" horiz-adv-x="583" 
d="M303 844q-85 0 -138.5 53.5t-53.5 138.5t53.5 139t138.5 54q83 0 137 -54t54 -139q0 -84 -54 -138t-137 -54zM303 201q-85 0 -138.5 53.5t-53.5 136.5q0 85 53.5 139t138.5 54q83 0 137 -54t54 -139q0 -83 -54 -136.5t-137 -53.5z" />
    <glyph glyph-name="exclamdown.case" horiz-adv-x="616" 
d="M307 1452q85 0 139 -53.5t54 -138.5t-54 -139t-139 -54q-83 0 -136.5 54t-53.5 139t53.5 138.5t136.5 53.5zM184 934h248l27 -934h-301z" />
    <glyph glyph-name="questiondown.case" horiz-adv-x="1021" 
d="M555 1454q83 0 136.5 -53.5t53.5 -138.5t-53.5 -139t-136.5 -54q-85 0 -139 54t-54 139t54 138.5t139 53.5zM698 936v-80q0 -102 -31 -158.5t-139 -146.5l-94 -78q-41 -36 -57.5 -64t-16.5 -59q0 -51 34.5 -80.5t97.5 -29.5q162 0 231 202l250 -98q-40 -171 -168.5 -269
t-312.5 -98q-185 0 -301.5 98t-116.5 261q0 85 40 156.5t138 154.5l86 72q48 42 61 67.5t13 83.5v66h286z" />
    <glyph glyph-name="parenleft.case" horiz-adv-x="716" 
d="M449 -180q-162 179 -250 418t-88 481q0 240 88 480t250 419l219 -135q-118 -148 -189 -354t-71 -410q0 -205 71 -411.5t189 -354.5z" />
    <glyph glyph-name="parenright.case" horiz-adv-x="716" 
d="M266 -182l-217 135q117 146 187.5 353t70.5 411t-70.5 411t-187.5 353l217 135q162 -179 250 -418t88 -481t-88 -481t-250 -418z" />
    <glyph glyph-name="braceleft.case" horiz-adv-x="800" 
d="M537 -160q-156 0 -242 79.5t-86 219.5v324q0 65 -31 94t-100 29h-17v262h17q69 0 100 29t31 94v323q0 140 86 219.5t242 79.5h198v-258h-123q-63 0 -90.5 -26.5t-27.5 -89.5v-248q0 -203 -172 -250v-8q172 -47 172 -250v-248q0 -63 27.5 -90t90.5 -27h123v-258h-198z" />
    <glyph glyph-name="braceright.case" horiz-adv-x="800" 
d="M264 -160h-198v258h124q62 0 90.5 27.5t28.5 89.5v248q0 204 172 250v8q-172 46 -172 250v248q0 62 -28.5 89t-90.5 27h-124v258h198q156 0 242 -79.5t86 -219.5v-323q0 -64 31.5 -93.5t99.5 -29.5h18v-262h-18q-68 0 -99.5 -29.5t-31.5 -93.5v-324q0 -140 -86 -219.5
t-242 -79.5z" />
    <glyph glyph-name="bracketleft.case" horiz-adv-x="774" 
d="M711 1333h-267v-1233h267v-260h-553v1753h553v-260z" />
    <glyph glyph-name="bracketright.case" horiz-adv-x="774" 
d="M63 1593h553v-1753h-553v260h267v1233h-267v260z" />
    <glyph glyph-name="hyphen.case" horiz-adv-x="808" 
d="M80 543v252h649v-252h-649z" />
    <glyph glyph-name="endash.case" horiz-adv-x="1024" 
d="M0 541v254h1024v-254h-1024z" />
    <glyph glyph-name="emdash.case" horiz-adv-x="2048" 
d="M0 541v254h2048v-254h-2048z" />
    <glyph glyph-name="guillemotleft.case" horiz-adv-x="1329" 
d="M715 1167l-314 -450l314 -451h-312l-317 451l317 450h312zM1233 1167l-315 -450l315 -451h-313l-316 451l316 450h313z" />
    <glyph glyph-name="guillemotright.case" horiz-adv-x="1329" 
d="M410 1167l315 -450l-315 -451h-314l316 451l-316 450h314zM926 1167l317 -450l-317 -451h-312l314 451l-314 450h312z" />
    <glyph glyph-name="guilsinglleft.case" horiz-adv-x="813" 
d="M715 1167l-314 -450l314 -451h-312l-317 451l317 450h312z" />
    <glyph glyph-name="guilsinglright.case" horiz-adv-x="813" 
d="M410 1167l315 -450l-315 -451h-314l316 451l-316 450h314z" />
    <glyph glyph-name="cent.tf" horiz-adv-x="1331" 
d="M733 440q67 12 114.5 58.5t59.5 117.5l260 -41q-26 -158 -144 -259t-290 -115v-201h-121v203q-194 24 -315 164t-121 350q0 211 120.5 351t315.5 163v203h121v-201q174 -14 291 -114.5t143 -262.5l-268 -43q-12 72 -56.5 119t-109.5 59v-551zM446 717q0 -103 45 -174.5
t121 -96.5v541q-75 -24 -120.5 -95t-45.5 -175z" />
    <glyph glyph-name="currency.tf" horiz-adv-x="1331" 
d="M1087 717q0 -127 -63 -228l137 -135l-133 -133l-141 141q-96 -55 -221 -55q-123 0 -224 53l-139 -139l-133 133l137 138q-63 97 -63 225t63 225l-137 137l133 133l139 -139q101 53 224 53q125 0 221 -55l141 141l133 -133l-137 -135q63 -101 63 -227zM666 543
q76 0 122 48t46 126t-46 126t-122 48t-123 -48t-47 -126t47 -126t123 -48z" />
    <glyph glyph-name="dollar.tf" horiz-adv-x="1331" 
d="M1153 471q0 -177 -118 -292.5t-314 -127.5v-137h-121v139q-171 19 -285 118.5t-139 252.5l260 63q45 -149 164 -184v318l-53 12q-176 36 -265 126.5t-89 227.5q0 163 113.5 272.5t303.5 122.5v138h121v-140q163 -17 270.5 -108.5t135.5 -239.5l-258 -65q-27 137 -148 168
v-297l72 -15q181 -39 265.5 -126.5t84.5 -225.5zM465 997q0 -49 31.5 -79t113.5 -54v279q-69 -9 -107 -47.5t-38 -98.5zM721 293q74 9 116 50.5t42 105.5q0 56 -36 89.5t-122 55.5v-301z" />
    <glyph glyph-name="Euro.tf" horiz-adv-x="1331" 
d="M797 227q76 0 130 53t77 156l270 -67q-36 -182 -168.5 -288t-310.5 -106q-200 0 -343 135t-190 377h-160v162h142q-2 23 -2 68q0 44 2 67h-142v162h160q49 242 191 377t342 135q177 0 310 -106t169 -287l-277 -68q-17 103 -70.5 156t-129.5 53q-86 0 -150 -65t-94 -195
h356v-162h-377q-2 -23 -2 -67q0 -45 2 -68h377v-162h-356q30 -129 94 -194.5t150 -65.5z" />
    <glyph glyph-name="florin.tf" horiz-adv-x="1331" 
d="M1034 1196q-73 0 -109 -31t-51 -112l-32 -170h243v-185h-278l-76 -405q-32 -163 -123 -240.5t-243 -77.5q-69 0 -140 19v250q37 -6 72 -6q71 0 107 31t53 112l59 317h-205v185h240l49 258q59 317 365 317q71 0 139 -18v-250q-34 6 -70 6z" />
    <glyph glyph-name="sterling.tf" horiz-adv-x="1331" 
d="M735 489q0 -140 -92 -235h520v-254h-956v166q134 93 188 168t54 166q0 35 -11 88h-227v186h149q-27 55 -42.5 90t-29.5 90.5t-14 108.5q0 171 122.5 283t320.5 112q189 0 308.5 -103t139.5 -282l-270 -55q-25 190 -174 190q-71 0 -111.5 -40.5t-40.5 -110.5
q0 -20 4.5 -44t9 -41.5t17 -49.5t18 -45t23 -53t21.5 -50h352v-186h-289q10 -55 10 -99z" />
    <glyph glyph-name="yen.tf" horiz-adv-x="1331" 
d="M1227 1434l-357 -682h291v-174h-352v-152h352v-174h-352v-252h-287v252h-350v174h350v152h-350v174h289l-357 682h304l258 -531l258 531h303z" />
    <glyph glyph-name="at.case" horiz-adv-x="1990" 
d="M1038 -184q-271 0 -484.5 112.5t-332.5 315t-119 461.5q0 197 73 368.5t197.5 290t296 186.5t363.5 68q181 0 343.5 -60.5t282 -166t189.5 -258.5t70 -330q0 -234 -114.5 -382.5t-289.5 -148.5q-99 0 -176.5 49t-107.5 134h-6q-33 -87 -105 -131.5t-170 -44.5
q-161 0 -264.5 118t-103.5 310q0 193 104 311.5t264 118.5q81 0 142.5 -33t93.5 -96h8l14 100h203v-483q0 -70 27.5 -107t74.5 -37q71 0 117.5 76.5t46.5 220.5q0 186 -85 325t-229.5 210t-326.5 71q-200 0 -355.5 -85.5t-241 -239t-85.5 -350.5q0 -298 190 -480t500 -182
q228 0 377 86l103 -203q-194 -114 -484 -114zM1008 496q76 0 128 49.5t52 120.5v84q0 71 -52 120.5t-128 49.5q-81 0 -132 -56.5t-51 -156.5q0 -99 51.5 -155t131.5 -56z" />
    <glyph glyph-name="uni0308.case" 
d="M-854 1124q-73 0 -125.5 51t-52.5 128t52.5 128.5t125.5 51.5t124.5 -51.5t51.5 -128.5t-51.5 -128t-124.5 -51zM-375 1124q-73 0 -124.5 51t-51.5 128t51.5 128.5t124.5 51.5t125.5 -51.5t52.5 -128.5t-52.5 -128t-125.5 -51z" />
    <glyph glyph-name="uni0307.case" 
d="M-614 1116q-79 0 -135 53t-56 134q0 80 56 133t135 53t134.5 -52.5t55.5 -133.5t-55.5 -134t-134.5 -53z" />
    <glyph glyph-name="gravecomb.case" 
d="M-684 1118l-234 328h345l165 -328h-276z" />
    <glyph glyph-name="acutecomb.case" 
d="M-838 1118l164 328h346l-235 -328h-275z" />
    <glyph glyph-name="uni030B.case" 
d="M-975 1118l144 328h290l-194 -328h-240zM-565 1118l145 328h289l-193 -328h-241z" />
    <glyph glyph-name="uni0302.case" 
d="M-215 1118h-270l-129 158l-129 -158h-271l254 328h291z" />
    <glyph glyph-name="uni030C.case" 
d="M-485 1446h270l-254 -328h-291l-254 328h271l129 -158z" />
    <glyph glyph-name="uni0306.case" 
d="M-614 1114q-155 0 -243.5 83t-88.5 224v23h225q0 -148 107 -148q106 0 106 148h225v-23q0 -141 -88 -224t-243 -83z" />
    <glyph glyph-name="uni030A.case" 
d="M-614 1094q-114 0 -188.5 69t-74.5 172t75 172.5t188 69.5t187.5 -69.5t74.5 -172.5t-74.5 -172t-187.5 -69zM-614 1255q38 0 60 22t22 58t-22 58t-60 22t-60 -22t-22 -58t22 -58t60 -22z" />
    <glyph glyph-name="tildecomb.case" 
d="M-459 1110q-83 0 -180 82q-57 49 -88 49q-51 0 -51 -121h-199q0 164 54.5 249t154.5 85q84 0 178 -82q59 -49 88 -49q53 0 53 123h197q0 -164 -54 -250t-153 -86z" />
    <glyph glyph-name="uni0304.case" 
d="M-926 1161v225h623v-225h-623z" />
    <glyph glyph-name="uni0315.case" 
d="M-618 1458q78 0 126.5 -61t47.5 -158q-1 -98 -59.5 -192.5t-166.5 -176.5l-78 86q115 103 142 187h-19q-69 0 -113 42.5t-44 108.5q0 70 47 117t117 47z" />
    <glyph glyph-name="uni0326.case" 
d="M-621 -133q84 0 135 -61t50 -160q-3 -107 -70 -211h-156q37 55 56 119h-19q-74 0 -120 44.5t-46 110.5q0 65 48.5 111.5t121.5 46.5z" />
    <glyph glyph-name="uni0327.case" 
d="M-600 -92q86 -13 133 -60.5t47 -121.5q0 -94 -74.5 -149.5t-207.5 -55.5q-56 0 -109 12v162q27 -4 72 -4q94 0 94 49q0 24 -31.5 35.5t-120.5 11.5l21 213h178z" />
    <glyph glyph-name="uni0328.case" 
d="M-551 -479q-126 0 -200 61.5t-74 165.5q0 106 76 188t219 119l102 -55q-84 -57 -118 -100t-34 -82q0 -68 86 -68q35 0 66 10v-223q-56 -16 -123 -16z" />
    <glyph glyph-name="uni0308.narrow" 
d="M-469 1135q-69 0 -113.5 46.5t-44.5 121.5t44.5 121t113.5 46t113.5 -46t44.5 -121t-44.5 -121.5t-113.5 -46.5zM-78 1135q-68 0 -111.5 46t-43.5 122t43.5 121.5t111.5 45.5q69 0 113.5 -46t44.5 -121t-44.5 -121.5t-113.5 -46.5z" />
    <glyph glyph-name="gravecomb.narrow" 
d="M-379 1126l-180 312h326l114 -312h-260z" />
    <glyph glyph-name="acutecomb.narrow" 
d="M-440 1126l112 312h326l-178 -312h-260z" />
    <glyph glyph-name="uni0302.narrow" 
d="M66 1126h-240l-98 138l-99 -138h-241l219 312h239z" />
    <glyph glyph-name="uni030C.narrow" 
d="M-174 1438h240l-220 -312h-239l-219 312h241l99 -138z" />
    <glyph glyph-name="uni0306.narrow" 
d="M-272 1124q-140 0 -214.5 77t-74.5 212v21h194q0 -69 26 -103.5t69 -34.5t67.5 34t24.5 104h196v-21q0 -135 -74 -212t-214 -77z" />
    <glyph glyph-name="tildecomb.narrow" 
d="M-131 1120q-40 0 -78 17t-88 59q-52 47 -78 47q-47 0 -47 -115h-174q-3 154 44.5 235t135.5 81q77 0 168 -76q52 -47 76 -47q47 0 47 115h174q4 -153 -43.5 -234.5t-136.5 -81.5z" />
    <glyph glyph-name="uni0304.narrow" 
d="M-545 1167v213h545v-213h-545z" />
    <glyph glyph-name="uni0328.narrow" 
d="M-240 -451q-113 0 -179 56t-66 153q0 100 71 179t195 112l90 -49q-125 -102 -125 -172q0 -64 68 -64q20 0 57 11v-211q-53 -15 -111 -15z" />
  </font>
</defs>
</svg>
